<svg width="21" height="20" viewBox="0 0 21 20" fill="none" xmlns="http://www.w3.org/2000/svg">
<g clip-path="url(#clip0_3301_11035)">
<path d="M3.05469 6.0094L10.5 10.0844L17.9453 6.0094" stroke="black" stroke-linecap="round" stroke-linejoin="round"/>
<path d="M10.5 10.0851V18.1226" stroke="black" stroke-linecap="round" stroke-linejoin="round"/>
<path d="M17.675 14.2844L10.8 18.0484C10.708 18.0988 10.6049 18.1251 10.5 18.1251C10.3951 18.1251 10.292 18.0988 10.2 18.0484L3.325 14.2844C3.22683 14.2306 3.14488 14.1516 3.08772 14.0554C3.03055 13.9592 3.00025 13.8494 3 13.7375V6.26405C3.00025 6.15215 3.03055 6.04236 3.08772 5.94617C3.14488 5.84997 3.22683 5.77089 3.325 5.71717L10.2 1.95311C10.292 1.90278 10.3951 1.8764 10.5 1.8764C10.6049 1.8764 10.708 1.90278 10.8 1.95311L17.675 5.71717C17.7732 5.77089 17.8551 5.84997 17.9123 5.94617C17.9695 6.04236 17.9997 6.15215 18 6.26405V13.7359C18 13.8481 17.9699 13.9582 17.9127 14.0547C17.8555 14.1512 17.7734 14.2305 17.675 14.2844Z" stroke="black" stroke-linecap="round" stroke-linejoin="round"/>
<path d="M6.87207 3.77423L14.2502 7.81251V11.875" stroke="black" stroke-linecap="round" stroke-linejoin="round"/>
</g>
<defs>
<clipPath id="clip0_3301_11035">
<rect width="20" height="20" fill="white" transform="translate(0.5)"/>
</clipPath>
</defs>
</svg>
