<svg width="100%" height="100%" xmlns="http://www.w3.org/2000/svg" fill="none" overflow="visible" preserveAspectRatio="none" style="display:block" viewBox="0 0 379.225 395.477"><g clip-path="url(#a)" opacity=".1"><path fill="var(--fill-0, #672666)" d="M189.612 202.15c2.338 0 4.233-1.975 4.233-4.412s-1.895-4.413-4.233-4.413-4.232 1.976-4.232 4.413 1.895 4.412 4.232 4.412m-9.811 0c2.338 0 4.232-1.975 4.232-4.412s-1.894-4.413-4.232-4.413-4.232 1.976-4.232 4.413 1.895 4.412 4.232 4.412m4.906-8.86c2.337 0 4.232-1.976 4.232-4.413s-1.895-4.412-4.232-4.412-4.232 1.975-4.232 4.412 1.894 4.413 4.232 4.413m9.812 0c2.337 0 4.232-1.976 4.232-4.413s-1.895-4.412-4.232-4.412-4.232 1.975-4.232 4.412 1.895 4.413 4.232 4.413m4.907 8.86c2.337 0 4.232-1.975 4.232-4.412s-1.895-4.413-4.232-4.413-4.232 1.976-4.232 4.413 1.895 4.412 4.232 4.412m-4.907 8.861c2.337 0 4.232-1.976 4.232-4.413s-1.895-4.413-4.232-4.413-4.232 1.976-4.232 4.413 1.895 4.413 4.232 4.413m-9.812 0c2.337 0 4.232-1.976 4.232-4.413s-1.895-4.413-4.232-4.413-4.232 1.976-4.232 4.413 1.894 4.413 4.232 4.413m24.53-8.861c2.337 0 4.232-1.975 4.232-4.412s-1.895-4.413-4.232-4.413-4.232 1.976-4.232 4.413 1.894 4.412 4.232 4.412m-2.628 10.23c2.337 0 4.232-1.976 4.232-4.413s-1.895-4.412-4.232-4.412-4.232 1.975-4.232 4.412 1.895 4.413 4.232 4.413m-7.183 7.491c2.337 0 4.232-1.975 4.232-4.412 0-2.438-1.895-4.413-4.232-4.413s-4.232 1.975-4.232 4.413c0 2.437 1.895 4.412 4.232 4.412m-9.814 2.741c2.338 0 4.233-1.976 4.233-4.413s-1.895-4.413-4.233-4.413-4.232 1.976-4.232 4.413 1.895 4.413 4.232 4.413m-9.811-2.741c2.338 0 4.232-1.975 4.232-4.412 0-2.438-1.894-4.413-4.232-4.413s-4.232 1.975-4.232 4.413c0 2.437 1.895 4.412 4.232 4.412m-7.182-7.491c2.338 0 4.233-1.976 4.233-4.413s-1.895-4.412-4.233-4.412-4.232 1.975-4.232 4.412 1.895 4.413 4.232 4.413m-2.63-10.23c2.338 0 4.232-1.975 4.232-4.412s-1.894-4.413-4.232-4.413-4.232 1.976-4.232 4.413 1.895 4.412 4.232 4.412m2.63-10.231c2.338 0 4.233-1.976 4.233-4.413s-1.895-4.413-4.233-4.413-4.232 1.976-4.232 4.413 1.895 4.413 4.232 4.413m7.182-7.49c2.338 0 4.232-1.975 4.232-4.412s-1.894-4.413-4.232-4.413-4.232 1.976-4.232 4.413 1.895 4.412 4.232 4.412m9.811-2.74c2.338 0 4.233-1.976 4.233-4.413s-1.895-4.412-4.233-4.412-4.232 1.975-4.232 4.412 1.895 4.413 4.232 4.413m9.814 2.74c2.337 0 4.232-1.975 4.232-4.412s-1.895-4.413-4.232-4.413-4.232 1.976-4.232 4.413 1.895 4.412 4.232 4.412m7.183 7.49c2.337 0 4.232-1.976 4.232-4.413s-1.895-4.413-4.232-4.413-4.232 1.976-4.232 4.413 1.895 4.413 4.232 4.413m-46.432 10.231c2.338 0 4.232-1.975 4.232-4.412s-1.894-4.413-4.232-4.413-4.232 1.976-4.232 4.413 1.895 4.412 4.232 4.412m1.774-10.497c2.338 0 4.232-1.976 4.232-4.413s-1.894-4.412-4.232-4.412-4.232 1.975-4.232 4.412 1.895 4.413 4.232 4.413m5.112-9.231c2.337 0 4.232-1.976 4.232-4.413s-1.895-4.413-4.232-4.413-4.232 1.976-4.232 4.413 1.895 4.413 4.232 4.413m7.834-6.853c2.337 0 4.232-1.976 4.232-4.413s-1.895-4.412-4.232-4.412-4.233 1.975-4.233 4.412 1.895 4.413 4.233 4.413m9.605-3.645c2.337 0 4.232-1.975 4.232-4.412s-1.895-4.413-4.232-4.413-4.232 1.976-4.232 4.413 1.894 4.412 4.232 4.412m10.223 0c2.337 0 4.232-1.975 4.232-4.412s-1.895-4.413-4.232-4.413-4.232 1.976-4.232 4.413 1.895 4.412 4.232 4.412m9.606 3.645c2.337 0 4.232-1.976 4.232-4.413s-1.895-4.412-4.232-4.412-4.232 1.975-4.232 4.412 1.894 4.413 4.232 4.413m7.831 6.853c2.337 0 4.232-1.976 4.232-4.413s-1.895-4.413-4.232-4.413-4.232 1.976-4.232 4.413 1.895 4.413 4.232 4.413m5.112 9.231c2.337 0 4.232-1.976 4.232-4.413s-1.895-4.412-4.232-4.412-4.232 1.975-4.232 4.412 1.894 4.413 4.232 4.413m1.776 10.497c2.338 0 4.232-1.975 4.232-4.412s-1.894-4.413-4.232-4.413-4.232 1.976-4.232 4.413 1.895 4.412 4.232 4.412m-1.776 10.497c2.337 0 4.232-1.975 4.232-4.412s-1.895-4.413-4.232-4.413-4.232 1.976-4.232 4.413 1.894 4.412 4.232 4.412m-5.112 9.232c2.337 0 4.232-1.976 4.232-4.413s-1.895-4.412-4.232-4.412-4.232 1.975-4.232 4.412 1.895 4.413 4.232 4.413m-7.831 6.85c2.337 0 4.232-1.975 4.232-4.412s-1.895-4.413-4.232-4.413-4.232 1.976-4.232 4.413 1.894 4.412 4.232 4.412m-9.606 3.647c2.337 0 4.232-1.976 4.232-4.413s-1.895-4.412-4.232-4.412-4.232 1.975-4.232 4.412 1.895 4.413 4.232 4.413m-10.223 0c2.337 0 4.232-1.976 4.232-4.413s-1.895-4.412-4.232-4.412-4.232 1.975-4.232 4.412 1.894 4.413 4.232 4.413m-9.605-3.647c2.337 0 4.232-1.975 4.232-4.412s-1.895-4.413-4.232-4.413-4.233 1.976-4.233 4.413 1.895 4.412 4.233 4.412m-7.834-6.85c2.337 0 4.232-1.976 4.232-4.413s-1.895-4.412-4.232-4.412-4.232 1.975-4.232 4.412 1.895 4.413 4.232 4.413m-5.112-9.232c2.338 0 4.232-1.975 4.232-4.412s-1.894-4.413-4.232-4.413-4.232 1.976-4.232 4.413 1.895 4.412 4.232 4.412m66.909-10.637c2.263 0 4.098-1.913 4.098-4.272s-1.835-4.272-4.098-4.272-4.097 1.912-4.097 4.272c0 2.359 1.834 4.272 4.097 4.272m-1.335 10.554c2.243 0 4.061-1.896 4.061-4.235s-1.818-4.235-4.061-4.235c-2.244 0-4.062 1.896-4.062 4.235s1.818 4.235 4.062 4.235m-3.92 9.87c2.243 0 4.061-1.896 4.061-4.235s-1.818-4.235-4.061-4.235c-2.244 0-4.062 1.896-4.062 4.235s1.818 4.235 4.062 4.235m-3.329 7.272c1.607-1.675 1.607-4.392 0-6.067a3.996 3.996 0 0 0-5.818 0c-1.607 1.675-1.607 4.392 0 6.067a3.996 3.996 0 0 0 5.818 0m-11.039 7.706c2.243 0 4.061-1.896 4.061-4.235s-1.818-4.235-4.061-4.235-4.062 1.896-4.062 4.235 1.819 4.235 4.062 4.235m-5.458.569c.369-2.302-1.121-4.481-3.329-4.866s-4.297 1.169-4.667 3.471c-.369 2.302 1.121 4.48 3.329 4.866s4.297-1.169 4.667-3.471m-14.166 4.947c2.26 0 4.093-1.91 4.093-4.268s-1.833-4.267-4.093-4.267c-2.261 0-4.093 1.91-4.093 4.267s1.832 4.268 4.093 4.268m-6.166-5.023c.348-2.304-1.161-4.466-3.372-4.829s-4.283 1.211-4.632 3.515 1.162 4.467 3.372 4.83 4.284-1.211 4.632-3.516m-13.459-.487c2.246 0 4.068-1.899 4.068-4.241 0-2.343-1.822-4.242-4.068-4.242-2.247 0-4.068 1.899-4.068 4.242s1.821 4.241 4.068 4.241m-8.127-6.455c2.272 0 4.114-1.921 4.114-4.29s-1.842-4.29-4.114-4.29-4.114 1.921-4.114 4.29 1.842 4.29 4.114 4.29m-4.689-8.804c2.096-.892 3.101-3.388 2.245-5.573s-3.249-3.233-5.345-2.341c-2.096.893-3.101 3.389-2.245 5.574s3.249 3.233 5.345 2.34m-5.469-9.542c2.271 0 4.112-1.92 4.112-4.288s-1.841-4.287-4.112-4.287-4.112 1.919-4.112 4.287 1.841 4.288 4.112 4.288m.238-10.925c2.086-.913 3.066-3.416 2.191-5.591-.876-2.174-3.277-3.196-5.362-2.283s-3.066 3.416-2.19 5.59 3.276 3.197 5.361 2.284m-.238-10.265c2.267 0 4.106-1.917 4.106-4.281s-1.839-4.281-4.106-4.281-4.106 1.917-4.106 4.281 1.838 4.281 4.106 4.281m7.881-13.014c.596-2.278-.692-4.628-2.876-5.249s-4.438.722-5.034 3c-.595 2.278.693 4.627 2.877 5.248s4.438-.722 5.033-2.999m2.277-5.321c2.274 0 4.117-1.922 4.117-4.292s-1.843-4.292-4.117-4.292-4.116 1.921-4.116 4.292 1.843 4.292 4.116 4.292m8.128-6.55c2.247 0 4.07-1.9 4.07-4.244s-1.823-4.244-4.07-4.244-4.07 1.9-4.07 4.244 1.822 4.244 4.07 4.244m13.465-7.666c.357-2.306-1.146-4.476-3.358-4.848-2.211-.372-4.292 1.196-4.649 3.501-.356 2.306 1.147 4.476 3.358 4.848s4.293-1.196 4.649-3.501m6.159 2.218c2.266 0 4.103-1.916 4.103-4.279s-1.837-4.279-4.103-4.279-4.104 1.916-4.104 4.279 1.837 4.279 4.104 4.279m12.477.562c1.835-1.335 2.284-3.968 1.004-5.881-1.281-1.913-3.806-2.382-5.641-1.047s-2.284 3.968-1.004 5.881c1.281 1.913 3.806 2.382 5.641 1.047m7.147 4.888c2.249 0 4.072-1.901 4.072-4.246s-1.823-4.246-4.072-4.246-4.073 1.901-4.073 4.246 1.824 4.246 4.073 4.246m11.043 5.295c1.61-1.679 1.61-4.401 0-6.079a4.004 4.004 0 0 0-5.83 0c-1.61 1.678-1.61 4.4 0 6.079a4.005 4.005 0 0 0 5.83 0m3.325 9.672c2.243 0 4.061-1.896 4.061-4.235s-1.818-4.235-4.061-4.235c-2.244 0-4.062 1.896-4.062 4.235s1.818 4.235 4.062 4.235m6.794 8.63c1.587-1.655 1.587-4.337 0-5.992a3.947 3.947 0 0 0-5.747 0c-1.587 1.655-1.587 4.337 0 5.992a3.947 3.947 0 0 0 5.747 0m-89.846 11.704c2.176 0 3.94-1.839 3.94-4.107s-1.764-4.108-3.94-4.108-3.94 1.839-3.94 4.108 1.764 4.107 3.94 4.107m1.072-10.633c2.177 0 3.942-1.84 3.942-4.11s-1.765-4.11-3.942-4.11-3.941 1.84-3.941 4.11 1.764 4.11 3.941 4.11m3.169-10.177c2.173 0 3.935-1.837 3.935-4.103s-1.762-4.104-3.935-4.104-3.936 1.837-3.936 4.104c0 2.266 1.762 4.103 3.936 4.103m5.129-9.258c2.176 0 3.94-1.839 3.94-4.107s-1.764-4.108-3.94-4.108-3.939 1.839-3.939 4.108 1.763 4.107 3.939 4.107m10.666-11.073c.521-2.192-.761-4.408-2.863-4.951s-4.228.794-4.748 2.985c-.521 2.192.761 4.408 2.863 4.951s4.228-.794 4.748-2.985m6.013-3.466c2.006-.878 2.95-3.285 2.108-5.377s-3.151-3.076-5.157-2.198-2.95 3.286-2.108 5.377c.842 2.092 3.151 3.076 5.157 2.198m7.85-4.02c2.188 0 3.961-1.849 3.961-4.129 0-2.281-1.773-4.13-3.961-4.13s-3.96 1.849-3.96 4.13 1.773 4.129 3.96 4.129m11.508-2.563c2.002-.853 2.961-3.236 2.143-5.322-.818-2.087-3.103-3.087-5.104-2.234s-2.961 3.235-2.143 5.322 3.103 3.087 5.104 2.234m12.63-3.153c.344-2.223-1.106-4.316-3.237-4.674s-4.139 1.153-4.483 3.376 1.106 4.315 3.238 4.674c2.132.358 4.139-1.153 4.482-3.376m6.184 5.692c2.174 0 3.937-1.838 3.937-4.105s-1.763-4.106-3.937-4.106-3.938 1.838-3.938 4.106 1.763 4.105 3.938 4.105m9.367 4.362c2.182 0 3.951-1.844 3.951-4.118s-1.769-4.119-3.951-4.119c-2.181 0-3.95 1.844-3.95 4.119s1.769 4.118 3.95 4.118m11.064 5.05c1.527-1.592 1.527-4.173 0-5.765a3.797 3.797 0 0 0-5.53 0c-1.527 1.592-1.527 4.173 0 5.765a3.8 3.8 0 0 0 5.53 0m4.098 9.18c2.181 0 3.948-1.843 3.948-4.116 0-2.274-1.767-4.117-3.948-4.117s-3.948 1.843-3.948 4.117 1.768 4.116 3.948 4.116m8.913 6.08c.488-2.173-.805-4.346-2.889-4.855-2.083-.508-4.167.84-4.655 3.012s.805 4.346 2.889 4.855c2.083.508 4.167-.84 4.655-3.012m-.615 13.328c2.168 0 3.925-1.832 3.925-4.092s-1.757-4.092-3.925-4.092c-2.167 0-3.925 1.832-3.925 4.092s1.758 4.092 3.925 4.092m4.147 9.109c1.349-1.768 1.067-4.341-.628-5.747-1.696-1.407-4.163-1.114-5.512.654s-1.068 4.341.628 5.747c1.695 1.407 4.163 1.113 5.512-.654m-2.666 11.873c2.007-.856 2.97-3.246 2.149-5.34-.82-2.093-3.113-3.096-5.12-2.241-2.008.856-2.97 3.246-2.15 5.339s3.113 3.097 5.121 2.242m-4.651 10.398c2.135 0 3.866-1.804 3.866-4.031s-1.731-4.03-3.866-4.03-3.866 1.804-3.866 4.03 1.731 4.031 3.866 4.031m-5.128 9.365c2.189 0 3.964-1.85 3.964-4.134 0-2.283-1.775-4.134-3.964-4.134s-3.965 1.851-3.965 4.134 1.775 4.134 3.965 4.134m-3.008 4.463c.348-2.222-1.098-4.317-3.229-4.68s-4.141 1.145-4.489 3.367 1.098 4.318 3.229 4.68 4.141-1.144 4.489-3.367m-12.154 9.754c2.182 0 3.951-1.844 3.951-4.119s-1.769-4.118-3.951-4.118c-2.181 0-3.95 1.844-3.95 4.118s1.769 4.119 3.95 4.119m-9.368 4.343c2.179 0 3.944-1.841 3.944-4.112s-1.765-4.113-3.944-4.113c-2.178 0-3.943 1.841-3.943 4.113 0 2.271 1.765 4.112 3.943 4.112m-6.226-.964c.496-2.193-.807-4.391-2.911-4.909s-4.212.841-4.709 3.034c-.496 2.194.807 4.392 2.911 4.91s4.212-.841 4.709-3.035m-11.295 1.962c1.528-1.594 1.528-4.178 0-5.772a3.8 3.8 0 0 0-5.536 0c-1.529 1.594-1.529 4.178 0 5.772a3.8 3.8 0 0 0 5.536 0m-12.8-.981c2.188 0 3.961-1.849 3.961-4.129 0-2.281-1.773-4.13-3.961-4.13s-3.96 1.849-3.96 4.13 1.773 4.129 3.96 4.129m-6.581-5.571c1.54-1.606 1.54-4.209 0-5.815a3.83 3.83 0 0 0-5.577 0c-1.54 1.606-1.54 4.209 0 5.815a3.83 3.83 0 0 0 5.577 0m-9.575-5.421c1.994-.873 2.932-3.267 2.095-5.346s-3.133-3.058-5.127-2.185-2.933 3.266-2.095 5.346 3.132 3.058 5.127 2.185m-8.373-7.596c2.183 0 3.954-1.846 3.954-4.123s-1.771-4.123-3.954-4.123-3.955 1.846-3.955 4.123 1.771 4.123 3.955 4.123m-5.129-9.281c2.173 0 3.935-1.837 3.935-4.103s-1.762-4.104-3.935-4.104-3.936 1.837-3.936 4.104c0 2.266 1.762 4.103 3.936 4.103m-3.17-10.166c2.176 0 3.94-1.839 3.94-4.108s-1.764-4.107-3.94-4.107-3.94 1.839-3.94 4.107 1.764 4.108 3.94 4.108m110.209-13.905c.439-1.923-.701-3.853-2.545-4.31s-3.695.731-4.133 2.654c-.439 1.922.701 3.852 2.545 4.309s3.695-.73 4.133-2.653m-2.014 12.633c1.492-1.283 1.704-3.584.473-5.14s-3.438-1.776-4.93-.493-1.703 3.585-.473 5.14c1.231 1.556 3.438 1.777 4.93.493m-4.884 11.152c1.922 0 3.481-1.624 3.481-3.629s-1.559-3.629-3.481-3.629c-1.923 0-3.481 1.625-3.481 3.629s1.558 3.629 3.481 3.629m-4.337 9.664c1.905 0 3.449-1.61 3.449-3.596s-1.544-3.597-3.449-3.597-3.449 1.611-3.449 3.597 1.544 3.596 3.449 3.596m-3.386 7.777c1.381-1.44 1.381-3.774 0-5.214a3.435 3.435 0 0 0-5 0c-1.381 1.44-1.381 3.774 0 5.214a3.435 3.435 0 0 0 5 0m-6.308 5.809c.443-1.982-.738-3.963-2.638-4.425-1.9-.463-3.8.768-4.244 2.75s.737 3.962 2.638 4.425 3.8-.769 4.244-2.75m-11.853 8.918c1.923 0 3.483-1.625 3.483-3.631s-1.56-3.631-3.483-3.631-3.483 1.625-3.483 3.631 1.559 3.631 3.483 3.631m-9.303 4.518c1.922 0 3.479-1.623 3.479-3.627s-1.557-3.627-3.479-3.627c-1.921 0-3.478 1.624-3.478 3.627 0 2.004 1.557 3.627 3.478 3.627m-9.911 2.792c1.932 0 3.499-1.634 3.499-3.65s-1.567-3.649-3.499-3.649-3.5 1.634-3.5 3.649 1.567 3.65 3.5 3.65m-10.224.897c1.914 0 3.466-1.618 3.466-3.614s-1.552-3.614-3.466-3.614-3.466 1.618-3.466 3.614 1.552 3.614 3.466 3.614m-6.844-3.619c.483-1.943-.636-3.926-2.499-4.429-1.864-.504-3.765.663-4.248 2.606s.636 3.925 2.499 4.429c1.863.503 3.765-.663 4.248-2.606m-13.292-.041c1.936 0 3.506-1.637 3.506-3.656s-1.57-3.655-3.506-3.655c-1.937 0-3.506 1.636-3.506 3.655s1.569 3.656 3.506 3.656m-9.3-4.547c1.923 0 3.483-1.625 3.483-3.631s-1.56-3.631-3.483-3.631-3.483 1.625-3.483 3.631 1.559 3.631 3.483 3.631m-5.918-7.175c1.374-1.432 1.374-3.755 0-5.188a3.417 3.417 0 0 0-4.976 0c-1.374 1.433-1.374 3.755 0 5.188a3.417 3.417 0 0 0 4.976 0m-6.234-9.849c.16-2.019-1.28-3.791-3.217-3.958-1.936-.167-3.636 1.335-3.796 3.354s1.28 3.792 3.217 3.959c1.937.166 3.637-1.336 3.796-3.355m-9.397-5.467c1.912 0 3.462-1.616 3.462-3.609 0-1.994-1.55-3.61-3.462-3.61s-3.462 1.616-3.462 3.61 1.55 3.609 3.462 3.609m-4.338-9.718c1.901 0 3.441-1.606 3.441-3.588s-1.54-3.587-3.441-3.587-3.44 1.606-3.44 3.587 1.54 3.588 3.44 3.588m-2.655-10.287c1.926 0 3.487-1.628 3.487-3.636s-1.561-3.635-3.487-3.635-3.487 1.627-3.487 3.635 1.561 3.636 3.487 3.636m-.895-10.728c1.889 0 3.421-1.597 3.421-3.568 0-1.97-1.532-3.567-3.421-3.567-1.89 0-3.422 1.597-3.422 3.567s1.532 3.568 3.422 3.568m4.329-13.627c.309-1.973-.975-3.834-2.868-4.156s-3.677 1.016-3.986 2.99c-.309 1.973.975 3.834 2.868 4.156s3.677-1.016 3.986-2.99m-.778-7.33c1.91 0 3.458-1.614 3.458-3.605s-1.548-3.605-3.458-3.605c-1.909 0-3.457 1.614-3.457 3.605s1.548 3.605 3.457 3.605m4.337-9.663c1.927 0 3.489-1.629 3.489-3.639s-1.562-3.638-3.489-3.638c-1.928 0-3.49 1.629-3.49 3.638s1.562 3.639 3.49 3.639m6.325-8.769c1.931-.249 3.303-2.083 3.064-4.097-.239-2.013-1.998-3.443-3.929-3.194s-3.302 2.083-3.064 4.096c.239 2.013 1.998 3.444 3.929 3.195m6.818-7.539c1.94 0 3.512-1.64 3.512-3.662s-1.572-3.662-3.512-3.662-3.513 1.639-3.513 3.662 1.573 3.662 3.513 3.662m8.406-6.186c1.915 0 3.466-1.618 3.466-3.614s-1.551-3.613-3.466-3.613c-1.914 0-3.466 1.618-3.466 3.613 0 1.996 1.552 3.614 3.466 3.614m9.301-4.52c1.915 0 3.468-1.619 3.468-3.616s-1.553-3.616-3.468-3.616-3.469 1.619-3.469 3.616 1.553 3.616 3.469 3.616m11.229-3.012c1.782-.76 2.634-2.882 1.905-4.739-.729-1.858-2.764-2.747-4.545-1.987s-2.634 2.882-1.905 4.74c.729 1.857 2.764 2.746 4.545 1.986m8.906-.698c1.911 0 3.46-1.616 3.46-3.608s-1.549-3.607-3.46-3.607-3.46 1.615-3.46 3.607 1.549 3.608 3.46 3.608m13.673-2.094c.307-1.986-.988-3.856-2.892-4.176-1.905-.321-3.698 1.029-4.006 3.015-.307 1.986.988 3.856 2.892 4.177 1.905.32 3.698-1.03 4.006-3.016m6.924 5.761c1.885-.27 3.203-2.082 2.945-4.047-.259-1.966-1.997-3.34-3.882-3.07s-3.203 2.082-2.944 4.047 1.996 3.34 3.881 3.07m11.286 3.501c1.352-1.409 1.352-3.693 0-5.102a3.36 3.36 0 0 0-4.892 0c-1.352 1.409-1.352 3.693 0 5.102a3.36 3.36 0 0 0 4.892 0m7.316 6.989c1.792-.784 2.636-2.933 1.885-4.802s-2.813-2.749-4.605-1.966-2.636 2.933-1.885 4.802 2.813 2.749 4.605 1.966m9.327 5.012c.45-1.974-.719-3.954-2.612-4.424-1.893-.469-3.793.75-4.243 2.724-.45 1.973.719 3.954 2.612 4.423 1.893.47 3.793-.75 4.243-2.723m2.458 11.541c1.92 0 3.477-1.622 3.477-3.624s-1.557-3.625-3.477-3.625-3.476 1.623-3.476 3.625 1.556 3.624 3.476 3.624m7.732 6.916c.445-1.952-.712-3.911-2.584-4.376-1.873-.464-3.752.742-4.197 2.695s.711 3.911 2.584 4.376c1.872.464 3.751-.742 4.197-2.695m-.737 13.118c1.921 0 3.478-1.624 3.478-3.627s-1.557-3.627-3.478-3.627-3.479 1.624-3.479 3.627 1.557 3.627 3.479 3.627m-126.663 10.149c1.65 0 2.988-1.395 2.988-3.116s-1.338-3.116-2.988-3.116c-1.651 0-2.989 1.395-2.989 3.116s1.338 3.116 2.989 3.116m.765-10.632c1.673 0 3.029-1.413 3.029-3.157s-1.356-3.158-3.029-3.158-3.028 1.414-3.028 3.158 1.356 3.157 3.028 3.157m2.286-10.214c1.79 0 3.241-1.513 3.241-3.379s-1.451-3.379-3.241-3.379-3.241 1.513-3.241 3.379 1.451 3.379 3.241 3.379m3.75-9.817c1.868 0 3.382-1.579 3.382-3.526 0-1.948-1.514-3.526-3.382-3.526-1.867 0-3.382 1.578-3.382 3.526s1.515 3.526 3.382 3.526m8.54-12.451c.187-1.964-1.188-3.715-3.072-3.91s-3.563 1.239-3.75 3.204c-.188 1.964 1.188 3.715 3.072 3.91s3.563-1.24 3.75-3.204m2.994-5.292c1.812 0 3.281-1.531 3.281-3.421s-1.469-3.42-3.281-3.42-3.281 1.531-3.281 3.42 1.469 3.421 3.281 3.421m7.525-7.485c1.704 0 3.085-1.44 3.085-3.216s-1.381-3.217-3.085-3.217-3.085 1.44-3.085 3.217c0 1.776 1.381 3.216 3.085 3.216m10.7-7.231c1.069-1.278.943-3.217-.282-4.332s-3.085-.983-4.154.294-.943 3.216.282 4.331 3.085.984 4.154-.293m7.031-3.45c1.699 0 3.076-1.436 3.076-3.208s-1.377-3.208-3.076-3.208-3.077 1.436-3.077 3.208 1.377 3.208 3.077 3.208m9.809-2.905c1.832 0 3.317-1.549 3.317-3.459 0-1.909-1.485-3.458-3.317-3.458s-3.316 1.549-3.316 3.458 1.484 3.459 3.316 3.459m10.15-1.455c1.906 0 3.451-1.611 3.451-3.599 0-1.987-1.545-3.598-3.451-3.598s-3.451 1.611-3.451 3.598c0 1.988 1.545 3.599 3.451 3.599m10.267-.004c1.904 0 3.447-1.61 3.447-3.595s-1.543-3.594-3.447-3.594-3.447 1.609-3.447 3.594 1.543 3.595 3.447 3.595m13.355-1.468c.286-1.85-.921-3.593-2.696-3.892s-3.446.96-3.732 2.81.92 3.594 2.695 3.893 3.446-.96 3.733-2.811m6.605 5.814c1.69 0 3.06-1.428 3.06-3.19s-1.37-3.191-3.06-3.191-3.06 1.429-3.06 3.191 1.37 3.19 3.06 3.19m9.249 4.534c1.632 0 2.955-1.38 2.955-3.081s-1.323-3.081-2.955-3.081c-1.631 0-2.954 1.38-2.954 3.081s1.323 3.081 2.954 3.081m11.5 3.468c.27-1.734-.859-3.367-2.522-3.648s-3.228.896-3.498 2.629.859 3.366 2.521 3.648c1.663.281 3.229-.896 3.499-2.629m4.507 10.178c1.81 0 3.277-1.53 3.277-3.417s-1.467-3.416-3.277-3.416c-1.809 0-3.276 1.529-3.276 3.416s1.467 3.417 3.276 3.417m6.401 8.551c1.906 0 3.452-1.611 3.452-3.599 0-1.987-1.546-3.598-3.452-3.598s-3.451 1.611-3.451 3.598c0 1.988 1.545 3.599 3.451 3.599m7.278 8.399c1.454-1.236 1.672-3.467.487-4.983s-3.324-1.743-4.779-.508c-1.454 1.236-1.672 3.467-.487 4.983s3.325 1.744 4.779.508m4.751 8.079c.447-1.81-.599-3.654-2.334-4.119-1.736-.466-3.505.624-3.951 2.434s.599 3.654 2.334 4.119c1.736.466 3.505-.624 3.951-2.434m2.181 10.119c.27-1.741-.865-3.38-2.534-3.661-1.67-.281-3.242.902-3.512 2.642-.269 1.741.865 3.38 2.535 3.661 1.669.282 3.241-.901 3.511-2.642m-2.275 13.262c1.65 0 2.988-1.395 2.988-3.116s-1.338-3.116-2.988-3.116c-1.651 0-2.989 1.395-2.989 3.116s1.338 3.116 2.989 3.116m2.2 8.268c.375-1.71-.649-3.413-2.288-3.805-1.64-.391-3.273.677-3.649 2.386s.649 3.412 2.288 3.804 3.273-.676 3.649-2.385m-2.09 10.483c.41-1.826-.677-3.654-2.429-4.082s-3.504.706-3.915 2.532c-.41 1.826.677 3.654 2.429 4.082s3.504-.705 3.915-2.532m-6.912 12.758c1.882 0 3.407-1.59 3.407-3.552s-1.525-3.553-3.407-3.553c-1.881 0-3.407 1.591-3.407 3.553s1.526 3.552 3.407 3.552m-5.132 9.297c1.897 0 3.435-1.603 3.435-3.581s-1.538-3.581-3.435-3.581-3.434 1.603-3.434 3.581 1.537 3.581 3.434 3.581m-6.403 8.183c1.798 0 3.256-1.52 3.256-3.395s-1.458-3.395-3.256-3.395-3.256 1.52-3.256 3.395 1.458 3.395 3.256 3.395m-5.364 6.138c1.192-1.243 1.192-3.259 0-4.502a2.966 2.966 0 0 0-4.319 0c-1.192 1.243-1.192 3.259 0 4.502a2.966 2.966 0 0 0 4.319 0m-10.641 6.865c1.635 0 2.961-1.383 2.961-3.088s-1.326-3.087-2.961-3.087c-1.636 0-2.961 1.382-2.961 3.087s1.325 3.088 2.961 3.088m-9.25 4.757c1.696 0 3.071-1.433 3.071-3.202s-1.375-3.201-3.071-3.201c-1.695 0-3.07 1.433-3.07 3.201s1.375 3.202 3.07 3.202m-6.637.721c.415-1.83-.673-3.665-2.428-4.097-1.756-.432-3.515.702-3.929 2.533-.415 1.83.673 3.664 2.428 4.096 1.756.432 3.515-.701 3.929-2.532m-13.323 4.433c1.909 0 3.457-1.614 3.457-3.605s-1.548-3.605-3.457-3.605c-1.91 0-3.458 1.614-3.458 3.605s1.548 3.605 3.458 3.605m-10.266-.002c1.908 0 3.455-1.613 3.455-3.603s-1.547-3.603-3.455-3.603-3.456 1.613-3.456 3.603 1.547 3.603 3.456 3.603m-10.151-1.74c1.832 0 3.317-1.548 3.317-3.458s-1.485-3.458-3.317-3.458-3.316 1.548-3.316 3.458 1.484 3.458 3.316 3.458m-9.809-3.406c1.699 0 3.076-1.436 3.076-3.208s-1.377-3.208-3.076-3.208-3.077 1.436-3.077 3.208 1.377 3.208 3.077 3.208m-9.248-4.77c1.632 0 2.954-1.379 2.954-3.08s-1.322-3.081-2.954-3.081-2.955 1.379-2.955 3.081 1.323 3.08 2.955 3.08m-8.483-5.909c1.695 0 3.07-1.434 3.07-3.202s-1.375-3.201-3.07-3.201c-1.696 0-3.071 1.433-3.071 3.201s1.375 3.202 3.071 3.202m-7.525-7.061c1.812 0 3.281-1.532 3.281-3.421s-1.469-3.421-3.281-3.421-3.281 1.532-3.281 3.421 1.469 3.421 3.281 3.421m-6.4-8.22c1.891 0 3.424-1.598 3.424-3.57s-1.533-3.57-3.424-3.57-3.424 1.598-3.424 3.57 1.533 3.57 3.424 3.57m-1.825-12.004c.434-1.903-.694-3.812-2.519-4.265s-3.656.723-4.09 2.626.693 3.812 2.518 4.265 3.657-.723 4.091-2.626m-7.059-7.411c1.795 0 3.25-1.517 3.25-3.388s-1.455-3.388-3.25-3.388-3.249 1.517-3.249 3.388 1.455 3.388 3.249 3.388m-2.285-10.682c1.664 0 3.014-1.406 3.014-3.142s-1.35-3.142-3.014-3.142-3.014 1.407-3.014 3.142c0 1.736 1.35 3.142 3.014 3.142m146.415-11.249c1.358 0 2.46-1.149 2.46-2.565 0-1.417-1.102-2.566-2.46-2.566-1.359 0-2.461 1.149-2.461 2.566s1.102 2.565 2.461 2.565m2.113 8.592c.248-1.601-.795-3.108-2.33-3.367s-2.981.829-3.229 2.43.795 3.108 2.33 3.367 2.981-.83 3.229-2.43m-4.788 13.473c1.826 0 3.306-1.543 3.306-3.447s-1.48-3.447-3.306-3.447-3.307 1.543-3.307 3.447 1.481 3.447 3.307 3.447m-3.3 9.795c1.645 0 2.978-1.39 2.978-3.105 0-1.714-1.333-3.104-2.978-3.104-1.644 0-2.977 1.39-2.977 3.104s1.333 3.105 2.977 3.105m-2.829 8.284a2.603 2.603 0 0 0 0-3.572 2.353 2.353 0 0 0-3.425 0 2.603 2.603 0 0 0 0 3.572c.946.986 2.48.986 3.425 0m-7.418 10.225c1.647 0 2.982-1.392 2.982-3.109s-1.335-3.11-2.982-3.11-2.982 1.392-2.982 3.11 1.335 3.109 2.982 3.109m-6.769 8.404c1.835 0 3.323-1.551 3.323-3.465s-1.488-3.465-3.323-3.465-3.323 1.552-3.323 3.465c0 1.914 1.488 3.465 3.323 3.465m-4.974 4.78c.629-1.581-.091-3.393-1.608-4.048-1.516-.655-3.254.096-3.882 1.677s.092 3.393 1.608 4.048 3.254-.096 3.882-1.677m-11.284 7.277c1.332 0 2.412-1.126 2.412-2.515 0-1.388-1.08-2.514-2.412-2.514s-2.412 1.126-2.412 2.514c0 1.389 1.08 2.515 2.412 2.515m-9.209 5.308c1.636 0 2.961-1.382 2.961-3.087s-1.325-3.087-2.961-3.087-2.961 1.382-2.961 3.087 1.326 3.087 2.961 3.087m-6.515 1.13c.419-1.851-.68-3.705-2.455-4.142s-3.553.709-3.972 2.56.68 3.705 2.455 4.141c1.775.437 3.553-.709 3.972-2.559m-11.264 3.41c1.111-1.158 1.111-3.037 0-4.195a2.763 2.763 0 0 0-4.024 0c-1.111 1.158-1.111 3.037 0 4.195a2.763 2.763 0 0 0 4.024 0m-12.26 1.11c1.328 0 2.405-1.122 2.405-2.508s-1.077-2.508-2.405-2.508c-1.329 0-2.406 1.123-2.406 2.508s1.077 2.508 2.406 2.508m-7.511-2.548c.357-1.577-.58-3.157-2.092-3.529s-3.028.605-3.385 2.181.58 3.157 2.092 3.53 3.028-.605 3.385-2.182m-12.806.688c1.82 0 3.295-1.539 3.295-3.437s-1.475-3.436-3.295-3.436-3.296 1.539-3.296 3.436 1.476 3.437 3.296 3.437m-9.722-3.814c1.623 0 2.938-1.371 2.938-3.063s-1.315-3.063-2.938-3.063c-1.622 0-2.938 1.371-2.938 3.063s1.316 3.063 2.938 3.063m-9.21-5.275c1.337 0 2.42-1.129 2.42-2.523s-1.083-2.523-2.42-2.523-2.42 1.129-2.42 2.523 1.084 2.523 2.42 2.523m-8.536-5.349c1.654 0 2.994-1.398 2.994-3.123 0-1.724-1.34-3.122-2.994-3.122s-2.995 1.398-2.995 3.122c0 1.725 1.341 3.123 2.995 3.123m-7.722-6.704c1.842 0 3.336-1.557 3.336-3.478s-1.494-3.478-3.336-3.478-3.335 1.557-3.335 3.478 1.493 3.478 3.335 3.478m-4.674-9.343c1.156-1.205 1.156-3.16 0-4.366a2.877 2.877 0 0 0-4.187 0c-1.157 1.206-1.157 3.161 0 4.366a2.875 2.875 0 0 0 4.187 0m-7.798-8.575c1.33 0 2.408-1.124 2.408-2.511 0-1.386-1.078-2.51-2.408-2.51s-2.407 1.124-2.407 2.51c0 1.387 1.078 2.511 2.407 2.511m-1.676-11.421c.376-1.654-.604-3.312-2.189-3.704s-3.176.629-3.552 2.282c-.377 1.653.603 3.311 2.189 3.704 1.585.392 3.175-.629 3.552-2.282m-6.167-7.382c1.826 0 3.306-1.543 3.306-3.447s-1.48-3.447-3.306-3.447-3.306 1.543-3.306 3.447 1.48 3.447 3.306 3.447m.774-13.461c.249-1.596-.789-3.1-2.319-3.36s-2.973.822-3.223 2.418c-.249 1.596.789 3.1 2.319 3.36 1.531.26 2.973-.822 3.223-2.418m-1.034-10.775c.216-1.393-.693-2.706-2.029-2.931-1.337-.225-2.596.722-2.812 2.116-.216 1.393.693 2.706 2.029 2.931 1.337.225 2.596-.722 2.812-2.116m.232-9.014c1.093-1.139 1.093-2.986 0-4.124a2.716 2.716 0 0 0-3.955 0c-1.092 1.138-1.092 2.985 0 4.124a2.72 2.72 0 0 0 3.955 0m.028-9.114c1.827 0 3.308-1.545 3.308-3.45s-1.481-3.449-3.308-3.449-3.309 1.544-3.309 3.449 1.482 3.45 3.309 3.45m4.426-10.742c1.51-.645 2.232-2.445 1.613-4.019s-2.345-2.327-3.855-1.681-2.232 2.445-1.613 4.019 2.345 2.327 3.855 1.681m3.417-9.922c1.337 0 2.422-1.13 2.422-2.525s-1.085-2.526-2.422-2.526-2.423 1.131-2.423 2.526 1.085 2.525 2.423 2.525m8.622-10.85c.299-1.676-.762-3.288-2.37-3.599s-3.153.794-3.452 2.471c-.299 1.676.762 3.288 2.37 3.599s3.153-.794 3.452-2.471m3.851-5.117c1.859 0 3.365-1.571 3.365-3.509s-1.506-3.508-3.365-3.508c-1.858 0-3.365 1.57-3.365 3.508s1.507 3.509 3.365 3.509m10.636-9.834c.382-1.674-.61-3.354-2.216-3.752s-3.217.637-3.598 2.311c-.382 1.674.61 3.354 2.216 3.752s3.217-.637 3.598-2.311m5.621-4.168c1.332 0 2.412-1.126 2.412-2.515 0-1.388-1.08-2.514-2.412-2.514s-2.412 1.126-2.412 2.514c0 1.389 1.08 2.515 2.412 2.515m11.284-5.087c1.146-1.194 1.146-3.131 0-4.326a2.85 2.85 0 0 0-4.148 0c-1.146 1.195-1.146 3.132 0 4.326a2.85 2.85 0 0 0 4.148 0m10.931-5.114c.252-1.883-1.007-3.623-2.813-3.887s-3.475 1.049-3.727 2.932c-.253 1.883 1.006 3.623 2.812 3.887s3.475-1.049 3.728-2.932m6.789.342c1.547 0 2.801-1.307 2.801-2.92s-1.254-2.921-2.801-2.921-2.801 1.308-2.801 2.921 1.254 2.92 2.801 2.92m10.245-1.092c1.339 0 2.424-1.132 2.424-2.528s-1.085-2.528-2.424-2.528-2.425 1.132-2.425 2.528 1.086 2.528 2.425 2.528m10.247 1.149c1.577 0 2.856-1.333 2.856-2.977 0-1.645-1.279-2.978-2.856-2.978s-2.856 1.333-2.856 2.978c0 1.644 1.279 2.977 2.856 2.977m13.261-.104c.42-1.845-.673-3.696-2.443-4.135s-3.545.702-3.966 2.547c-.42 1.845.673 3.697 2.443 4.135 1.769.439 3.545-.702 3.966-2.547m6.531 5.743c1.636 0 2.961-1.382 2.961-3.087s-1.325-3.087-2.961-3.087-2.961 1.382-2.961 3.087 1.326 3.087 2.961 3.087m9.208 4.154c1.328 0 2.404-1.122 2.404-2.506s-1.076-2.505-2.404-2.505-2.403 1.122-2.403 2.505c0 1.384 1.076 2.506 2.403 2.506m10.639 5.635c1.161-1.21 1.161-3.172 0-4.382a2.886 2.886 0 0 0-4.202 0c-1.161 1.21-1.161 3.172 0 4.382a2.886 2.886 0 0 0 4.202 0m5.619 8.338c1.839 0 3.329-1.554 3.329-3.471s-1.49-3.471-3.329-3.471-3.329 1.554-3.329 3.471 1.49 3.471 3.329 3.471m6.77 7.698c1.653 0 2.993-1.397 2.993-3.12s-1.34-3.121-2.993-3.121-2.993 1.397-2.993 3.121 1.34 3.12 2.993 3.12m6.644 8.111c1.238-.54 1.823-2.024 1.306-3.316-.518-1.291-1.941-1.901-3.18-1.361-1.239.539-1.823 2.023-1.306 3.315s1.941 1.901 3.18 1.362m6.506 7.964c.361-1.667-.642-3.323-2.241-3.7-1.598-.376-3.187.67-3.548 2.336-.361 1.667.642 3.323 2.241 3.7 1.598.376 3.187-.67 3.548-2.336m.396 12.882c1.821 0 3.296-1.538 3.296-3.436s-1.475-3.436-3.296-3.436-3.295 1.538-3.295 3.436 1.475 3.436 3.295 3.436m4.755 7.751c.354-1.574-.582-3.149-2.092-3.518-1.509-.37-3.02.607-3.374 2.18s.582 3.15 2.091 3.519 3.02-.607 3.375-2.181m-168.884 12.072c1.1 0 1.991-.929 1.991-2.075s-.891-2.076-1.991-2.076c-1.099 0-1.99.929-1.99 2.076 0 1.146.891 2.075 1.99 2.075m1.77-9.845c1.547-.675 2.277-2.53 1.629-4.143-.647-1.613-2.426-2.374-3.973-1.699s-2.277 2.53-1.63 4.143c.648 1.614 2.427 2.374 3.974 1.699m.61-10.155c1.752 0 3.173-1.482 3.173-3.309s-1.421-3.309-3.173-3.309-3.174 1.481-3.174 3.309c0 1.827 1.421 3.309 3.174 3.309m4.884-13.082c.254-1.115-.408-2.234-1.477-2.498s-2.143.425-2.397 1.54c-.254 1.116.408 2.235 1.478 2.499s2.143-.425 2.396-1.541m5.227-9.808c.277-1.788-.889-3.472-2.605-3.761s-3.33.927-3.607 2.716c-.277 1.788.889 3.472 2.605 3.761s3.33-.927 3.607-2.716m2.037-6.48c1.749 0 3.167-1.479 3.167-3.303s-1.418-3.302-3.167-3.302-3.167 1.478-3.167 3.302 1.418 3.303 3.167 3.303m8.034-11.412c.249-1.092-.399-2.187-1.446-2.446-1.048-.259-2.098.416-2.346 1.508s.399 2.187 1.446 2.446c1.048.259 2.098-.416 2.346-1.508m5.146-5.026c1.717 0 3.108-1.451 3.108-3.241 0-1.789-1.391-3.24-3.108-3.24s-3.108 1.451-3.108 3.24 1.391 3.241 3.108 3.241m7.865-7.021c1.643 0 2.976-1.389 2.976-3.103s-1.333-3.103-2.976-3.103-2.976 1.389-2.976 3.103 1.332 3.103 2.976 3.103m10.501-8.512c.249-1.105-.407-2.21-1.466-2.47-1.059-.259-2.12.425-2.369 1.529-.249 1.105.408 2.21 1.467 2.47 1.059.259 2.119-.425 2.368-1.529m10.196-4.563c.381-1.693-.626-3.387-2.25-3.784s-3.249.653-3.63 2.346.627 3.388 2.251 3.785 3.249-.654 3.629-2.347m6.711-1.181c1.694 0 3.068-1.433 3.068-3.2s-1.374-3.199-3.068-3.199c-1.695 0-3.068 1.432-3.068 3.199s1.373 3.2 3.068 3.2m9.994-3.621c1.085 0 1.964-.916 1.964-2.047s-.879-2.047-1.964-2.047-1.963.916-1.963 2.047.879 2.047 1.963 2.047m12.141-.878c1.269-1.117 1.43-3.095.358-4.418-1.071-1.324-2.968-1.491-4.237-.375s-1.43 3.096-.359 4.419 2.968 1.491 4.238.374m8.326.738c1.668 0 3.02-1.41 3.02-3.149s-1.352-3.149-3.02-3.149-3.02 1.41-3.02 3.149 1.352 3.149 3.02 3.149m10.201.175c1.103 0 1.997-.932 1.997-2.082s-.894-2.083-1.997-2.083-1.997.933-1.997 2.083.894 2.082 1.997 2.082m9.993 3.568c1.685 0 3.051-1.424 3.051-3.182 0-1.757-1.366-3.181-3.051-3.181s-3.052 1.424-3.052 3.181 1.367 3.182 3.052 3.182m12.685.927c.236-1.75-.933-3.368-2.611-3.614-1.678-.247-3.23.972-3.466 2.721s.932 3.368 2.61 3.614c1.678.247 3.23-.972 3.467-2.721m7.533 5.813a2.117 2.117 0 0 0 0-2.905 1.914 1.914 0 0 0-2.786 0 2.117 2.117 0 0 0 0 2.905 1.914 1.914 0 0 0 2.786 0m10.118 5.169c.382-1.678-.612-3.361-2.221-3.76s-3.224.638-3.606 2.316.612 3.361 2.221 3.759c1.609.399 3.224-.638 3.606-2.315m6.141 9.112c1.583-.692 2.329-2.59 1.666-4.241-.663-1.652-2.484-2.43-4.067-1.738-1.584.691-2.33 2.59-1.667 4.241s2.484 2.429 4.068 1.738m6.592 6.727c.996-.432 1.467-1.625 1.052-2.663s-1.559-1.528-2.554-1.096c-.996.433-1.467 1.625-1.052 2.663s1.559 1.529 2.554 1.096m6.609 9.74c1.619-.707 2.382-2.648 1.704-4.336s-2.54-2.483-4.159-1.776c-1.619.706-2.381 2.648-1.704 4.335.678 1.688 2.54 2.484 4.159 1.777m6.905 7.246c.536-1.716-.363-3.56-2.009-4.118s-3.414.379-3.95 2.094c-.536 1.716.364 3.56 2.009 4.119s3.414-.379 3.95-2.095m2.485 10.275c.78-.814.78-2.132 0-2.945a1.94 1.94 0 0 0-2.825 0 2.146 2.146 0 0 0 0 2.945 1.94 1.94 0 0 0 2.825 0m1.534 12.098c1.755 0 3.178-1.483 3.178-3.313s-1.423-3.313-3.178-3.313-3.178 1.483-3.178 3.313 1.423 3.313 3.178 3.313m2.932 10.055c1.51-.659 2.222-2.471 1.59-4.046s-2.369-2.317-3.88-1.658-2.223 2.47-1.59 4.045c.632 1.576 2.369 2.318 3.88 1.659m-.553 9.948c1.103 0 1.997-.932 1.997-2.082s-.894-2.083-1.997-2.083-1.997.933-1.997 2.083.894 2.082 1.997 2.082m1.48 10.91c1.208-1.195 1.257-3.184.112-4.443a2.93 2.93 0 0 0-4.261-.116c-1.207 1.195-1.257 3.184-.111 4.442a2.927 2.927 0 0 0 4.26.117m-3.86 11.561c1.759 0 3.184-1.486 3.184-3.32s-1.425-3.319-3.184-3.319c-1.758 0-3.184 1.486-3.184 3.319 0 1.834 1.426 3.32 3.184 3.32m-1.456 8.31c.73-.858.655-2.17-.168-2.931a1.934 1.934 0 0 0-2.81.175c-.73.858-.655 2.17.168 2.931a1.934 1.934 0 0 0 2.81-.175m-5.559 11.724c1.729 0 3.13-1.461 3.13-3.263s-1.401-3.263-3.13-3.263-3.129 1.461-3.129 3.263 1.401 3.263 3.129 3.263m-2.057 6.756c.401-1.775-.653-3.554-2.355-3.973-1.703-.418-3.409.681-3.811 2.456-.401 1.775.653 3.554 2.355 3.973 1.703.419 3.409-.681 3.811-2.456m-8.459 9.734c1.002-.433 1.478-1.63 1.063-2.675s-1.564-1.541-2.566-1.108-1.477 1.63-1.062 2.675 1.563 1.541 2.565 1.108m-4.911 7.074c.614-1.657-.176-3.519-1.765-4.16s-3.376.183-3.99 1.84.175 3.52 1.764 4.161c1.59.64 3.376-.184 3.991-1.841m-10.754 8.814c1.647 0 2.982-1.392 2.982-3.109s-1.335-3.109-2.982-3.109-2.982 1.392-2.982 3.109 1.335 3.109 2.982 3.109m-7.823 4.678c1.008-.436 1.487-1.641 1.069-2.692-.417-1.051-1.573-1.551-2.582-1.115s-1.487 1.641-1.069 2.692 1.574 1.55 2.582 1.115m-6.892 3.428c.272-1.745-.865-3.39-2.539-3.673-1.673-.283-3.251.902-3.522 2.647-.272 1.745.865 3.39 2.538 3.673 1.674.284 3.251-.902 3.523-2.647m-12.692 6.324c1.689 0 3.058-1.428 3.058-3.189 0-1.76-1.369-3.188-3.058-3.188s-3.058 1.428-3.058 3.188 1.369 3.189 3.058 3.189m-9.992 1.358c1.1 0 1.991-.93 1.991-2.076s-.891-2.076-1.991-2.076c-1.099 0-1.99.93-1.99 2.076s.891 2.076 1.99 2.076m-10.198 2.326c1.673 0 3.03-1.415 3.03-3.16s-1.357-3.159-3.03-3.159c-1.674 0-3.031 1.414-3.031 3.159s1.357 3.16 3.031 3.16m-8.145-.942c1.175-1.225 1.175-3.21 0-4.435a2.92 2.92 0 0 0-4.253 0c-1.174 1.225-1.174 3.21 0 4.435a2.92 2.92 0 0 0 4.253 0m-12.324-1.406c1.088 0 1.97-.919 1.97-2.054s-.882-2.054-1.97-2.054-1.97.92-1.97 2.054c0 1.135.882 2.054 1.97 2.054m-9.996-1.323c1.696 0 3.071-1.433 3.071-3.201s-1.375-3.202-3.071-3.202-3.07 1.433-3.07 3.202 1.374 3.201 3.07 3.201m-8.49-3.947c1.544-.667 2.278-2.513 1.638-4.123s-2.41-2.374-3.954-1.707-2.277 2.512-1.638 4.122 2.41 2.375 3.954 1.708m-8.402-7.257c.253-1.116-.41-2.234-1.48-2.497-1.07-.264-2.143.427-2.395 1.543s.41 2.234 1.48 2.497c1.07.264 2.142-.427 2.395-1.543m-10.514-3.272c1.63 0 2.951-1.377 2.951-3.076s-1.321-3.076-2.951-3.076c-1.629 0-2.95 1.377-2.95 3.076s1.321 3.076 2.95 3.076m-7.866-6.734c1.709 0 3.094-1.444 3.094-3.225s-1.385-3.226-3.094-3.226-3.093 1.444-3.093 3.226c0 1.781 1.385 3.225 3.093 3.225m-5.113-10.674c.173-1.111-.551-2.158-1.617-2.339-1.066-.18-2.07.574-2.243 1.686-.173 1.111.551 2.158 1.617 2.338s2.07-.574 2.243-1.685m-5.017-8.188c.397-1.758-.646-3.519-2.332-3.933-1.685-.415-3.374.673-3.772 2.431-.398 1.757.646 3.518 2.332 3.933 1.685.414 3.374-.674 3.772-2.431m-5.067-9.515c.272-1.798-.905-3.485-2.629-3.769-1.725-.284-3.343.943-3.615 2.741s.905 3.486 2.629 3.77c1.725.283 3.343-.944 3.615-2.742m-5.257-9.847c.266-1.112-.383-2.239-1.45-2.516s-2.147.4-2.413 1.512.383 2.239 1.45 2.516 2.147-.399 2.413-1.512m-4.873-7.449c1.744 0 3.157-1.474 3.157-3.292s-1.413-3.291-3.157-3.291-3.157 1.474-3.157 3.291c0 1.818 1.414 3.292 3.157 3.292m-.605-10.876c1.563-.682 2.3-2.557 1.646-4.186-.655-1.63-2.452-2.399-4.015-1.716-1.564.682-2.3 2.556-1.646 4.186s2.452 2.398 4.015 1.716m185.78-12.379a1.77 1.77 0 0 0 .081-2.429 1.6 1.6 0 0 0-2.329-.084 1.77 1.77 0 0 0-.081 2.428 1.6 1.6 0 0 0 2.329.085m.437 11.612c1.159-1.209 1.159-3.17 0-4.379a2.885 2.885 0 0 0-4.2 0c-1.159 1.209-1.159 3.17 0 4.379a2.885 2.885 0 0 0 4.2 0m-2.115 10.155c.927-.916.966-2.442.088-3.409a2.25 2.25 0 0 0-3.27-.091c-.927.916-.966 2.442-.088 3.409a2.25 2.25 0 0 0 3.27.091m-4.25 10.895c1.227 0 2.222-1.038 2.222-2.317s-.995-2.318-2.222-2.318c-1.228 0-2.223 1.038-2.223 2.318 0 1.279.995 2.317 2.223 2.317m-3.682 10.85c1.679 0 3.041-1.419 3.041-3.171s-1.362-3.17-3.041-3.17c-1.68 0-3.041 1.419-3.041 3.17 0 1.752 1.361 3.171 3.041 3.171m-4.661 8.088c.91 0 1.648-.769 1.648-1.718s-.738-1.718-1.648-1.718-1.648.769-1.648 1.718.738 1.718 1.648 1.718m-5.594 10.32c1.619 0 2.932-1.369 2.932-3.057s-1.313-3.056-2.932-3.056-2.931 1.368-2.931 3.056 1.312 3.057 2.931 3.057m-5.316 7.181c1.022-.659 1.339-2.057.707-3.123s-1.973-1.396-2.995-.737-1.339 2.057-.707 3.123c.632 1.065 1.973 1.395 2.995.737m-6.882 7.252a2.32 2.32 0 0 0 0-3.187 2.1 2.1 0 0 0-3.057 0 2.32 2.32 0 0 0 0 3.187 2.1 2.1 0 0 0 3.057 0m-9.51 8.166c1.601 0 2.898-1.353 2.898-3.022s-1.297-3.021-2.898-3.021c-1.6 0-2.897 1.352-2.897 3.021s1.297 3.022 2.897 3.022m-8.612 4.515c.903 0 1.635-.763 1.635-1.705 0-.941-.732-1.704-1.635-1.704s-1.636.763-1.636 1.704c0 .942.733 1.705 1.636 1.705m-7.012 5.391c1.182-1.233 1.182-3.232 0-4.465a2.94 2.94 0 0 0-4.283 0c-1.182 1.233-1.182 3.232 0 4.465a2.94 2.94 0 0 0 4.283 0m-11.729 3.937c1.235 0 2.237-1.044 2.237-2.332 0-1.289-1.002-2.333-2.237-2.333s-2.238 1.044-2.238 2.333c0 1.288 1.002 2.332 2.238 2.332m-9.033 2.673c1.184-.511 1.746-1.925 1.255-3.159-.49-1.234-1.846-1.82-3.03-1.309s-1.745 1.926-1.255 3.16c.49 1.233 1.847 1.819 3.03 1.308m-9.915 2.247c1.487-.642 2.193-2.42 1.577-3.971-.616-1.55-2.321-2.287-3.808-1.644-1.487.642-2.193 2.42-1.577 3.97s2.321 2.287 3.808 1.645m-11.373-.545c.901 0 1.631-.761 1.631-1.7s-.73-1.701-1.631-1.701-1.631.762-1.631 1.701.73 1.7 1.631 1.7m-8.171-.089c1.151-1.2 1.151-3.146 0-4.347a2.863 2.863 0 0 0-4.17 0c-1.151 1.201-1.151 3.147 0 4.347a2.863 2.863 0 0 0 4.17 0m-9.996-3.455c.2-1.283-.636-2.493-1.867-2.701s-2.391.663-2.591 1.947c-.199 1.283.637 2.493 1.868 2.701s2.39-.663 2.59-1.947m-12.155-.868c1.216 0 2.202-1.028 2.202-2.296s-.986-2.295-2.202-2.295-2.201 1.028-2.201 2.295c0 1.268.986 2.296 2.201 2.296m-8.424-3.203c1.552-.67 2.289-2.525 1.646-4.142s-2.422-2.387-3.973-1.716c-1.552.67-2.289 2.524-1.646 4.142s2.422 2.386 3.973 1.716m-9.159-6.587a1.756 1.756 0 0 0 0-2.411 1.587 1.587 0 0 0-2.312 0 1.756 1.756 0 0 0 0 2.411 1.587 1.587 0 0 0 2.312 0m-6.863-6.794c.133-1.675-1.062-3.145-2.668-3.284s-3.017 1.107-3.15 2.782 1.062 3.146 2.668 3.284c1.607.139 3.017-1.107 3.15-2.782m-8.787-6.478c.274-1.212-.446-2.425-1.607-2.711s-2.326.464-2.6 1.675c-.275 1.212.445 2.425 1.607 2.711s2.325-.464 2.6-1.675m-8.434-6.061c1.068-.535 1.517-1.871 1.004-2.984s-1.794-1.582-2.862-1.047c-1.067.535-1.517 1.871-1.004 2.984.514 1.113 1.795 1.582 2.862 1.047m-7.392-7.249c1.637 0 2.963-1.384 2.963-3.09s-1.326-3.089-2.963-3.089c-1.636 0-2.963 1.383-2.963 3.089s1.327 3.09 2.963 3.09m-5.593-10.366c.903 0 1.635-.763 1.635-1.705s-.732-1.705-1.635-1.705-1.635.763-1.635 1.705.732 1.705 1.635 1.705m-4.665-8.075c1.68 0 3.041-1.419 3.041-3.171s-1.361-3.17-3.04-3.17-3.042 1.419-3.042 3.17c0 1.752 1.362 3.171 3.041 3.171M96.8 231.619c1.199-.294 1.942-1.544 1.66-2.794-.28-1.249-1.48-2.024-2.679-1.731-1.198.294-1.941 1.545-1.66 2.794s1.482 2.024 2.68 1.731m-3.164-10.183c1.285 0 2.327-1.087 2.327-2.427s-1.042-2.427-2.328-2.427-2.327 1.087-2.327 2.427 1.042 2.427 2.328 2.427m-1.607-9.89c1.65 0 2.986-1.394 2.986-3.114s-1.337-3.113-2.986-3.113-2.986 1.394-2.986 3.113 1.337 3.114 2.986 3.114m-.538-12.097c.907 0 1.642-.766 1.642-1.711s-.735-1.712-1.642-1.712-1.641.767-1.641 1.712.735 1.711 1.641 1.711m.538-9.304c1.644 0 2.977-1.389 2.977-3.102 0-1.714-1.333-3.103-2.976-3.103s-2.976 1.389-2.976 3.103c0 1.713 1.332 3.102 2.976 3.102m1.605-11.25c1.286 0 2.33-1.087 2.33-2.429s-1.044-2.429-2.33-2.429-2.33 1.088-2.33 2.429c0 1.342 1.043 2.429 2.33 2.429m3.504-10.64c1.132-.485 1.672-1.835 1.207-3.015-.466-1.181-1.76-1.744-2.892-1.259s-1.673 1.836-1.207 3.016 1.76 1.743 2.892 1.258m2.835-8.965c1.676 0 3.035-1.417 3.035-3.164s-1.359-3.164-3.035-3.164-3.034 1.416-3.034 3.164c0 1.747 1.358 3.164 3.034 3.164m4.664-11c.903 0 1.635-.763 1.635-1.705 0-.941-.732-1.705-1.635-1.705s-1.635.764-1.635 1.705.732 1.705 1.635 1.705m5.592-7.583c1.644 0 2.976-1.39 2.976-3.103s-1.332-3.103-2.976-3.103-2.975 1.389-2.975 3.103c0 1.713 1.332 3.103 2.975 3.103m8.55-10.914c.273-1.201-.44-2.406-1.592-2.691s-2.308.458-2.581 1.66.439 2.406 1.592 2.691c1.152.285 2.308-.458 2.581-1.66m7.275-7.578c.273-1.212-.448-2.425-1.61-2.709s-2.325.467-2.598 1.678c-.273 1.212.447 2.425 1.609 2.709s2.326-.467 2.599-1.678m5.884-4.12c1.655 0 2.997-1.399 2.997-3.125s-1.342-3.124-2.997-3.124-2.997 1.399-2.997 3.124 1.342 3.125 2.997 3.125m9.239-7.374c.834-.362 1.228-1.36.881-2.229-.347-.87-1.304-1.281-2.138-.919s-1.228 1.36-.881 2.23 1.305 1.28 2.138.918m8.525-3.281c1.676 0 3.034-1.417 3.034-3.165s-1.358-3.164-3.034-3.164-3.035 1.417-3.035 3.164 1.359 3.165 3.035 3.165m9.587-4.705c1.217 0 2.204-1.028 2.204-2.297s-.987-2.297-2.204-2.297-2.203 1.028-2.203 2.297.986 2.297 2.203 2.297m12.161-4.687c.201-1.287-.636-2.5-1.871-2.71s-2.398.664-2.599 1.951.637 2.5 1.871 2.71c1.235.21 2.398-.664 2.599-1.95m10.814-1.621c.234-1.676-.881-3.233-2.489-3.476s-3.101.918-3.334 2.595.881 3.233 2.489 3.476c1.608.244 3.101-.918 3.334-2.595m7.346.696c.897 0 1.625-.758 1.625-1.694s-.728-1.694-1.625-1.694-1.624.759-1.624 1.694c0 .936.727 1.694 1.624 1.694m11.929 1.372c1.326-.962 1.654-2.862.731-4.245s-2.745-1.725-4.071-.763c-1.327.962-1.654 2.863-.732 4.246.923 1.383 2.746 1.724 4.072.762m10.776-.433c.204-1.319-.655-2.56-1.919-2.774s-2.456.683-2.66 2.001c-.205 1.319.655 2.56 1.919 2.773s2.455-.682 2.66-2m7.616 4.714c1.239 0 2.244-1.048 2.244-2.339 0-1.292-1.005-2.34-2.244-2.34-1.238 0-2.243 1.048-2.243 2.34s1.005 2.339 2.243 2.339m12.547 2.239c.387-1.696-.619-3.399-2.246-3.802s-3.26.645-3.646 2.342.619 3.399 2.246 3.802 3.259-.645 3.646-2.342m7.791 4.38c.144-.931-.463-1.807-1.355-1.958-.893-.151-1.734.482-1.878 1.413-.144.93.462 1.807 1.355 1.957.892.151 1.733-.481 1.878-1.412m7.017 8.681c1.646 0 2.98-1.391 2.98-3.107s-1.334-3.107-2.98-3.107-2.98 1.391-2.98 3.107 1.334 3.107 2.98 3.107m9.496 5.214a2.305 2.305 0 0 0 0-3.162 2.084 2.084 0 0 0-3.033 0 2.305 2.305 0 0 0 0 3.162 2.084 2.084 0 0 0 3.033 0m6.018 8.199c1.181-.152 2.021-1.274 1.875-2.506s-1.222-2.106-2.403-1.954-2.021 1.274-1.875 2.505c.146 1.232 1.222 2.107 2.403 1.955m6.194 9.164c1.615 0 2.925-1.366 2.925-3.05 0-1.685-1.31-3.05-2.925-3.05-1.616 0-2.926 1.365-2.926 3.05s1.31 3.05 2.926 3.05m5.593 7.649c.91 0 1.648-.769 1.648-1.718s-.738-1.718-1.648-1.718-1.648.769-1.648 1.718.738 1.718 1.648 1.718m7.63 8.602c.405-1.701-.588-3.422-2.219-3.845s-3.282.613-3.687 2.314c-.406 1.701.588 3.422 2.219 3.845 1.631.422 3.281-.614 3.687-2.314m.712 11.528c1.224 0 2.216-1.034 2.216-2.31s-.992-2.311-2.216-2.311-2.216 1.035-2.216 2.311.992 2.31 2.216 2.31m2.659 10.454c1.282 0 2.321-1.084 2.321-2.42 0-1.337-1.039-2.421-2.321-2.421s-2.322 1.084-2.322 2.421 1.04 2.42 2.322 2.42m4.523 8.657c.262-1.675-.828-3.255-2.435-3.528s-3.123.863-3.385 2.539.829 3.256 2.436 3.529 3.122-.864 3.384-2.54M81.68 196.23c.798 0 1.446.674 1.446 1.508 0 .833-.645 1.507-1.445 1.507s-1.446-.674-1.446-1.507c0-.834.646-1.508 1.446-1.508m.488-6.253c1.555 0 2.816-1.315 2.816-2.936 0-1.622-1.26-2.936-2.816-2.936s-2.816 1.314-2.816 2.936 1.26 2.936 2.816 2.936m3.062-13.254c.143-.918-.455-1.782-1.335-1.93-.88-.149-1.709.474-1.852 1.392-.142.917.456 1.782 1.336 1.93.88.149 1.709-.474 1.851-1.392m.821-7.862c1.498 0 2.713-1.266 2.713-2.828s-1.215-2.829-2.713-2.829-2.712 1.267-2.712 2.829 1.214 2.828 2.712 2.828m5.163-12.512c.235-1.04-.383-2.08-1.38-2.325-.997-.244-1.995.401-2.23 1.44s.384 2.08 1.381 2.324 1.995-.4 2.23-1.439m2.462-7.835c1.241 0 2.248-1.049 2.248-2.344s-1.007-2.343-2.248-2.343-2.247 1.049-2.247 2.343 1.006 2.344 2.247 2.344m5.138-9.194c1.284 0 2.325-1.086 2.325-2.425s-1.041-2.424-2.326-2.424c-1.284 0-2.325 1.085-2.325 2.424s1.041 2.425 2.326 2.425m7.206-9.847a1.9 1.9 0 0 0 0-2.606 1.717 1.717 0 0 0-2.5 0 1.897 1.897 0 0 0 0 2.606c.69.72 1.809.72 2.5 0m5.477-6.61c1.475 0 2.671-1.247 2.671-2.785 0-1.537-1.196-2.784-2.671-2.784s-2.67 1.247-2.67 2.784c0 1.538 1.195 2.785 2.67 2.785m8.026-8.718c.779-.338 1.147-1.271.823-2.083s-1.219-1.196-1.998-.858-1.148 1.271-.823 2.083 1.219 1.197 1.998.858m10.271-7.405c.362-1.609-.596-3.22-2.14-3.597-1.543-.378-3.088.621-3.45 2.23-.362 1.61.596 3.22 2.139 3.598 1.544.377 3.089-.621 3.451-2.231m5.853-4.955c.798 0 1.446-.675 1.446-1.508 0-.832-.648-1.507-1.446-1.507-.799 0-1.446.675-1.446 1.507 0 .833.647 1.508 1.446 1.508m9.128-3.423c1.585 0 2.871-1.34 2.871-2.993s-1.286-2.993-2.871-2.993-2.87 1.34-2.87 2.993 1.285 2.993 2.87 2.993m9.535-5.376c.846 0 1.532-.715 1.532-1.598 0-.882-.686-1.597-1.532-1.597-.847 0-1.533.715-1.533 1.597 0 .883.686 1.598 1.533 1.598m9.856-1.889c1.443 0 2.613-1.22 2.613-2.726 0-1.505-1.17-2.725-2.613-2.725s-2.614 1.22-2.614 2.725 1.17 2.726 2.614 2.726m10.084-2.811c1.027 0 1.86-.868 1.86-1.94 0-1.071-.833-1.94-1.86-1.94s-1.861.869-1.861 1.94c0 1.072.833 1.94 1.861 1.94m12.391-2.429c.285-1.254-.459-2.51-1.661-2.808-1.202-.297-2.408.478-2.693 1.731s.459 2.51 1.661 2.808c1.202.297 2.408-.478 2.693-1.731m8.39 1.831c1.256-.162 2.149-1.355 1.994-2.664s-1.299-2.24-2.556-2.079c-1.256.162-2.148 1.355-1.993 2.664s1.299 2.24 2.555 2.079m9.94.615c1.036 0 1.877-.876 1.877-1.957s-.841-1.957-1.877-1.957-1.877.876-1.877 1.957.84 1.957 1.877 1.957m12.675.703c.335-1.49-.551-2.982-1.98-3.331-1.429-.35-2.86.574-3.195 2.064-.336 1.49.551 2.982 1.98 3.332s2.859-.575 3.195-2.065m7.267 3.976c.844 0 1.528-.714 1.528-1.593 0-.88-.684-1.593-1.528-1.593s-1.528.713-1.528 1.593.684 1.593 1.528 1.593m12.017 3.87c.79-1.434.315-3.263-1.059-4.086-1.375-.823-3.13-.329-3.919 1.105s-.315 3.262 1.059 4.086c1.375.823 3.13.328 3.919-1.105m6.647 1.918c.798 0 1.446.674 1.446 1.507 0 .834-.646 1.508-1.446 1.508s-1.445-.674-1.445-1.508c0-.833.646-1.507 1.445-1.507m8.642 10.326c1.604 0 2.904-1.355 2.904-3.028 0-1.672-1.3-3.028-2.904-3.028s-2.904 1.356-2.904 3.028c0 1.673 1.3 3.028 2.904 3.028m8.072 5.185c.844 0 1.528-.713 1.528-1.593 0-.879-.684-1.593-1.528-1.593s-1.528.714-1.528 1.593c0 .88.684 1.593 1.528 1.593m10.029 6.432c.336-1.493-.551-2.987-1.983-3.337s-2.864.575-3.2 2.068c-.336 1.492.552 2.986 1.983 3.336 1.432.351 2.865-.575 3.2-2.067m4.133 9.295c.972 0 1.761-.823 1.761-1.837s-.789-1.837-1.761-1.837c-.973 0-1.762.823-1.762 1.837s.789 1.837 1.762 1.837m5.957 9.316c1.286 0 2.329-1.087 2.329-2.429s-1.043-2.429-2.329-2.429-2.33 1.088-2.33 2.429c0 1.342 1.043 2.429 2.33 2.429m7.371 7.23c.2-1.283-.635-2.493-1.866-2.702s-2.391.662-2.592 1.945c-.2 1.283.635 2.493 1.866 2.702s2.391-.662 2.592-1.945m3.341 10.724a1.99 1.99 0 0 0 0-2.734 1.8 1.8 0 0 0-2.622 0 1.99 1.99 0 0 0 0 2.734 1.8 1.8 0 0 0 2.622 0m2.05 11.577c1.495 0 2.707-1.264 2.707-2.822s-1.212-2.822-2.707-2.822-2.706 1.263-2.706 2.822c0 1.558 1.212 2.822 2.706 2.822m2.421 9.268c.891 0 1.614-.753 1.614-1.683 0-.929-.723-1.683-1.614-1.683s-1.614.754-1.614 1.683c0 .93.722 1.683 1.614 1.683m1.462 11.867c1.562 0 2.829-1.321 2.829-2.949 0-1.629-1.267-2.949-2.829-2.949s-2.828 1.32-2.828 2.949 1.266 2.949 2.828 2.949m.49 6.24c.798 0 1.446.674 1.446 1.508 0 .833-.646 1.507-1.446 1.507s-1.446-.674-1.446-1.507c0-.834.647-1.508 1.446-1.508m-.49 15.145c1.557 0 2.82-1.316 2.82-2.94s-1.263-2.94-2.82-2.94c-1.558 0-2.82 1.316-2.82 2.94s1.262 2.94 2.82 2.94m-.326 8.845a1.727 1.727 0 0 0 0-2.371 1.56 1.56 0 0 0-2.273 0 1.727 1.727 0 0 0 0 2.371 1.56 1.56 0 0 0 2.273 0m-.938 9.885c.342-1.501-.548-3.007-1.987-3.363s-2.884.571-3.226 2.072.548 3.007 1.988 3.363c1.439.357 2.883-.571 3.225-2.072m-5.978 11.388c1.021 0 1.85-.863 1.85-1.928 0-1.066-.829-1.929-1.85-1.929s-1.85.863-1.85 1.929c0 1.065.828 1.928 1.85 1.928m-4.268 10.184c1.257 0 2.275-1.062 2.275-2.372s-1.018-2.372-2.275-2.372-2.275 1.062-2.275 2.372 1.019 2.372 2.275 2.372m-5.135 9.321c1.28 0 2.319-1.083 2.319-2.418s-1.039-2.418-2.319-2.418-2.32 1.082-2.32 2.418c0 1.335 1.039 2.418 2.32 2.418m-5.957 8.143c.972 0 1.761-.822 1.761-1.837 0-1.014-.789-1.836-1.761-1.836-.973 0-1.762.822-1.762 1.836s.789 1.837 1.762 1.837m-4.083 6.715c.236-1.517-.752-2.946-2.206-3.192-1.455-.246-2.826.784-3.062 2.301-.236 1.516.752 2.946 2.206 3.192 1.455.246 2.826-.784 3.062-2.301m-10.079 8.524c.844 0 1.528-.713 1.528-1.593s-.684-1.593-1.528-1.593-1.528.713-1.528 1.593.684 1.593 1.528 1.593m-8.073 8.031c1.592 0 2.881-1.345 2.881-3.004s-1.289-3.004-2.881-3.004-2.881 1.345-2.881 3.004 1.29 3.004 2.881 3.004m-8.641 1.279c.798 0 1.446.674 1.446 1.508s-.646 1.507-1.446 1.507-1.445-.673-1.445-1.507.646-1.508 1.445-1.508m-7.099 8.531c1.121-1.168 1.121-3.063 0-4.232a2.787 2.787 0 0 0-4.059 0c-1.121 1.169-1.121 3.064 0 4.232a2.787 2.787 0 0 0 4.059 0m-11.565 3.459c.844 0 1.528-.714 1.528-1.593 0-.88-.684-1.593-1.528-1.593s-1.528.713-1.528 1.593c0 .879.684 1.593 1.528 1.593m-7.225 1.881c.236-1.51-.748-2.934-2.197-3.179s-2.815.78-3.05 2.291.749 2.935 2.198 3.18 2.814-.781 3.049-2.292m-12.717 3.525c1.036 0 1.877-.876 1.877-1.957s-.841-1.957-1.877-1.957-1.877.876-1.877 1.957.84 1.957 1.877 1.957m-8.604.75a2.46 2.46 0 0 0 0-3.379 2.226 2.226 0 0 0-3.241 0 2.46 2.46 0 0 0 0 3.379 2.226 2.226 0 0 0 3.241 0m-11.891.648c1.238 0 2.241-1.046 2.241-2.337s-1.003-2.337-2.241-2.337-2.241 1.046-2.241 2.337 1.003 2.337 2.241 2.337m-10.226-1.415c1.027 0 1.86-.869 1.86-1.94s-.833-1.94-1.86-1.94-1.861.869-1.861 1.94.833 1.94 1.861 1.94m-9.086-1.459c1.328-.573 1.959-2.161 1.408-3.546-.55-1.385-2.073-2.043-3.401-1.469s-1.959 2.162-1.409 3.547c.55 1.384 2.073 2.042 3.402 1.468m-10.853-3.919c.849 0 1.538-.719 1.538-1.604s-.689-1.604-1.538-1.604-1.539.718-1.539 1.604c0 .885.689 1.604 1.539 1.604m-9.536-2.592c1.585 0 2.871-1.34 2.871-2.993s-1.286-2.993-2.871-2.993-2.87 1.34-2.87 2.993 1.285 2.993 2.87 2.993m-9.128-6.394c.798 0 1.446-.675 1.446-1.507 0-.833-.648-1.508-1.446-1.508-.799 0-1.446.675-1.446 1.508 0 .832.647 1.507 1.446 1.507m-6.6-5.17c1.128-1.175 1.128-3.082 0-4.257a2.804 2.804 0 0 0-4.083 0c-1.128 1.175-1.128 3.082 0 4.257a2.804 2.804 0 0 0 4.083 0m-10.117-10.334c.84 0 1.521.711 1.521 1.586s-.681 1.587-1.521 1.587-1.522-.711-1.522-1.587c0-.875.682-1.586 1.522-1.586m-6.411-3.234c1.361-.588 2.008-2.215 1.444-3.635s-2.125-2.094-3.487-1.506c-1.361.588-2.008 2.216-1.444 3.635.564 1.42 2.125 2.094 3.487 1.506m-5.995-10.423c.14-1.014-.534-1.954-1.507-2.099s-1.873.557-2.013 1.571.535 1.953 1.507 2.099 1.873-.558 2.013-1.571m-6.824-6.731c1.183-.511 1.745-1.925 1.255-3.159s-1.847-1.82-3.03-1.309-1.745 1.926-1.255 3.16 1.847 1.82 3.03 1.308m-5.158-9.328c1.156-.499 1.704-1.88 1.226-3.085-.479-1.204-1.803-1.776-2.959-1.277-1.155.499-1.704 1.88-1.225 3.085.478 1.204 1.803 1.776 2.958 1.277m-5.132-9.981c1.028 0 1.86-.868 1.86-1.94 0-1.071-.832-1.939-1.86-1.939-1.027 0-1.86.868-1.86 1.939s.833 1.94 1.86 1.94m-3.36-9.257c1.485 0 2.69-1.256 2.69-2.804 0-1.549-1.205-2.805-2.69-2.805-1.486 0-2.69 1.256-2.69 2.805 0 1.548 1.204 2.804 2.69 2.804m-.834-12.927c.141-.912-.453-1.771-1.327-1.918s-1.698.471-1.84 1.383c-.14.912.453 1.77 1.328 1.918.874.147 1.697-.472 1.839-1.383m-3.049-7.949c1.555 0 2.816-1.315 2.816-2.936 0-1.622-1.26-2.936-2.816-2.936s-2.816 1.314-2.816 2.936 1.26 2.936 2.816 2.936m225.189-12.534c.582 0 1.054-.492 1.054-1.099s-.472-1.1-1.054-1.1-1.054.493-1.054 1.1.472 1.099 1.054 1.099m.556 12.145c1.349-.577 1.994-2.186 1.44-3.593s-2.097-2.079-3.446-1.502-1.995 2.187-1.441 3.594 2.097 2.079 3.447 1.501m-2.345 9.174c.582 0 1.054-.492 1.054-1.099s-.472-1.099-1.054-1.099-1.054.492-1.054 1.099.472 1.099 1.054 1.099m-2.223 12.15c1.48 0 2.679-1.251 2.679-2.793s-1.199-2.794-2.679-2.794-2.679 1.251-2.679 2.794c0 1.542 1.2 2.793 2.679 2.793m-3.09 8.544c.595 0 1.078-.503 1.078-1.123 0-.621-.483-1.124-1.078-1.124s-1.077.503-1.077 1.124c0 .62.482 1.123 1.077 1.123m-3.929 11.599c1.498 0 2.713-1.266 2.713-2.828s-1.215-2.829-2.713-2.829-2.713 1.267-2.713 2.829 1.215 2.828 2.713 2.828m-4.744 7.772c.583 0 1.055-.492 1.055-1.099s-.472-1.099-1.055-1.099c-.582 0-1.054.492-1.054 1.099s.472 1.099 1.054 1.099m-5.519 10.721c1.477 0 2.675-1.248 2.675-2.789 0-1.54-1.198-2.788-2.675-2.788s-2.675 1.248-2.675 2.788c0 1.541 1.198 2.789 2.675 2.789m-6.253 6.838c.597 0 1.081-.505 1.081-1.128s-.484-1.128-1.081-1.128c-.598 0-1.082.505-1.082 1.128s.484 1.128 1.082 1.128m-4.268 7.413c.349-1.544-.568-3.091-2.049-3.456s-2.964.592-3.314 2.136c-.349 1.544.568 3.091 2.049 3.455 1.48.365 2.964-.591 3.314-2.135m-10.246 7.718c.598 0 1.082-.505 1.082-1.127 0-.623-.484-1.128-1.082-1.128-.597 0-1.082.505-1.082 1.128s.485 1.127 1.082 1.127m-5.559 6.015c.338-1.495-.55-2.994-1.984-3.347-1.435-.353-2.872.573-3.21 2.069s.549 2.994 1.984 3.347c1.434.353 2.871-.573 3.21-2.069m-11.253 6.232c.582 0 1.054-.493 1.054-1.1s-.472-1.099-1.054-1.099-1.054.492-1.054 1.099.472 1.1 1.054 1.1m-7.213 5.823c1.047-1.092 1.047-2.862 0-3.953a2.604 2.604 0 0 0-3.792 0c-1.047 1.091-1.047 2.861 0 3.953a2.604 2.604 0 0 0 3.792 0m-11.388 3.245c.595 0 1.078-.503 1.078-1.123 0-.621-.483-1.124-1.078-1.124s-1.077.503-1.077 1.124c0 .62.482 1.123 1.077 1.123m-8.778 4.663c1.359-.587 2.005-2.212 1.442-3.63s-2.122-2.09-3.481-1.503c-1.36.587-2.005 2.212-1.442 3.629.563 1.418 2.122 2.091 3.481 1.504m-11.047.858c.586 0 1.061-.495 1.061-1.106s-.475-1.106-1.061-1.106c-.585 0-1.06.495-1.06 1.106s.475 1.106 1.06 1.106m-9.171 2.841c1.351-.583 1.993-2.198 1.433-3.606-.559-1.409-2.108-2.078-3.459-1.494s-1.992 2.198-1.433 3.606c.56 1.409 2.109 2.078 3.459 1.494m-11.276-.976c.586 0 1.061-.495 1.061-1.106 0-.61-.475-1.106-1.061-1.106s-1.061.496-1.061 1.106.475 1.106 1.061 1.106m-7.642-1.117c.234-1.505-.746-2.922-2.189-3.167s-2.804.778-3.038 2.283.746 2.922 2.189 3.167 2.803-.778 3.038-2.283m-12.802-.754c.582 0 1.054-.493 1.054-1.1s-.472-1.099-1.054-1.099-1.055.492-1.055 1.099.472 1.1 1.055 1.1m-7.399-2.96c.235-1.512-.749-2.936-2.199-3.182-1.451-.245-2.817.781-3.052 2.293-.236 1.512.749 2.937 2.199 3.183 1.45.245 2.817-.782 3.052-2.294m-12.428-4.802c.596 0 1.078.503 1.078 1.124s-.482 1.123-1.078 1.123c-.595 0-1.077-.502-1.077-1.123s.482-1.124 1.077-1.124m-9.488-.179c1.481 0 2.681-1.252 2.681-2.796s-1.2-2.795-2.681-2.795-2.681 1.251-2.681 2.795 1.2 2.796 2.681 2.796m-9.113-6.642c.582 0 1.054-.493 1.054-1.1s-.472-1.099-1.054-1.099-1.055.492-1.055 1.099.472 1.1 1.055 1.1m-8.327-4.1c1.463-.188 2.502-1.576 2.322-3.101s-1.512-2.61-2.974-2.422-2.503 1.577-2.323 3.102 1.512 2.609 2.975 2.421m-8.486-10.398c.595 0 1.077.502 1.077 1.123s-.482 1.124-1.077 1.124c-.596 0-1.078-.503-1.078-1.124s.482-1.123 1.078-1.123m-5.672-4.132c1.049-1.094 1.049-2.867 0-3.96a2.61 2.61 0 0 0-3.797 0c-1.049 1.093-1.049 2.866 0 3.96a2.61 2.61 0 0 0 3.797 0m-8.839-8.764c.589 0 1.067-.498 1.067-1.112s-.478-1.113-1.067-1.113c-.59 0-1.067.498-1.067 1.113 0 .614.477 1.112 1.067 1.112m-6.254-6.776c1.502 0 2.72-1.269 2.72-2.834s-1.218-2.835-2.72-2.835c-1.501 0-2.719 1.269-2.719 2.835 0 1.565 1.218 2.834 2.72 2.834m-5.52-12.967c.583 0 1.054.493 1.054 1.099 0 .605-.473 1.099-1.054 1.099s-1.055-.494-1.055-1.099c0-.606.474-1.099 1.055-1.099m-4.743-5.589c1.489 0 2.696-1.259 2.696-2.811s-1.207-2.811-2.696-2.811-2.696 1.258-2.696 2.811 1.207 2.811 2.696 2.811m-3.93-13.818c.59 0 1.067.498 1.067 1.113 0 .614-.478 1.112-1.067 1.112-.59 0-1.067-.498-1.067-1.112s.478-1.113 1.067-1.113m-3.089-6.266c1.502 0 2.72-1.27 2.72-2.835 0-1.566-1.218-2.835-2.72-2.835s-2.719 1.269-2.719 2.835c0 1.565 1.217 2.835 2.72 2.835m-2.226-14.382c.577 0 1.044.488 1.044 1.089s-.467 1.088-1.044 1.088c-.576 0-1.044-.487-1.044-1.088s.468-1.089 1.044-1.089m-1.341-6.786c1.453 0 2.63-1.228 2.63-2.743s-1.177-2.743-2.63-2.743-2.63 1.228-2.63 2.743 1.177 2.743 2.63 2.743m-.447-12.343c.583 0 1.055-.492 1.055-1.099s-.472-1.1-1.055-1.1c-.582 0-1.054.493-1.054 1.1s.472 1.099 1.054 1.099m.448-9.054c1.454 0 2.633-1.229 2.633-2.745s-1.179-2.745-2.633-2.745-2.632 1.229-2.632 2.745 1.178 2.745 2.632 2.745m1.341-14.464c.583 0 1.055.493 1.055 1.099s-.474 1.099-1.055 1.099c-.58 0-1.054-.493-1.054-1.099s.473-1.099 1.054-1.099m3.279-6.734c1.39-.606 2.047-2.273 1.465-3.723-.581-1.451-2.18-2.135-3.57-1.528-1.392.606-2.048 2.273-1.466 3.723.581 1.45 2.18 2.134 3.57 1.528m2.035-13.96c.596 0 1.078.502 1.078 1.123s-.482 1.124-1.078 1.124c-.595 0-1.077-.503-1.077-1.124s.482-1.123 1.078-1.123m3.929-5.96c1.489 0 2.696-1.258 2.696-2.81s-1.207-2.811-2.696-2.811-2.696 1.258-2.696 2.811 1.207 2.81 2.696 2.81m4.743-13.411c.583 0 1.054.494 1.054 1.099 0 .606-.473 1.099-1.054 1.099s-1.055-.493-1.055-1.099c0-.605.474-1.099 1.055-1.099m8.195-7.389c.287-1.54-.678-3.032-2.155-3.332-1.478-.3-2.908.706-3.196 2.247-.287 1.54.677 3.032 2.155 3.332s2.908-.707 3.196-2.247m3.577-10.165c.596 0 1.078.502 1.078 1.123s-.482 1.124-1.078 1.124c-.595 0-1.077-.503-1.077-1.124s.482-1.123 1.077-1.123m9.599-6.331c.24-1.536-.759-2.984-2.232-3.234s-2.862.792-3.102 2.328.76 2.983 2.233 3.234 2.861-.793 3.101-2.328m4.913-8.801c.595 0 1.077.503 1.077 1.124s-.482 1.123-1.077 1.123c-.596 0-1.078-.502-1.078-1.123s.482-1.124 1.078-1.124m10.216-3.588c.951-1.188.798-2.954-.34-3.945s-2.832-.832-3.782.355-.799 2.953.34 3.944c1.138.991 2.832.832 3.782-.355m6.597-6.463c.582 0 1.054-.492 1.054-1.099s-.472-1.1-1.054-1.1-1.055.493-1.055 1.1.472 1.1 1.055 1.1m9.112-3.235c1.489 0 2.696-1.258 2.696-2.81s-1.207-2.812-2.696-2.812c-1.488 0-2.695 1.259-2.695 2.811s1.207 2.811 2.695 2.811m9.489-8.031c.596 0 1.078.503 1.078 1.124 0 .62-.482 1.123-1.078 1.123-.595 0-1.077-.502-1.077-1.123s.482-1.124 1.077-1.124m9.796.674c1.468 0 2.658-1.241 2.658-2.772s-1.19-2.77-2.658-2.77-2.658 1.24-2.658 2.77 1.19 2.772 2.658 2.772m10.031-6.19c.583 0 1.054.493 1.054 1.099s-.473 1.1-1.054 1.1-1.055-.494-1.055-1.1.474-1.1 1.055-1.1m11.208 2.274c1.354-.59 1.994-2.214 1.427-3.626-.566-1.412-2.122-2.079-3.477-1.488-1.354.59-1.993 2.213-1.427 3.625s2.123 2.079 3.477 1.489m9.236-4.145c.585 0 1.061.496 1.061 1.106s-.476 1.106-1.061 1.106-1.061-.496-1.061-1.106.476-1.106 1.061-1.106m12.138 3.527a2.85 2.85 0 0 0 0-3.91 2.576 2.576 0 0 0-3.75 0 2.85 2.85 0 0 0 0 3.91 2.576 2.576 0 0 0 3.75 0m8.309-1.662c.585 0 1.061.496 1.061 1.106s-.476 1.106-1.061 1.106-1.06-.496-1.06-1.106.475-1.106 1.06-1.106m12.61 4.057c.335-1.487-.55-2.975-1.975-3.324s-2.853.573-3.188 2.06c-.335 1.486.55 2.974 1.976 3.323 1.425.35 2.852-.573 3.187-2.06m7.214 3.701c.589 0 1.067-.498 1.067-1.113 0-.614-.478-1.112-1.067-1.112s-1.067.498-1.067 1.112.478 1.113 1.067 1.113m10.529 5.558c1.371-.598 2.018-2.242 1.445-3.672-.574-1.43-2.15-2.104-3.522-1.506s-2.018 2.242-1.445 3.672 2.15 2.104 3.522 1.506m8.073 3.473c.582 0 1.054-.492 1.054-1.099s-.472-1.1-1.054-1.1-1.054.493-1.054 1.1.472 1.1 1.054 1.1m11.259 5.291c.336-1.494-.552-2.989-1.985-3.34-1.432-.35-2.866.577-3.202 2.07-.337 1.494.552 2.99 1.985 3.34 1.432.35 2.866-.576 3.202-2.07m5.554 4.76c.596 0 1.078.503 1.078 1.124s-.482 1.123-1.078 1.123c-.595 0-1.077-.502-1.077-1.123s.482-1.124 1.077-1.124m8.627 10.987c1.394-.608 2.052-2.279 1.469-3.732s-2.185-2.139-3.579-1.532c-1.394.608-2.052 2.279-1.469 3.732s2.185 2.14 3.579 1.532m5.886 4.141c.597 0 1.081.504 1.081 1.127 0 .624-.484 1.128-1.081 1.128-.598 0-1.082-.504-1.082-1.128s.484-1.127 1.082-1.127m6.253 12.413c1.477 0 2.675-1.249 2.675-2.789s-1.198-2.789-2.675-2.789-2.675 1.248-2.675 2.789c0 1.54 1.198 2.789 2.675 2.789m5.519 5.145c.583 0 1.055.494 1.055 1.099 0 .606-.474 1.099-1.055 1.099-.58 0-1.054-.493-1.054-1.099 0-.605.474-1.099 1.054-1.099m4.742 13.438c1.503 0 2.722-1.271 2.722-2.837s-1.219-2.838-2.722-2.838-2.721 1.271-2.721 2.838c0 1.566 1.219 2.837 2.721 2.837m3.931 5.933c.596 0 1.078.502 1.078 1.123s-.482 1.124-1.078 1.124c-.595 0-1.077-.503-1.077-1.124s.482-1.123 1.077-1.123m3.933 14.018c1.407-.488 2.169-2.072 1.702-3.54s-1.987-2.262-3.395-1.775-2.169 2.072-1.702 3.54 1.987 2.262 3.395 1.775m1.38 8.874c.582 0 1.054-.492 1.054-1.099s-.472-1.099-1.054-1.099-1.054.492-1.054 1.099.472 1.099 1.054 1.099m1.34 12.277c1.46 0 2.643-1.234 2.643-2.756s-1.183-2.756-2.643-2.756-2.643 1.234-2.643 2.756 1.183 2.756 2.643 2.756m-244.852 8.519a.564.564 0 0 0 .552-.575.563.563 0 0 0-.552-.575.563.563 0 0 0-.551.575c0 .317.247.575.551.575m.413-8.892c1.263 0 2.287-1.068 2.287-2.385s-1.024-2.385-2.288-2.385-2.287 1.068-2.287 2.385 1.024 2.385 2.287 2.385m1.24-13.571c.292 0 .53.248.53.553a.543.543 0 0 1-.53.553.543.543 0 0 1-.53-.553c0-.305.237-.553.53-.553m2.054-7.845c1.11 0 2.01-.938 2.01-2.095s-.9-2.096-2.01-2.096-2.01.939-2.01 2.096.9 2.095 2.01 2.095m2.857-13.238c.453 0 .82.382.82.854s-.367.853-.82.853-.818-.381-.818-.853.366-.854.819-.854m4.321-7.437c.909-.395 1.339-1.483.96-2.431-.379-.947-1.422-1.395-2.331-1-.909.394-1.338 1.483-.96 2.43s1.422 1.396 2.331 1.001m3.726-12.528c.598 0 1.082.505 1.082 1.128s-.484 1.128-1.082 1.128-1.082-.505-1.082-1.128.484-1.128 1.082-1.128m5.134-6.978c.62 0 1.121-.523 1.121-1.169s-.502-1.17-1.121-1.17c-.62 0-1.122.524-1.122 1.17s.502 1.169 1.122 1.169m5.836-8.147c.973 0 1.761-.822 1.761-1.837 0-1.014-.788-1.836-1.761-1.836s-1.762.822-1.762 1.836.789 1.837 1.762 1.837m6.496-10.914c.412 0 .747.349.747.779s-.335.779-.747.779-.747-.349-.747-.779.335-.779.747-.779m9.142-6.445c.265-1.167-.427-2.336-1.545-2.613-1.119-.276-2.24.445-2.506 1.611s.427 2.336 1.545 2.612c1.119.277 2.24-.444 2.506-1.61m5.663-8.182c.307 0 .558.26.558.581s-.251.582-.558.582a.57.57 0 0 1-.558-.582c0-.32.251-.581.558-.581m10.516-5.284c.301-1.323-.483-2.65-1.752-2.964s-2.541.504-2.842 1.827.483 2.65 1.752 2.964 2.541-.504 2.842-1.827M125.834 82c.297 0 .537.25.537.559s-.24.56-.537.56a.547.547 0 0 1-.536-.56c0-.31.239-.56.536-.56m11.32-3.875c.289-1.28-.473-2.561-1.7-2.862-1.228-.3-2.457.493-2.746 1.773-.288 1.28.474 2.562 1.701 2.862s2.457-.493 2.745-1.773m7.227-5.369c.333 0 .6.28.6.625a.614.614 0 0 1-.6.626.614.614 0 0 1-.599-.626c0-.344.269-.625.599-.625m9.744-.621c1.136 0 2.056-.96 2.056-2.144s-.92-2.144-2.056-2.144c-1.135 0-2.056.96-2.056 2.144s.921 2.144 2.056 2.144m9.973-5.492c.416 0 .753.35.753.785s-.337.786-.753.786c-.417 0-.754-.351-.754-.786 0-.434.337-.785.754-.785m10.78.685c.848-.369 1.249-1.383.896-2.267s-1.327-1.302-2.174-.934c-.848.368-1.249 1.383-.896 2.267s1.326 1.302 2.174.933m9.6-3.69c.641 0 1.159.541 1.159 1.209 0 .667-.52 1.209-1.159 1.209-.64 0-1.16-.542-1.16-1.21 0-.666.52-1.208 1.16-1.208m10.271 2.404c.632 0 1.145-.534 1.145-1.193 0-.66-.513-1.194-1.145-1.194s-1.145.535-1.145 1.194.513 1.193 1.145 1.193m10.238 1.372c.902 0 1.633-.762 1.633-1.703 0-.94-.731-1.703-1.633-1.703s-1.633.763-1.633 1.703.731 1.703 1.633 1.703m10.14.79c.41 0 .743-.347.743-.775 0-.427-.333-.774-.743-.774s-.743.347-.743.774.333.775.743.775m11.405 3.277a2.17 2.17 0 0 0 0-2.98 1.96 1.96 0 0 0-2.857 0 2.17 2.17 0 0 0 0 2.98 1.96 1.96 0 0 0 2.857 0m8.314 1.276c.332 0 .599.28.599.625a.614.614 0 0 1-.599.626.614.614 0 0 1-.6-.626c0-.344.269-.625.6-.625m9.449 7.21c1.263 0 2.287-1.068 2.287-2.385s-1.024-2.385-2.287-2.385c-1.264 0-2.288 1.068-2.288 2.385s1.024 2.385 2.288 2.385m9.095 3.145a.543.543 0 0 0 .531-.553.54.54 0 0 0-.531-.553.54.54 0 0 0-.53.553c0 .305.237.553.53.553m10.006 7.185c1.075-.763 1.352-2.29.62-3.411s-2.198-1.41-3.273-.646c-1.074.763-1.352 2.291-.619 3.412s2.198 1.41 3.272.645m6.888 3.828c.314 0 .569.265.569.592a.58.58 0 0 1-.569.593.58.58 0 0 1-.568-.593.58.58 0 0 1 .568-.592m7.692 9.845c1.139 0 2.062-.962 2.062-2.15s-.923-2.15-2.062-2.15-2.063.962-2.063 2.15.924 2.15 2.063 2.15m7.115 4.779c.421 0 .764.358.764.797s-.343.796-.764.796-.764-.357-.764-.796.343-.797.764-.797m6.496 10.923c.969 0 1.755-.819 1.755-1.83 0-1.01-.786-1.83-1.755-1.83s-1.755.82-1.755 1.83.786 1.83 1.755 1.83m5.835 8.172c.629 0 1.139-.532 1.139-1.187 0-.656-.51-1.187-1.139-1.187-.628 0-1.138.531-1.138 1.187 0 .655.51 1.187 1.138 1.187m5.137 9.218c.599 0 1.084-.506 1.084-1.13s-.485-1.13-1.084-1.13c-.598 0-1.083.506-1.083 1.13s.485 1.13 1.083 1.13m4.402 10.42c.993 0 1.797-.839 1.797-1.874 0-1.034-.804-1.873-1.797-1.873s-1.797.839-1.797 1.873.805 1.874 1.797 1.874m3.644 7.294c.448 0 .812.38.812.847 0 .468-.364.847-.812.847s-.813-.379-.813-.847.365-.847.813-.847m2.858 13.256c1.123 0 2.033-.949 2.033-2.12s-.91-2.12-2.033-2.12-2.033.949-2.033 2.12.911 2.12 2.033 2.12m2.055 7.82c.292 0 .53.248.53.553a.543.543 0 0 1-.53.553.543.543 0 0 1-.531-.553c0-.305.238-.553.531-.553m1.238 13.657c1.309 0 2.37-1.106 2.37-2.471s-1.061-2.47-2.37-2.47c-1.308 0-2.369 1.106-2.369 2.47s1.061 2.471 2.369 2.471m.415 8.806a.564.564 0 0 0 .551-.575.563.563 0 0 0-.551-.575.563.563 0 0 0-.551.575c0 .317.246.575.551.575m1.934 10.545c.218-1.347-.653-2.622-1.945-2.849s-2.515.681-2.733 2.028.654 2.622 1.945 2.849c1.292.227 2.515-.681 2.733-2.028m-3.586 10.778a.55.55 0 0 0 .541-.564.553.553 0 0 0-.541-.564.553.553 0 0 0-.541.564c0 .312.242.564.541.564m-2.056 12.049c1.123 0 2.033-.949 2.033-2.12 0-1.17-.91-2.119-2.033-2.119s-2.033.949-2.033 2.119.911 2.12 2.033 2.12m-2.858 7.322c.448 0 .812.38.812.847 0 .468-.364.847-.812.847s-.813-.379-.813-.847.365-.847.813-.847m-3.644 12.731c.991 0 1.793-.837 1.793-1.869s-.802-1.87-1.793-1.87-1.793.837-1.793 1.87c0 1.032.803 1.869 1.793 1.869m-4.401 8.933c.596 0 1.08-.504 1.08-1.126s-.484-1.125-1.08-1.125-1.079.504-1.079 1.125c0 .622.483 1.126 1.079 1.126m-5.137 9.334c.627 0 1.136-.53 1.136-1.184 0-.655-.509-1.185-1.136-1.185-.628 0-1.137.53-1.137 1.185 0 .654.509 1.184 1.137 1.184m-4.125 8.04c.224-.991-.364-1.984-1.314-2.218s-1.903.38-2.127 1.371.364 1.983 1.314 2.217 1.903-.38 2.127-1.37m-8.207 7.09c.421 0 .764.358.764.796s-.343.797-.764.797-.764-.358-.764-.797c0-.438.343-.796.764-.796m-7.115 10.673c1.139 0 2.062-.963 2.062-2.151s-.923-2.15-2.062-2.15-2.063.963-2.063 2.15c0 1.188.924 2.151 2.063 2.151m-7.692 4.36c.314 0 .569.265.569.592a.58.58 0 0 1-.569.593.58.58 0 0 1-.568-.593.58.58 0 0 1 .568-.592m-6.552 8.754a2.52 2.52 0 0 0 0-3.457 2.277 2.277 0 0 0-3.316 0 2.52 2.52 0 0 0 0 3.457c.916.955 2.4.955 3.316 0m-10.342 4.55a.543.543 0 0 0 .531-.553.54.54 0 0 0-.531-.553.54.54 0 0 0-.53.553c0 .305.237.553.53.553m-9.095 6.815c1.267 0 2.294-1.071 2.294-2.392s-1.027-2.392-2.294-2.392c-1.266 0-2.294 1.071-2.294 2.392s1.028 2.392 2.294 2.392m-9.449 1.18c.332 0 .599.281.599.626a.614.614 0 0 1-.599.625.614.614 0 0 1-.6-.625c0-.345.269-.626.6-.626m-8.97 5.963c1.031-.446 1.521-1.678 1.094-2.753-.427-1.074-1.609-1.585-2.64-1.14s-1.52 1.678-1.093 2.753c.427 1.074 1.608 1.585 2.639 1.14m-10.749 1.397c.413 0 .747-.349.747-.779s-.334-.779-.747-.779c-.412 0-.747.349-.747.779s.335.779.747.779m-10.139 2.657c.91 0 1.647-.769 1.647-1.718s-.737-1.718-1.647-1.718-1.648.769-1.648 1.718.738 1.718 1.648 1.718m-10.239-2.054c.636 0 1.149.538 1.149 1.198 0 .661-.515 1.198-1.149 1.198-.633 0-1.149-.537-1.149-1.198s.516-1.198 1.149-1.198m-10.271-.011c.641 0 1.159.542 1.159 1.209s-.52 1.209-1.159 1.209c-.64 0-1.16-.542-1.16-1.209s.52-1.209 1.16-1.209m-10.241 2.096c.927 0 1.677-.783 1.677-1.749s-.75-1.749-1.677-1.749c-.926 0-1.677.783-1.677 1.749s.751 1.749 1.677 1.749m-10.14-2.688c.413 0 .747-.349.747-.779s-.334-.779-.747-.779-.747.349-.747.779.334.779.747.779m-9.194-1.38c1.04-.448 1.533-1.691 1.103-2.775-.431-1.084-1.622-1.598-2.662-1.149s-1.533 1.691-1.102 2.775 1.622 1.598 2.661 1.149m-10.521-5.986a.62.62 0 0 1 .606.632.62.62 0 0 1-.606.632.62.62 0 0 1-.606-.632.62.62 0 0 1 .606-.632m-9.451-1.181c1.263 0 2.287-1.068 2.287-2.385s-1.024-2.385-2.287-2.385c-1.264 0-2.288 1.068-2.288 2.385s1.024 2.385 2.288 2.385m-9.096-6.808c.293 0 .53-.248.53-.553a.54.54 0 0 0-.53-.553.54.54 0 0 0-.531.553c0 .305.238.553.531.553m-8.681-3.83c1.297 0 2.349-1.096 2.349-2.448 0-1.353-1.052-2.449-2.349-2.449s-2.349 1.096-2.349 2.449 1.052 2.448 2.349 2.448m-8.213-8.289a.58.58 0 0 0 .568-.593.58.58 0 0 0-.568-.592.58.58 0 0 0-.569.592c0 .327.255.593.569.593m-5.615-7.421c.141-1.194-.673-2.28-1.817-2.427s-2.186.701-2.327 1.895c-.14 1.193.673 2.279 1.817 2.426s2.186-.701 2.327-1.894m-9.191-7.211c.418 0 .757-.353.757-.789s-.339-.79-.757-.79c-.419 0-.758.353-.758.79 0 .436.34.789.758.789m-6.497-7.249c.973 0 1.761-.823 1.761-1.837s-.788-1.837-1.761-1.837-1.762.823-1.762 1.837.789 1.837 1.762 1.837m-5.836-9.482c.62 0 1.121-.524 1.121-1.17s-.502-1.169-1.121-1.169c-.62 0-1.122.524-1.122 1.169 0 .646.502 1.17 1.122 1.17m-5.134-9.295c.61 0 1.103-.515 1.103-1.15s-.494-1.149-1.103-1.149-1.103.514-1.103 1.149.494 1.15 1.103 1.15m-3.144-9.511a1.915 1.915 0 0 0 0-2.628 1.73 1.73 0 0 0-2.521 0 1.915 1.915 0 0 0 0 2.628 1.73 1.73 0 0 0 2.52 0m-4.903-12.177c.448 0 .813.38.813.847 0 .468-.365.847-.813.847s-.812-.379-.812-.847.364-.847.812-.847m-2.858-7.34c1.114 0 2.016-.941 2.016-2.102s-.902-2.102-2.016-2.102-2.016.941-2.016 2.102.903 2.102 2.016 2.102m-2.053-12.042c.293 0 .53-.247.53-.553a.54.54 0 0 0-.53-.553.54.54 0 0 0-.53.553c0 .306.237.553.53.553m-1.239-8.823c1.251 0 2.266-1.058 2.266-2.363s-1.015-2.363-2.267-2.363c-1.251 0-2.266 1.058-2.266 2.363s1.014 2.363 2.266 2.363m264.512-13.093c.015 0 .027.013.027.028a.027.027 0 0 1-.027.027.03.03 0 0 1-.026-.027c0-.015.012-.028.026-.028m-.382 12.722c1.054 0 1.909-.891 1.909-1.99s-.855-1.99-1.909-1.99-1.908.891-1.908 1.99.854 1.99 1.908 1.99m-1.152 8.881c.12 0 .217-.102.217-.226a.22.22 0 0 0-.217-.226.22.22 0 0 0-.217.226c0 .124.097.226.217.226m-1.91 9.147c.608 0 1.102.514 1.102 1.15s-.492 1.15-1.102 1.15-1.103-.514-1.103-1.15.492-1.15 1.103-1.15m-2.658 10.427c.566 0 1.026.479 1.026 1.069s-.458 1.069-1.026 1.069-1.027-.479-1.027-1.069.458-1.069 1.027-1.069m-3.393 10.915a.26.26 0 0 1 .255.265.26.26 0 0 1-.255.266.26.26 0 0 1-.254-.266c0-.147.113-.265.254-.265m-4.107 12.062c1.048 0 1.898-.886 1.898-1.98s-.85-1.979-1.898-1.979-1.899.886-1.899 1.979c0 1.094.85 1.98 1.899 1.98m-4.801 7.456c.016 0 .031.015.031.032s-.015.032-.031.032a.032.032 0 0 1 0-.064m-3.642 9.54c.239-1.057-.389-2.116-1.402-2.366-1.014-.249-2.029.406-2.269 1.462-.239 1.057.389 2.116 1.402 2.365 1.014.25 2.03-.405 2.269-1.461m-7.925 7.865c.169 0 .303.142.303.316a.31.31 0 0 1-.303.316.31.31 0 0 1-.303-.316.31.31 0 0 1 .303-.316m-6.699 7.245c.629 0 1.14.533 1.14 1.189s-.511 1.19-1.14 1.19c-.63 0-1.141-.534-1.141-1.19s.511-1.189 1.141-1.189m-7.266 7.579c.627 0 1.134.531 1.134 1.182 0 .652-.509 1.183-1.134 1.183s-1.134-.531-1.134-1.183c0-.651.509-1.182 1.134-1.182m-7.786 7.849c.171 0 .31.144.31.322a.317.317 0 0 1-.31.323.317.317 0 0 1-.309-.323c0-.178.139-.322.309-.322m-8.264 8.61c1.02 0 1.848-.863 1.848-1.927s-.828-1.926-1.848-1.926-1.848.862-1.848 1.926.827 1.927 1.848 1.927m-8.698 3.737c.016 0 .031.015.031.032s-.015.032-.031.032a.032.032 0 0 1 0-.064m-9.082 6.973c1.024 0 1.854-.866 1.854-1.933s-.83-1.933-1.854-1.933-1.854.865-1.854 1.933c0 1.067.83 1.933 1.854 1.933m-9.417 2.067c.15 0 .272.127.272.283a.28.28 0 0 1-.272.283.28.28 0 0 1-.271-.283c0-.156.122-.283.271-.283m-9.697 4.885c.564 0 1.021-.477 1.021-1.064s-.457-1.065-1.021-1.065-1.02.477-1.02 1.065c0 .587.457 1.064 1.02 1.064m-9.922.57c.602 0 1.092.509 1.092 1.139s-.488 1.139-1.092 1.139-1.092-.509-1.092-1.139.488-1.139 1.092-1.139m-10.093 3.355c.12 0 .217-.101.217-.226a.22.22 0 0 0-.217-.226.22.22 0 0 0-.216.226c0 .125.097.226.216.226m-8.369 1.41c.24-1.062-.391-2.127-1.41-2.378-1.02-.251-2.041.407-2.281 1.47s.39 2.127 1.41 2.378c1.019.251 2.04-.407 2.281-1.47m-12.105-.071a.032.032 0 0 1 0 .064c-.016 0-.031-.015-.031-.032s.015-.032.031-.032m-8.416-.036c.166-1.063-.526-2.064-1.545-2.236s-1.979.549-2.144 1.611.526 2.063 1.545 2.236c1.019.172 1.979-.549 2.144-1.611m-12.056-1.75c.115 0 .21.098.21.219a.215.215 0 0 1-.21.219.215.215 0 0 1-.211-.219c0-.121.095-.219.211-.219m-10.096-2.936c.619 0 1.12.522 1.12 1.167s-.501 1.167-1.12 1.167c-.618 0-1.119-.522-1.119-1.167s.501-1.167 1.119-1.167m-9.922-.531c.57 0 1.031-.482 1.031-1.076 0-.593-.461-1.075-1.031-1.075s-1.031.482-1.031 1.075c0 .594.462 1.076 1.031 1.076m-9.695-4.896c.149 0 .271.127.271.283a.28.28 0 0 1-.271.283.28.28 0 0 1-.272-.283c0-.156.123-.283.272-.283m-8.997-2.088c1.008-.248 1.632-1.301 1.395-2.352-.238-1.051-1.248-1.702-2.256-1.453s-1.632 1.301-1.394 2.351 1.248 1.702 2.255 1.454m-9.502-6.952c.016 0 .031.015.031.032s-.015.032-.031.032a.032.032 0 0 1 0-.064m-6.886-5.346c.162-1.041-.516-2.021-1.514-2.19s-1.939.538-2.101 1.578.516 2.022 1.514 2.191 1.939-.538 2.101-1.579m-10.078-6.367c.165 0 .299-.14.299-.312a.305.305 0 0 0-.299-.311.305.305 0 0 0-.299.311c0 .172.134.312.299.312m-7.787-8.494c.634 0 1.147.535 1.147 1.196s-.513 1.196-1.147 1.196c-.633 0-1.147-.536-1.147-1.196 0-.661.514-1.196 1.147-1.196m-7.264-7.54c.614 0 1.113.521 1.113 1.161 0 .641-.499 1.161-1.113 1.161-.615 0-1.113-.52-1.113-1.161 0-.64.498-1.161 1.113-1.161m-6.701-7.28c.17 0 .31.145.31.322a.317.317 0 0 1-.31.323.317.317 0 0 1-.31-.323c0-.177.14-.322.31-.322m-6.099-6.368c1.02 0 1.848-.862 1.848-1.926s-.828-1.927-1.848-1.927-1.848.863-1.848 1.927.828 1.926 1.848 1.926m-5.466-11.03c.016 0 .03.015.03.032a.03.03 0 0 1-.03.032.03.03 0 0 1-.031-.032c0-.017.014-.032.03-.032m-2.991-9.263c.103-1.043-.624-1.975-1.624-2.083-1-.107-1.895.651-1.998 1.694s.624 1.975 1.625 2.082c1 .108 1.894-.65 1.997-1.693m-5.915-10.255a.26.26 0 0 1 .255.265.26.26 0 0 1-.255.266.26.26 0 0 1-.254-.266.26.26 0 0 1 .254-.265m-3.395-10.921c.57 0 1.032.48 1.032 1.075s-.461 1.075-1.032 1.075c-.57 0-1.03-.48-1.03-1.075s.46-1.075 1.03-1.075m-2.658-10.425c.613 0 1.107.518 1.107 1.154 0 .637-.496 1.154-1.107 1.154-.61 0-1.107-.517-1.107-1.154s.497-1.154 1.107-1.154m-1.908-9.591c.116 0 .21.099.21.219 0 .121-.094.22-.21.22a.216.216 0 0 1-.21-.22c0-.12.094-.219.21-.219m-1.152-8.415c1.064 0 1.926-.899 1.926-2.008s-.862-2.007-1.926-2.007c-1.063 0-1.925.898-1.925 2.007s.862 2.008 1.925 2.008m-.385-12.74c.014 0 .027.013.027.028a.027.027 0 0 1-.027.027.03.03 0 0 1-.026-.027c0-.015.012-.028.026-.028m.385-8.667c1.064 0 1.926-.899 1.926-2.008s-.862-2.008-1.926-2.008c-1.063 0-1.925.899-1.925 2.008s.862 2.008 1.925 2.008m1.152-12.872c.116 0 .21.099.21.22 0 .12-.094.219-.21.219a.216.216 0 0 1-.21-.219c0-.121.094-.22.21-.22m1.908-11.482c.623 0 1.13.526 1.13 1.178s-.505 1.178-1.13 1.178-1.13-.526-1.13-1.178.505-1.178 1.13-1.178m2.659-10.232c.564 0 1.02.476 1.02 1.064s-.456 1.064-1.02 1.064-1.02-.476-1.02-1.064.456-1.064 1.02-1.064m3.394-9.313a.26.26 0 0 1 .255.266.26.26 0 0 1-.255.265.26.26 0 0 1-.254-.265.26.26 0 0 1 .254-.266m4.107-7.631c1.017 0 1.841-.86 1.841-1.92s-.824-1.92-1.84-1.92c-1.018 0-1.842.86-1.842 1.92s.824 1.92 1.841 1.92m4.8-11.413c.012 0 .02.011.02.022s-.01.021-.02.021-.02-.011-.02-.021.01-.022.02-.022m6.16-7.267c.938-.403 1.386-1.523 1-2.501s-1.46-1.445-2.398-1.042c-.939.402-1.386 1.522-1 2.5.386.979 1.46 1.445 2.398 1.043m5.405-10.708c.164 0 .299.139.299.312a.303.303 0 0 1-.299.311.304.304 0 0 1-.299-.311c0-.173.133-.312.3-.312m6.7-8.974c.618 0 1.12.522 1.12 1.167s-.502 1.167-1.12 1.167c-.62 0-1.12-.522-1.12-1.167s.5-1.167 1.12-1.167m7.264-7.608c.636 0 1.151.538 1.151 1.2 0 .663-.515 1.2-1.151 1.2s-1.151-.537-1.151-1.2.515-1.2 1.151-1.2m7.787-5.47a.31.31 0 0 0 .303-.316.31.31 0 0 0-.303-.316.31.31 0 0 0-.303.316.31.31 0 0 0 .303.316m10.096-6.37c.165-1.058-.523-2.054-1.537-2.226-1.015-.172-1.97.545-2.135 1.603s.523 2.054 1.537 2.226 1.97-.546 2.135-1.603m6.868-6.039c.016 0 .031.016.031.033s-.015.032-.031.032a.03.03 0 0 1-.031-.032c0-.017.014-.033.031-.033m9.794-3.201c.942-.41 1.388-1.538.995-2.52s-1.475-1.446-2.417-1.037-1.387 1.538-.994 2.52 1.474 1.446 2.416 1.037m8.705-6.335c.149 0 .271.127.271.283a.28.28 0 0 1-.271.283.28.28 0 0 1-.272-.283c0-.156.123-.283.272-.283m9.695-4.331c.57 0 1.031.48 1.031 1.075 0 .594-.461 1.075-1.031 1.075s-1.031-.48-1.031-1.075.461-1.075 1.031-1.075m9.923-2.886c.629 0 1.14.534 1.14 1.19s-.511 1.189-1.14 1.189c-.63 0-1.141-.533-1.141-1.19 0-.655.511-1.189 1.141-1.189m10.094-1.011c.111 0 .2.094.2.208a.206.206 0 0 1-.2.209c-.11 0-.2-.095-.2-.209s.09-.208.2-.208m12.046-.682c.165-1.062-.528-2.063-1.546-2.235s-1.979.55-2.144 1.612c-.164 1.063.528 2.063 1.547 2.235s1.978-.55 2.143-1.612m8.427-.677a.03.03 0 0 0 .031-.033.03.03 0 0 0-.031-.032.03.03 0 0 0-.031.032c0 .018.014.032.031.032m12.126.681c.168-1.077-.533-2.093-1.567-2.268s-2.008.556-2.176 1.634.534 2.093 1.567 2.269c1.034.175 2.008-.556 2.176-1.634m8.348.66c.12 0 .217.101.217.226a.22.22 0 0 1-.217.226.22.22 0 0 1-.216-.226.22.22 0 0 1 .216-.226m10.094 1.069c.608 0 1.102.515 1.102 1.15 0 .633-.494 1.15-1.102 1.15s-1.103-.517-1.103-1.15c0-.635.494-1.15 1.103-1.15m9.922 4.99c.566 0 1.025-.479 1.025-1.069s-.459-1.069-1.025-1.069-1.025.479-1.025 1.069.459 1.069 1.025 1.069m9.697 2.727a.254.254 0 0 0 .248-.26.254.254 0 0 0-.248-.258.254.254 0 0 0-.249.259c0 .143.111.259.249.259m9.416 5.905c.996 0 1.803-.842 1.803-1.88 0-1.04-.807-1.881-1.803-1.881s-1.804.842-1.804 1.88c0 1.039.808 1.88 1.804 1.88m9.082 3.092c.016 0 .031.016.031.033s-.015.032-.031.032a.03.03 0 0 1-.031-.032c0-.017.014-.033.031-.033m8.697 7.682c1.034 0 1.871-.873 1.871-1.95 0-1.078-.837-1.95-1.871-1.95-1.033 0-1.87.872-1.87 1.95s.837 1.95 1.87 1.95m8.265 4.084c.172 0 .313.147.313.327s-.141.327-.313.327a.32.32 0 0 1-.314-.327c0-.18.141-.327.314-.327m7.786 6.131c.627 0 1.134.53 1.134 1.183 0 .651-.509 1.182-1.134 1.182s-1.134-.53-1.134-1.182.509-1.183 1.134-1.183m7.265 7.557c.636 0 1.151.537 1.151 1.2s-.515 1.2-1.151 1.2c-.635 0-1.151-.537-1.151-1.2s.516-1.2 1.151-1.2m6.701 9.63a.304.304 0 0 0 .299-.311.305.305 0 0 0-.299-.312.305.305 0 0 0-.298.312c0 .172.133.311.298.311m7.948 8.678c.197-1.062-.469-2.09-1.489-2.295-1.019-.205-2.004.49-2.201 1.552s.47 2.09 1.489 2.296 2.005-.49 2.201-1.553m3.618 8.663c.016 0 .031.015.031.033 0 .017-.015.032-.031.032a.03.03 0 0 1-.031-.032c0-.018.014-.033.031-.033m6.627 9.949c.238-1.054-.389-2.11-1.401-2.358-1.011-.248-2.024.406-2.262 1.46-.237 1.055.39 2.111 1.401 2.359s2.025-.406 2.262-1.461m2.281 9.106a.26.26 0 0 1 .255.266.26.26 0 0 1-.255.265.26.26 0 0 1-.254-.265.26.26 0 0 1 .254-.266m3.393 9.324c.558 0 1.01.471 1.01 1.053 0 .581-.452 1.053-1.01 1.053s-1.01-.472-1.01-1.053c0-.582.452-1.053 1.01-1.053m2.658 10.249c.608 0 1.102.514 1.102 1.15s-.492 1.15-1.102 1.15-1.103-.514-1.103-1.15.492-1.15 1.103-1.15m1.912 11.454c.115 0 .21.099.21.22 0 .12-.095.219-.21.219a.216.216 0 0 1-.211-.219c0-.121.095-.22.211-.22m1.15 12.854c1.054 0 1.909-.891 1.909-1.99s-.855-1.99-1.909-1.99-1.908.891-1.908 1.99.854 1.99 1.908 1.99M42.79 185.592c.764 0 1.383.646 1.383 1.442 0 .797-.619 1.442-1.383 1.442s-1.382-.645-1.382-1.442.618-1.442 1.382-1.442m1.075-9.264c.027 0 .047.022.047.05s-.02.05-.047.05a.05.05 0 0 1-.048-.05c0-.028.02-.05.047-.05m1.784-10.343a.15.15 0 0 0 .147-.154.15.15 0 0 0-.147-.154.15.15 0 0 0-.147.154.15.15 0 0 0 .147.154m2.485-9.072c.781 0 1.414-.66 1.414-1.474s-.633-1.475-1.414-1.475-1.414.661-1.414 1.475.633 1.474 1.414 1.474m7.023-22.888c.686 0 1.241.58 1.241 1.295s-.555 1.295-1.241 1.295c-.687 0-1.242-.58-1.242-1.295s.555-1.295 1.242-1.295m4.503-8.209c.066 0 .12-.056.12-.125a.123.123 0 0 0-.12-.125.123.123 0 0 0-.12.125c0 .069.054.125.12.125m5.138-9.529c.07 0 .124.059.124.129s-.056.13-.124.13a.13.13 0 0 1-.124-.13c0-.07.057-.129.124-.129m5.744-10.122c.726 0 1.315.614 1.315 1.371s-.589 1.372-1.315 1.372-1.315-.615-1.315-1.372.589-1.371 1.315-1.371M83.74 89.78c.718 0 1.299.606 1.299 1.354s-.581 1.354-1.299 1.354c-.717 0-1.298-.606-1.298-1.354s.58-1.354 1.298-1.354m7.389-6.142c.029 0 .054.026.054.057 0 .03-.025.056-.054.056a.056.056 0 0 1-.054-.056c0-.03.025-.057.054-.057M99 76.663c.078 0 .141.066.141.147a.144.144 0 0 1-.14.147.144.144 0 0 1-.142-.147c0-.081.064-.147.142-.147m8.31-4.813c.709 0 1.284-.599 1.284-1.338s-.575-1.338-1.284-1.338-1.284.599-1.284 1.338.575 1.339 1.284 1.339m17.782-13.449c.745 0 1.349.63 1.349 1.407s-.604 1.406-1.349 1.406-1.349-.63-1.349-1.406c0-.777.604-1.407 1.349-1.407m9.384-2.866a.084.084 0 0 0 .082-.086.084.084 0 0 0-.082-.085.083.083 0 0 0-.081.085c0 .047.036.085.081.085m9.654-3.701c.024 0 .044-.02.044-.046a.045.045 0 0 0-.044-.045.045.045 0 0 0-.044.045c0 .026.02.046.044.046m9.876-1.621c.73 0 1.322-.617 1.322-1.378s-.592-1.378-1.322-1.378c-.729 0-1.321.617-1.321 1.378s.592 1.378 1.321 1.378m20.222-3.682c.749 0 1.356-.632 1.356-1.413 0-.78-.607-1.413-1.356-1.413-.748 0-1.355.633-1.355 1.413s.607 1.413 1.355 1.413m10.246-2.077a.083.083 0 0 0 .081-.085.083.083 0 0 0-.081-.085.084.084 0 0 0-.082.085c0 .047.037.085.082.085m10.274-.156c.04 0 .071.032.071.074a.07.07 0 0 1-.071.074.07.07 0 0 1-.071-.074c0-.042.031-.075.071-.075m10.25-.581c.742 0 1.344.628 1.344 1.402 0 .775-.602 1.402-1.344 1.402s-1.345-.627-1.345-1.402.602-1.402 1.345-1.402m20.22 3.752c.724 0 1.311.612 1.311 1.367s-.587 1.367-1.311 1.367-1.311-.612-1.311-1.367.587-1.367 1.311-1.367m9.875 4.381a.06.06 0 0 0 .058-.06.06.06 0 0 0-.058-.062.06.06 0 0 0-.058.061c0 .034.026.06.058.06m9.653 3.67c.036 0 .065-.03.065-.068a.066.066 0 0 0-.065-.067.066.066 0 0 0-.065.067c0 .038.029.068.065.068m9.387 2.892c.741 0 1.342.627 1.342 1.399s-.601 1.4-1.342 1.4-1.343-.628-1.343-1.4.602-1.4 1.343-1.4m17.783 10.785c.699 0 1.267.59 1.267 1.32s-.566 1.322-1.267 1.322-1.267-.59-1.267-1.321.566-1.321 1.267-1.321m8.31 7.454c.084 0 .153.072.153.16s-.069.16-.153.16a.16.16 0 0 1-.154-.16c0-.088.07-.16.154-.16m7.868 6.99c.029 0 .054.026.054.057 0 .03-.025.056-.054.056s-.054-.026-.054-.056.025-.057.054-.057m7.392 8.894c.74 0 1.341-.626 1.341-1.398s-.601-1.398-1.341-1.398-1.341.626-1.341 1.398.601 1.398 1.341 1.398m13.198 13.655c.715 0 1.294.603 1.294 1.349s-.579 1.35-1.294 1.35-1.294-.604-1.294-1.35.578-1.349 1.294-1.349m5.743 10.093c.072 0 .131.062.131.136a.134.134 0 0 1-.131.136.134.134 0 0 1-.13-.136c0-.074.059-.136.13-.136m5.138 9.291c.065 0 .116.055.116.12a.12.12 0 0 1-.116.121.12.12 0 0 1-.116-.121.12.12 0 0 1 .116-.12m4.503 8.428c.699 0 1.267.592 1.267 1.321 0 .728-.568 1.321-1.267 1.321-.698 0-1.267-.593-1.267-1.321 0-.729.569-1.321 1.267-1.321m7.023 20.022c.752 0 1.36.635 1.36 1.418s-.608 1.417-1.36 1.417c-.751 0-1.359-.634-1.359-1.417s.608-1.418 1.359-1.418m2.486 11.964a.15.15 0 0 0 .147-.154.15.15 0 0 0-.147-.154.15.15 0 0 0-.148.154c0 .085.066.154.148.154m1.783 10.343c.027 0 .047.022.047.05s-.02.05-.047.05a.05.05 0 0 1-.048-.05c0-.028.021-.05.048-.05m1.074 9.197c.8 0 1.446.675 1.446 1.507s-.648 1.507-1.446 1.507-1.446-.675-1.446-1.507.649-1.507 1.446-1.507m0 21.409c.8 0 1.446.676 1.446 1.507 0 .832-.648 1.508-1.446 1.508s-1.446-.676-1.446-1.508c0-.831.649-1.507 1.446-1.507m-1.073 12.097c.034 0 .061.028.061.063a.06.06 0 0 1-.061.063.06.06 0 0 1-.06-.063c0-.035.027-.063.06-.063m-1.785 10.471c.076 0 .137.063.137.142a.14.14 0 0 1-.137.143.14.14 0 0 1-.137-.143c0-.079.061-.142.137-.142m-2.485 11.954c.752 0 1.362-.636 1.362-1.42s-.61-1.419-1.362-1.419-1.362.635-1.362 1.419.61 1.42 1.362 1.42m-7.024 17.385c.697 0 1.261.588 1.261 1.314s-.564 1.315-1.261 1.315c-.696 0-1.26-.588-1.26-1.315 0-.726.564-1.314 1.26-1.314m-4.502 10.822c.063 0 .114.053.114.119a.116.116 0 0 1-.114.118.116.116 0 0 1-.114-.118c0-.066.051-.119.114-.119m-5.137 9.264a.13.13 0 0 1 .126.132.13.13 0 0 1-.126.132.13.13 0 0 1-.126-.132.13.13 0 0 1 .126-.132m-5.744 7.638c.729 0 1.318.615 1.318 1.374s-.589 1.374-1.318 1.374c-.728 0-1.317-.615-1.317-1.374s.589-1.374 1.317-1.374m-13.198 16.379c.741 0 1.341.625 1.341 1.397 0 .773-.6 1.398-1.341 1.398s-1.341-.625-1.341-1.398.6-1.397 1.341-1.397m-7.393 8.898a.06.06 0 0 0 .058-.061.06.06 0 0 0-.058-.06.06.06 0 0 0-.058.06.06.06 0 0 0 .058.061m-7.867 6.665c.084 0 .151.071.151.158a.154.154 0 0 1-.151.158.155.155 0 0 1-.152-.158c0-.087.068-.158.152-.158m-8.311 5.122c.707 0 1.279.597 1.279 1.334s-.572 1.334-1.279 1.334-1.28-.597-1.28-1.334.573-1.334 1.28-1.334m-17.783 10.649c.735 0 1.332.621 1.332 1.389s-.595 1.388-1.332 1.388c-.736 0-1.332-.62-1.332-1.388s.596-1.389 1.332-1.389m-9.386 5.82a.073.073 0 0 0 .071-.074.073.073 0 0 0-.071-.074.073.073 0 0 0-.071.074c0 .041.032.074.071.074m-9.653 3.649c.032 0 .058-.028.058-.061a.06.06 0 0 0-.058-.061.06.06 0 0 0-.058.061c0 .033.026.061.058.061m-9.873 1.53c.722 0 1.307.61 1.307 1.363 0 .752-.585 1.362-1.307 1.362s-1.307-.61-1.307-1.362.585-1.363 1.307-1.363m-20.222 3.687c.739 0 1.339.625 1.339 1.393s-.6 1.393-1.339 1.393-1.336-.625-1.336-1.393.6-1.393 1.336-1.393m-10.25 2.067c.04 0 .071.032.071.074a.07.07 0 0 1-.071.074.07.07 0 0 1-.071-.074c0-.042.031-.074.071-.074m-10.275 0c.04 0 .071.032.071.074a.07.07 0 0 1-.071.074.07.07 0 0 1-.071-.074c0-.042.031-.074.071-.074m-10.246-2.096c.754 0 1.366.636 1.366 1.424s-.61 1.424-1.366 1.424c-.755 0-1.365-.636-1.365-1.424s.61-1.424 1.365-1.424m-20.221-3.669c.728 0 1.317.615 1.317 1.374s-.589 1.373-1.317 1.373-1.317-.614-1.317-1.373.589-1.374 1.317-1.374m-9.876-1.623c.023 0 .044.019.044.045s-.019.046-.044.046-.044-.02-.044-.046.019-.045.044-.045m-9.654-3.698c.042 0 .076.035.076.079a.077.077 0 0 1-.076.078.076.076 0 0 1-.075-.078c0-.044.033-.079.075-.079m-9.383-5.654c.73 0 1.321.616 1.321 1.378s-.591 1.378-1.321 1.378c-.731 0-1.322-.617-1.322-1.378 0-.762.591-1.378 1.322-1.378m-17.784-10.689c.719 0 1.304.61 1.304 1.361 0 .75-.585 1.36-1.304 1.36s-1.305-.61-1.305-1.36.585-1.361 1.305-1.361m-8.308-4.783a.15.15 0 0 0 .147-.154.15.15 0 0 0-.147-.153.15.15 0 0 0-.148.153.15.15 0 0 0 .148.154m-7.873-7.094a.056.056 0 0 1 0 .112.056.056 0 0 1 0-.112m-7.389-8.733c.716 0 1.295.603 1.295 1.349s-.579 1.35-1.294 1.35-1.295-.604-1.295-1.35.58-1.349 1.295-1.349m-13.199-16.435c.733 0 1.326.619 1.326 1.382 0 .764-.593 1.383-1.326 1.383-.732 0-1.325-.619-1.325-1.383 0-.763.593-1.382 1.325-1.382m-5.745-7.634c.071 0 .13.061.13.136a.134.134 0 0 1-.13.136.134.134 0 0 1-.13-.136c0-.075.058-.136.13-.136m-5.138-9.01a.127.127 0 0 0 .124-.129.126.126 0 0 0-.124-.129.126.126 0 0 0-.125.129c0 .071.056.129.125.129m-4.502-11.05c.684 0 1.24.579 1.24 1.293 0 .713-.556 1.292-1.24 1.292s-1.24-.579-1.24-1.292.556-1.293 1.24-1.293m-7.023-17.348c.783 0 1.418-.662 1.418-1.479s-.635-1.479-1.419-1.479c-.783 0-1.418.662-1.418 1.479s.635 1.479 1.418 1.479m-2.484-12.018c.078 0 .14.066.14.147a.144.144 0 0 1-.14.147.144.144 0 0 1-.141-.147c0-.081.063-.147.14-.147m-1.783-10.453c.027 0 .047.021.047.05 0 .028-.02.049-.047.049a.047.047 0 0 1-.048-.049c0-.029.02-.05.047-.05m-1.074-12.022c.754 0 1.364.636 1.364 1.422s-.61 1.421-1.364 1.421c-.753 0-1.364-.636-1.364-1.421 0-.786.61-1.422 1.364-1.422m304.313 1.442c.008-.476-.355-.869-.811-.878s-.834.369-.843.845.354.87.811.879.834-.37.843-.846m-5.846 33.249c.852 0 1.542-.72 1.542-1.609 0-.888-.69-1.608-1.542-1.608s-1.543.72-1.543 1.608.691 1.609 1.543 1.609m-10.841 27.689c.39 0 .703.329.703.733s-.315.733-.703.733-.703-.329-.703-.733.316-.733.703-.733m-10.268 18.443c.442 0 .802.373.802.836s-.36.836-.802.836-.802-.375-.802-.836.358-.836.802-.836m-19.524 24.071c.831 0 1.505.702 1.505 1.569 0 .866-.674 1.569-1.505 1.569s-1.505-.703-1.505-1.569c0-.867.674-1.569 1.505-1.569m-23.789 22.772c.448 0 .812-.379.812-.847s-.364-.847-.812-.847-.813.379-.813.847.364.847.813.847m-17.786 10.609c.397 0 .719-.336.719-.75 0-.415-.322-.751-.719-.751-.398 0-.72.336-.72.751 0 .414.322.75.72.75m-28.803 8.983c.831 0 1.504.703 1.504 1.569 0 .867-.673 1.569-1.504 1.569s-1.505-.702-1.505-1.569c0-.866.674-1.569 1.505-1.569m-30.366 5.872c.49 0 .888.415.888.926s-.398.926-.888.926-.888-.414-.888-.926c0-.511.398-.926.888-.926m-20.536 1.852c.491 0 .888-.414.888-.926 0-.511-.397-.926-.888-.926-.49 0-.888.415-.888.926s.398.926.888.926m-30.364-4.586c.829 0 1.502-.701 1.502-1.567 0-.865-.673-1.566-1.502-1.566-.83 0-1.503.701-1.503 1.566s.673 1.567 1.503 1.567m-28.802-13.58c.377 0 .682.318.682.711s-.305.711-.682.711-.682-.318-.682-.711.305-.711.682-.711m-17.785-10.849c.452 0 .818.382.818.854s-.366.854-.818.854c-.453 0-.819-.382-.819-.854s.366-.854.819-.854m-23.79-21.078c.833 0 1.509.705 1.509 1.574s-.676 1.573-1.51 1.573c-.833 0-1.508-.704-1.508-1.573s.675-1.574 1.509-1.574M59.079 287.86c.433 0 .785.367.785.819s-.352.818-.785.818-.785-.366-.785-.818.351-.819.785-.819m-10.268-18.471c.396 0 .716.333.716.746 0 .412-.32.746-.716.746s-.715-.334-.715-.746c0-.413.32-.746.715-.746M37.97 241.695c.842 0 1.525-.712 1.525-1.591 0-.878-.683-1.591-1.525-1.591-.843 0-1.526.713-1.526 1.591 0 .879.683 1.591 1.526 1.591m-5.014-34.178c.49 0 .888.415.888.926s-.398.926-.888.926-.888-.414-.888-.926c0-.511.398-.926.888-.926m0-19.553c.494 0 .894-.417.894-.932s-.4-.933-.894-.933-.895.418-.895.933.401.932.895.932m5.014-31.002c.842 0 1.525-.713 1.525-1.591 0-.879-.683-1.591-1.525-1.591-.843 0-1.526.712-1.526 1.591 0 .878.683 1.591 1.526 1.591m10.842-30.882c.392 0 .71-.332.71-.742 0-.409-.318-.742-.71-.742-.393 0-.712.333-.712.742 0 .41.319.742.712.742m10.267-20.111c.437 0 .793.371.793.828s-.356.827-.794.827c-.437 0-.793-.371-.793-.827 0-.457.356-.828.794-.828M78.602 80.44c.82 0 1.487.693 1.487 1.55 0 .859-.665 1.552-1.487 1.552s-1.488-.694-1.488-1.551c0-.858.665-1.552 1.487-1.552m23.792-19.665c.455 0 .823.384.823.858s-.368.858-.823.858-.823-.384-.823-.858.368-.858.823-.858m17.785-10.591c.394 0 .714.333.714.743s-.32.744-.714.744-.713-.333-.713-.744c0-.41.32-.743.713-.743m28.802-8.986c.833 0 1.509-.704 1.509-1.573 0-.87-.676-1.574-1.509-1.574s-1.509.705-1.509 1.574.676 1.573 1.509 1.573m30.365-7.71c.482 0 .873.408.873.91 0 .503-.391.91-.873.91s-.873-.407-.873-.91c0-.502.391-.91.873-.91m20.535-.005c.484 0 .878.41.878.915s-.394.915-.878.915-.877-.41-.877-.915c0-.504.393-.915.877-.915m30.366 4.58c.827 0 1.498.7 1.498 1.562s-.671 1.562-1.498 1.562c-.828 0-1.499-.7-1.499-1.562s.671-1.562 1.499-1.562m28.803 12.136c.387 0 .699.327.699.728 0 .402-.314.729-.699.729s-.698-.327-.698-.729.313-.728.698-.728m17.784 12.297c.456 0 .825-.386.825-.86 0-.476-.369-.86-.825-.86s-.825.384-.825.86c0 .474.37.86.825.86m23.79 17.938c.825 0 1.494.697 1.494 1.557s-.669 1.558-1.494 1.558-1.494-.697-1.494-1.558c0-.86.669-1.557 1.494-1.557m19.525 27.193c.44 0 .796-.371.796-.829s-.356-.83-.796-.83c-.439 0-.795.372-.795.83s.356.829.795.829m10.267 18.454c.393 0 .712-.332.712-.742 0-.409-.319-.742-.712-.742s-.711.333-.711.742c0 .41.319.742.711.742m12.388 29.563c.136-.878-.436-1.705-1.278-1.847s-1.635.454-1.772 1.332c-.136.879.436 1.706 1.278 1.848s1.635-.454 1.772-1.333m3.466 30.509c.465 0 .844.395.844.88s-.379.88-.844.88-.844-.395-.844-.88.379-.88.844-.88m-323.145.412c.248 0 .448.209.448.468s-.2.467-.448.467a.457.457 0 0 1-.448-.467c0-.259.2-.468.448-.468m4.723-31.994c.395 0 .713.334.713.744s-.32.744-.713.744c-.394 0-.713-.334-.713-.744s.32-.744.713-.744m10.23-28.365c.615 0 1.113-.52 1.113-1.161s-.498-1.161-1.113-1.161-1.113.52-1.113 1.161.498 1.161 1.113 1.161M53.468 96.11c.603 0 1.092.51 1.092 1.14s-.489 1.138-1.093 1.138c-.603 0-1.092-.509-1.092-1.139s.489-1.138 1.093-1.138m20.027-22.397c.443 0 .802-.374.802-.836s-.36-.836-.802-.836-.802.374-.802.836.36.836.802.836M97.477 52.44a.31.31 0 0 1 .303.317.31.31 0 0 1-.303.316.31.31 0 0 1-.303-.316c0-.176.134-.316.303-.316m17.784-10.746c.187 0 .339.158.339.353a.346.346 0 0 1-.339.354.346.346 0 0 1-.339-.354c0-.195.152-.353.339-.353m9.332-4.118a.01.01 0 0 0 .007-.007.01.01 0 0 0-.007-.007q-.005 0-.006.007 0 .006.006.007m19.371-7.902c.413 0 .747.35.747.78s-.334.778-.747.778c-.412 0-.747-.349-.747-.779s.335-.779.747-.779m30.258-3.998c.593 0 1.073-.5 1.073-1.119 0-.618-.48-1.119-1.073-1.119s-1.073.501-1.073 1.12c0 .617.48 1.118 1.073 1.118m30.783-2.273c.61 0 1.107.515 1.107 1.154s-.495 1.154-1.107 1.154-1.107-.515-1.107-1.154.495-1.154 1.107-1.154m30.255 7.842c.419 0 .758-.354.758-.79s-.339-.79-.758-.79c-.418 0-.757.354-.757.79s.339.79.757.79m28.703 10.432c.196 0 .356.166.356.37 0 .205-.16.371-.356.371a.364.364 0 0 1-.355-.37c0-.205.16-.371.355-.371m17.788 10.798c.147 0 .267.125.267.278s-.12.279-.267.279a.273.273 0 0 1-.267-.279c0-.153.12-.278.267-.278m23.98 19.574c.438 0 .794.371.794.828s-.356.827-.794.827c-.437 0-.793-.37-.793-.827s.356-.827.793-.827M325.759 96.2c.555 0 1.008.47 1.008 1.052 0 .581-.45 1.05-1.008 1.05s-1.008-.469-1.008-1.05.45-1.051 1.008-1.051m15.389 27.68c.617 0 1.118.522 1.118 1.165s-.501 1.165-1.118 1.165c-.616 0-1.117-.522-1.117-1.165s.501-1.165 1.117-1.165m10.233 30.671c.404 0 .73.343.73.762s-.328.761-.73.761-.73-.34-.73-.761.328-.762.73-.762m4.719 32.958a.47.47 0 0 0 .459-.478.47.47 0 0 0-.459-.479.47.47 0 0 0-.458.479c0 .264.205.478.458.478m.001 21.421a.48.48 0 0 0 .468-.488.48.48 0 0 0-.468-.487.477.477 0 0 0-.467.487c0 .27.209.488.467.488m-4.72 30.471c.4 0 .726.338.726.757s-.324.757-.726.757-.726-.338-.726-.757.324-.757.726-.757m-10.233 32.197c.62 0 1.122-.524 1.122-1.17s-.502-1.169-1.122-1.169c-.619 0-1.122.523-1.122 1.169s.503 1.17 1.122 1.17m-15.39 27.728c.584 0 1.057-.493 1.057-1.101 0-.609-.473-1.102-1.057-1.102-.583 0-1.056.493-1.056 1.102 0 .608.473 1.101 1.056 1.101m-20.028 22.441c.44 0 .796.371.796.829 0 .459-.356.83-.796.83s-.795-.371-.795-.83.355-.829.795-.829m-23.981 20.666c.152 0 .274.127.274.285a.28.28 0 0 1-.274.285.28.28 0 0 1-.273-.285c0-.158.122-.285.273-.285m-17.786 10.622c.196 0 .356.167.356.371s-.16.371-.356.371a.365.365 0 0 1-.355-.371c0-.204.16-.371.355-.371m-9.332 4.845-.002-.001zm-19.37 6.324c.421 0 .764.355.764.796s-.341.797-.764.797-.764-.356-.764-.797.341-.796.764-.796m-30.257 7.851c.614 0 1.111-.519 1.111-1.159s-.497-1.158-1.111-1.158c-.613 0-1.111.518-1.111 1.158s.498 1.159 1.111 1.159m-30.781-.029c.599 0 1.084-.506 1.084-1.13s-.485-1.13-1.084-1.13c-.598 0-1.083.506-1.083 1.13s.485 1.13 1.083 1.13m-30.259-7.825c.423 0 .766.358.766.799s-.343.799-.766.799-.766-.358-.766-.799.343-.799.766-.799m-19.371-6.314a.01.01 0 0 0 .007-.007.01.01 0 0 0-.007-.007q-.005 0-.006.007 0 .007.006.007m-9.33-4.83c.185 0 .334.156.334.349a.34.34 0 0 1-.334.349.34.34 0 0 1-.335-.349c0-.193.15-.349.335-.349m-17.786-10.68c.17 0 .31.145.31.323a.316.316 0 0 1-.31.322.316.316 0 0 1-.309-.322c0-.178.139-.323.31-.323m-23.983-20.641c.446 0 .808.378.808.843s-.362.842-.808.842-.809-.377-.809-.842.362-.843.808-.843M53.469 299.31c.574 0 1.04-.486 1.04-1.084s-.466-1.084-1.04-1.084-1.04.485-1.04 1.084c0 .598.465 1.084 1.04 1.084m-15.393-30.044c.616 0 1.117.522 1.117 1.165s-.5 1.165-1.117 1.165-1.118-.522-1.118-1.165.501-1.165 1.118-1.165m-10.229-29.851c.395 0 .713.334.713.744s-.32.744-.713.744c-.394 0-.713-.334-.713-.744s.32-.744.713-.744m-4.723-31.45a.47.47 0 0 1 .459.479.47.47 0 0 1-.46.478.47.47 0 0 1-.458-.478.47.47 0 0 1 .459-.479m342.807.58a.097.097 0 0 0 .095-.099.097.097 0 0 0-.095-.099.097.097 0 0 0-.095.099c0 .055.043.099.095.099m-4.461 31.597c.033 0 .06.028.06.063a.06.06 0 0 1-.06.063.06.06 0 0 1-.061-.063c0-.035.027-.063.061-.063m-2.661 10.457a.045.045 0 0 0 .044-.046.045.045 0 0 0-.044-.046.045.045 0 0 0-.044.046c0 .025.02.046.044.046m-7.026 20.081q.004 0 .004-.005t-.004-.005-.005.005.005.005m-4.34 9.647c.031 0 .056.026.056.059a.057.057 0 0 1-.056.058.057.057 0 0 1-.056-.058c0-.033.025-.059.056-.059m-29.364 43.697c.046 0 .082.039.082.085a.085.085 0 0 1-.082.085c-.043 0-.081-.039-.081-.085s.038-.085.081-.085m-7.264 7.592c.035 0 .067.03.067.07 0 .039-.03.069-.067.069a.067.067 0 0 1-.067-.069c0-.04.029-.07.067-.07m-41.936 30.651c.019 0 .033.015.033.035a.033.033 0 0 1-.033.034.033.033 0 0 1-.033-.034c0-.02.014-.035.033-.035m-28.612 11.823c.033 0 .06.028.06.063s-.027.064-.06.064a.063.063 0 0 1-.061-.064c0-.035.027-.063.061-.063m-9.923 2.776c.032 0 .056.026.056.058 0 .033-.024.059-.056.059a.057.057 0 0 1-.056-.059c0-.032.025-.058.056-.058m-30.461 4.603c.059 0 .105.049.105.11s-.046.11-.105.11a.107.107 0 0 1-.105-.11c0-.061.046-.11.105-.11m-20.54.04c.036 0 .067.03.067.07a.067.067 0 0 1-.067.069.067.067 0 0 1-.067-.069c0-.04.03-.07.067-.07m-30.461-4.659c.04 0 .071.033.071.075a.07.07 0 0 1-.071.074.07.07 0 0 1-.071-.074c0-.042.031-.075.071-.075m-9.925-2.749c.027 0 .05.024.05.052a.05.05 0 0 1-.05.052.05.05 0 0 1-.05-.052c0-.028.023-.052.05-.052m-19.3-7.26a.012.012 0 0 0 .012-.012q0-.012-.012-.013-.01.001-.011.013.001.01.011.012m-9.309-4.493a.045.045 0 0 0 .044-.046.045.045 0 0 0-.044-.046.045.045 0 0 0-.044.046c0 .025.02.046.044.046m-41.936-30.75c.046 0 .082.04.082.085a.085.085 0 0 1-.082.085.085.085 0 0 1-.082-.085c0-.045.038-.085.082-.085m-7.265-7.55c.034 0 .061.028.061.063a.06.06 0 0 1-.06.063.06.06 0 0 1-.061-.063c0-.035.027-.063.06-.063m-29.366-43.721c.031 0 .056.026.056.059a.057.057 0 0 1-.056.058.057.057 0 0 1-.056-.058c0-.033.025-.059.056-.059m-4.341-9.67s.018.009.018.019a.018.018 0 1 1-.036 0c0-.01.008-.019.018-.019m-7.025-20.058c.024 0 .044-.021.044-.046s-.02-.046-.044-.046a.045.045 0 0 0-.044.046c0 .025.02.046.044.046m-2.658-10.468c.04 0 .071.032.071.074a.07.07 0 0 1-.07.074.07.07 0 0 1-.072-.074c0-.042.031-.074.071-.074m-4.464-31.778a.09.09 0 0 1 .088.092.09.09 0 0 1-.088.092.09.09 0 0 1-.088-.092c0-.05.04-.092.088-.092m.001-21.272a.05.05 0 0 0 .05-.052.05.05 0 0 0-.05-.052.05.05 0 0 0-.05.052.05.05 0 0 0 .05.052m4.464-31.892a.08.08 0 0 1 .077.08.08.08 0 0 1-.077.081.08.08 0 0 1-.077-.081.08.08 0 0 1 .077-.08m2.657-10.32c.027 0 .05.024.05.052a.05.05 0 0 1-.05.052.05.05 0 0 1-.05-.052c0-.028.023-.052.05-.052m11.366-29.837c.031 0 .056.026.056.058a.057.057 0 0 1-.056.059.057.057 0 0 1-.056-.059c0-.032.025-.058.056-.058M61.147 71.3c.034 0 .061.029.061.063a.06.06 0 0 1-.06.064.06.06 0 0 1-.061-.064c0-.034.027-.063.06-.063m7.265-7.585c.04 0 .07.032.07.074a.07.07 0 0 1-.07.074.07.07 0 0 1-.072-.074c0-.042.032-.075.072-.075m41.936-30.496c.024 0 .044-.02.044-.046a.045.045 0 0 0-.044-.045.045.045 0 0 0-.044.045c0 .026.02.046.044.046m28.61-11.938a.04.04 0 0 1 .04.041c0 .024-.017.042-.04.042s-.04-.018-.04-.042.017-.041.04-.041m9.925-2.84c.059 0 .106.049.106.11 0 .062-.047.11-.106.11a.106.106 0 0 1-.105-.11c0-.061.046-.11.105-.11m30.46-4.612c.036 0 .067.03.067.07s-.029.07-.067.07a.07.07 0 0 1-.067-.07c0-.04.03-.07.067-.07m20.539-.024a.09.09 0 0 1 .088.092.09.09 0 0 1-.088.091.09.09 0 0 1-.088-.091c0-.05.04-.092.088-.092m30.462 4.666a.08.08 0 0 1 .078.08c0 .046-.034.08-.078.08s-.077-.034-.077-.08.033-.08.077-.08m9.923 2.781c.037 0 .067.03.067.07s-.03.07-.067.07a.067.067 0 0 1-.067-.07c0-.04.029-.07.067-.07m28.611 11.873c.025 0 .046.022.046.048a.047.047 0 0 1-.046.048.047.047 0 0 1-.046-.048c0-.026.021-.048.046-.048m41.936 30.591c.04 0 .071.032.071.074a.07.07 0 0 1-.071.074.07.07 0 0 1-.071-.074c0-.042.031-.075.071-.075m7.265 7.564a.085.085 0 0 1 0 .17c-.043 0-.081-.04-.081-.085s.038-.085.081-.085m29.365 43.769c.023 0 .041.02.041.043 0 .024-.018.044-.041.044a.043.043 0 0 1-.042-.044c0-.023.019-.043.042-.043m4.341 9.774q.02-.002.022-.023c.002-.021-.01-.024-.022-.024a.023.023 0 0 0-.023.024q.002.021.023.023m7.025 20.042c.031 0 .056.026.056.058a.057.057 0 0 1-.056.059.057.057 0 0 1-.056-.059c0-.032.025-.058.056-.058m2.659 10.33c.04 0 .072.033.072.074a.073.073 0 0 1-.072.075.073.073 0 0 1-.071-.075c0-.041.032-.074.071-.074m4.462 31.773c.033 0 .061.028.061.063a.06.06 0 0 1-.061.063.06.06 0 0 1-.061-.063c0-.035.027-.063.061-.063M10.22 144.735c.059 0 .105.048.105.11 0 .061-.046.11-.105.11a.107.107 0 0 1-.105-.11c0-.062.046-.11.105-.11m10.796-30.236c.149 0 .269.125.269.28s-.12.281-.27.281a.274.274 0 0 1-.269-.281c0-.155.12-.28.27-.28M36.41 87.303a.32.32 0 0 0 .314-.327.32.32 0 0 0-.313-.327.32.32 0 0 0-.314.327c0 .18.14.327.313.327m19.573-24.925a.18.18 0 0 0 .176-.184.18.18 0 0 0-.176-.184.18.18 0 0 0-.177.184.18.18 0 0 0 .177.184m87.863-53.219c.076 0 .139.066.139.145a.143.143 0 0 1-.139.144.143.143 0 0 1-.138-.144c0-.08.061-.145.138-.145m30.372-5.347c.109 0 .198.092.198.206a.2.2 0 0 1-.198.206.2.2 0 0 1-.198-.206c0-.114.089-.206.198-.206m30.791-.018c.12 0 .217.1.217.226a.22.22 0 0 1-.217.226.22.22 0 0 1-.216-.226c0-.125.097-.226.216-.226m30.37 5.352c.082 0 .149.07.149.155a.153.153 0 0 1-.149.156.154.154 0 0 1-.15-.156c0-.085.068-.155.15-.155m87.863 52.859c.101 0 .183.086.183.191s-.082.191-.183.191a.187.187 0 0 1-.183-.19c0-.106.082-.192.183-.192m19.574 24.637a.33.33 0 0 1 .322.336.33.33 0 0 1-.322.336.33.33 0 0 1-.322-.336c0-.186.143-.336.322-.336m15.396 28.418c.149 0 .27-.125.27-.281a.275.275 0 0 0-.27-.28.274.274 0 0 0-.269.28c0 .156.12.281.269.281m10.796 29.905a.12.12 0 0 0 .116-.12.12.12 0 0 0-.116-.121.12.12 0 0 0-.116.121c0 .066.052.12.116.12m.001 105.797c.07 0 .126-.059.126-.132a.13.13 0 0 0-.126-.131.13.13 0 0 0-.126.131c0 .073.056.132.126.132m-10.797 30.213a.274.274 0 0 0 .267-.279.274.274 0 0 0-.267-.279.274.274 0 0 0-.268.279c0 .154.12.279.268.279m-15.396 27.86a.33.33 0 0 0 .322-.336.33.33 0 0 0-.322-.336.33.33 0 0 0-.322.336c0 .186.144.336.322.336m-19.574 24.255c.101 0 .183.086.183.191a.187.187 0 0 1-.183.191.187.187 0 0 1-.183-.191c0-.105.082-.191.183-.191m-87.864 52.932a.15.15 0 0 1 .146.152.15.15 0 0 1-.146.151.15.15 0 0 1-.145-.151c0-.084.065-.152.145-.152m-30.369 5.212c.118 0 .214.1.214.223a.22.22 0 0 1-.214.224.22.22 0 0 1-.215-.224.22.22 0 0 1 .215-.223m-30.791.017c.109 0 .198.093.198.207a.2.2 0 0 1-.198.206.2.2 0 0 1-.198-.206c0-.114.089-.207.198-.207m-30.37-4.941a.135.135 0 0 0 .132-.139.135.135 0 0 0-.132-.138.136.136 0 0 0-.133.138c0 .077.06.139.133.139m-87.864-53.217c.099 0 .179.083.179.186s-.08.187-.18.187a.183.183 0 0 1-.178-.187c0-.103.08-.186.179-.186m-19.574-24.26c.176 0 .32-.149.32-.334a.327.327 0 0 0-.32-.333.327.327 0 0 0-.32.333c0 .185.143.334.32.334m-15.394-27.861a.27.27 0 0 0 .265-.276.27.27 0 0 0-.265-.277.27.27 0 0 0-.266.277c0 .152.12.276.265.276M10.22 250.758a.125.125 0 0 0 .122-.128.125.125 0 0 0-.122-.127.125.125 0 0 0-.122.127c0 .071.054.128.122.128m368.948-.123a.06.06 0 0 1 .058.06c0 .033-.027.061-.058.061a.06.06 0 0 1 0-.121m-50.793 91.781s.004.002.004.005q0 .005-.004.005-.005 0-.005-.005t.005-.005m-87.97 53.062a.097.097 0 0 0 .095-.099.097.097 0 0 0-.095-.099.097.097 0 0 0-.095.099c0 .055.042.099.095.099m-101.584-.028a.07.07 0 0 0 .069-.072.07.07 0 0 0-.069-.072.07.07 0 0 0-.069.072c0 .04.031.072.069.072M50.85 342.403s.015.008.015.016-.008.017-.016.017c-.007 0-.015-.009-.015-.017s.008-.016.015-.016M.058 250.635a.06.06 0 0 1 0 .121.06.06 0 0 1 0-.121m0-105.902c.025 0 .044.02.044.046a.043.043 0 0 1-.044.045.043.043 0 0 1-.044-.045c0-.026.02-.046.044-.046M50.85 53.078a.025.025 0 0 0 .024-.026.025.025 0 0 0-.024-.026.025.025 0 0 0-.025.026c0 .014.011.026.025.026M138.822.015c.042 0 .077.035.077.08 0 .047-.033.082-.077.082a.08.08 0 0 1-.078-.081c0-.046.034-.08.078-.08M240.404 0c.05 0 .092.044.092.097s-.042.097-.092.097a.096.096 0 0 1-.093-.097c0-.053.042-.097.093-.097m87.972 53.073a.02.02 0 0 0 .02-.021.02.02 0 0 0-.02-.021.02.02 0 0 0-.02.02.02.02 0 0 0 .02.022m50.792 91.654c.027 0 .05.024.05.052a.05.05 0 0 1-.05.052.05.05 0 0 1-.05-.052c0-.028.023-.052.05-.052"/></g><defs><clipPath id="a"><path fill="#fff" d="M0 0h379.225v395.477H0z"/></clipPath></defs></svg>