<svg xmlns="http://www.w3.org/2000/svg" width="220" height="229" fill="none" viewBox="0 0 220 229"><g fill="currentColor" clip-path="url(#a)" opacity=".14"><path d="M109.572 116.816c1.35 0 2.445-1.141 2.445-2.55s-1.095-2.549-2.445-2.549c-1.351 0-2.446 1.141-2.446 2.549 0 1.409 1.095 2.55 2.446 2.55m-5.67 0c1.35 0 2.445-1.141 2.445-2.55s-1.095-2.549-2.445-2.549c-1.351 0-2.446 1.141-2.446 2.549 0 1.409 1.095 2.55 2.446 2.55m2.835-5.12c1.35 0 2.445-1.141 2.445-2.55s-1.095-2.55-2.445-2.55c-1.351 0-2.446 1.142-2.446 2.55 0 1.409 1.095 2.55 2.446 2.55m5.67 0c1.35 0 2.445-1.141 2.445-2.55s-1.095-2.55-2.445-2.55c-1.351 0-2.446 1.142-2.446 2.55 0 1.409 1.095 2.55 2.446 2.55m2.835 5.12c1.351 0 2.446-1.141 2.446-2.55s-1.095-2.549-2.446-2.549c-1.35 0-2.445 1.141-2.445 2.549 0 1.409 1.095 2.55 2.445 2.55m-2.835 5.121c1.35 0 2.445-1.142 2.445-2.55s-1.095-2.55-2.445-2.55c-1.351 0-2.446 1.142-2.446 2.55s1.095 2.55 2.446 2.55m-5.67 0c1.35 0 2.445-1.142 2.445-2.55s-1.095-2.55-2.445-2.55c-1.351 0-2.446 1.142-2.446 2.55s1.095 2.55 2.446 2.55m14.174-5.121c1.351 0 2.446-1.141 2.446-2.55s-1.095-2.549-2.446-2.549c-1.35 0-2.445 1.141-2.445 2.549 0 1.409 1.095 2.55 2.445 2.55m-1.518 5.912c1.351 0 2.445-1.142 2.445-2.55s-1.094-2.55-2.445-2.55-2.446 1.142-2.446 2.55 1.095 2.55 2.446 2.55m-4.151 4.329c1.351 0 2.446-1.142 2.446-2.55s-1.095-2.55-2.446-2.55c-1.35 0-2.445 1.142-2.445 2.55s1.095 2.55 2.445 2.55m-5.67 1.583c1.35 0 2.445-1.141 2.445-2.55s-1.095-2.549-2.445-2.549c-1.351 0-2.446 1.141-2.446 2.549 0 1.409 1.095 2.55 2.446 2.55m-5.67-1.583c1.35 0 2.445-1.142 2.445-2.55s-1.095-2.55-2.445-2.55c-1.351 0-2.446 1.142-2.446 2.55s1.095 2.55 2.446 2.55m-4.151-4.329c1.351 0 2.446-1.142 2.446-2.55s-1.095-2.55-2.446-2.55c-1.35 0-2.445 1.142-2.445 2.55s1.095 2.55 2.445 2.55m-1.519-5.912c1.35 0 2.445-1.141 2.445-2.55s-1.095-2.549-2.445-2.549-2.446 1.141-2.446 2.549c0 1.409 1.095 2.55 2.446 2.55m1.519-5.912c1.351 0 2.446-1.142 2.446-2.55s-1.095-2.55-2.446-2.55c-1.35 0-2.445 1.142-2.445 2.55s1.095 2.55 2.445 2.55m4.151-4.328c1.35 0 2.445-1.141 2.445-2.55s-1.095-2.55-2.445-2.55c-1.351 0-2.446 1.142-2.446 2.55 0 1.409 1.095 2.55 2.446 2.55m5.67-1.584c1.35 0 2.445-1.141 2.445-2.549 0-1.409-1.095-2.55-2.445-2.55-1.351 0-2.446 1.141-2.446 2.55s1.095 2.549 2.446 2.549m5.67 1.584c1.351 0 2.446-1.141 2.446-2.55s-1.095-2.55-2.446-2.55c-1.35 0-2.445 1.142-2.445 2.55 0 1.409 1.095 2.55 2.445 2.55m4.151 4.328c1.351 0 2.445-1.142 2.445-2.55s-1.094-2.55-2.445-2.55-2.446 1.142-2.446 2.55 1.095 2.55 2.446 2.55m-26.831 5.912c1.35 0 2.445-1.141 2.445-2.55s-1.095-2.549-2.445-2.549-2.446 1.141-2.446 2.549c0 1.409 1.095 2.55 2.446 2.55m1.024-6.065c1.35 0 2.446-1.142 2.446-2.55 0-1.409-1.095-2.55-2.446-2.55-1.35 0-2.445 1.141-2.445 2.55s1.095 2.55 2.445 2.55m2.954-5.335c1.351 0 2.446-1.142 2.446-2.55s-1.095-2.55-2.446-2.55c-1.35 0-2.445 1.142-2.445 2.55s1.095 2.55 2.445 2.55m4.528-3.96c1.35 0 2.445-1.142 2.445-2.55s-1.095-2.55-2.445-2.55c-1.351 0-2.446 1.142-2.446 2.55s1.095 2.55 2.446 2.55m5.549-2.106c1.351 0 2.446-1.142 2.446-2.55s-1.095-2.55-2.446-2.55c-1.35 0-2.445 1.142-2.445 2.55s1.095 2.55 2.445 2.55m5.909 0c1.35 0 2.445-1.142 2.445-2.55s-1.095-2.55-2.445-2.55c-1.351 0-2.446 1.142-2.446 2.55s1.095 2.55 2.446 2.55m5.55 2.106c1.351 0 2.446-1.142 2.446-2.55s-1.095-2.55-2.446-2.55c-1.35 0-2.445 1.142-2.445 2.55s1.095 2.55 2.445 2.55m4.526 3.96c1.351 0 2.445-1.142 2.445-2.55s-1.094-2.55-2.445-2.55-2.446 1.142-2.446 2.55 1.095 2.55 2.446 2.55m2.954 5.335c1.351 0 2.446-1.142 2.446-2.55 0-1.409-1.095-2.55-2.446-2.55s-2.446 1.141-2.446 2.55 1.095 2.55 2.446 2.55m1.026 6.065c1.351 0 2.446-1.141 2.446-2.55s-1.095-2.549-2.446-2.549c-1.35 0-2.445 1.141-2.445 2.549 0 1.409 1.095 2.55 2.445 2.55m-1.026 6.067c1.351 0 2.446-1.142 2.446-2.55 0-1.409-1.095-2.55-2.446-2.55s-2.446 1.141-2.446 2.55 1.095 2.55 2.446 2.55m-2.954 5.334c1.351 0 2.445-1.142 2.445-2.55s-1.094-2.55-2.445-2.55-2.446 1.142-2.446 2.55 1.095 2.55 2.446 2.55m-4.526 3.959c1.351 0 2.446-1.142 2.446-2.55s-1.095-2.55-2.446-2.55c-1.35 0-2.445 1.142-2.445 2.55s1.095 2.55 2.445 2.55m-5.55 2.107c1.35 0 2.445-1.141 2.445-2.55s-1.095-2.55-2.445-2.55c-1.351 0-2.446 1.142-2.446 2.55 0 1.409 1.095 2.55 2.446 2.55m-5.909 0c1.351 0 2.446-1.141 2.446-2.55s-1.095-2.55-2.446-2.55c-1.35 0-2.445 1.142-2.445 2.55 0 1.409 1.095 2.55 2.445 2.55m-5.549-2.107c1.35 0 2.445-1.142 2.445-2.55s-1.095-2.55-2.445-2.55c-1.351 0-2.446 1.142-2.446 2.55s1.095 2.55 2.446 2.55m-4.528-3.959c1.351 0 2.446-1.142 2.446-2.55s-1.095-2.55-2.446-2.55c-1.35 0-2.445 1.142-2.445 2.55s1.095 2.55 2.445 2.55m-2.954-5.334c1.35 0 2.446-1.142 2.446-2.55 0-1.409-1.095-2.55-2.446-2.55-1.35 0-2.445 1.141-2.445 2.55s1.095 2.55 2.445 2.55m38.666-6.148c1.307 0 2.367-1.105 2.367-2.468 0-1.364-1.06-2.469-2.367-2.469-1.308 0-2.368 1.105-2.368 2.469s1.06 2.468 2.368 2.468m-.772 6.099c1.296 0 2.347-1.095 2.347-2.447 0-1.351-1.051-2.447-2.347-2.447s-2.347 1.096-2.347 2.447c0 1.352 1.051 2.447 2.347 2.447m-2.266 5.704c1.297 0 2.347-1.096 2.347-2.447 0-1.352-1.05-2.448-2.347-2.448s-2.347 1.096-2.347 2.448 1.051 2.447 2.347 2.447m-1.924 4.202a2.554 2.554 0 0 0 0-3.506 2.31 2.31 0 0 0-3.362 0 2.556 2.556 0 0 0 0 3.506 2.31 2.31 0 0 0 3.362 0m-6.378 4.453c1.296 0 2.347-1.095 2.347-2.447s-1.051-2.447-2.347-2.447-2.348 1.095-2.348 2.447 1.051 2.447 2.348 2.447m-3.154.329c.213-1.33-.648-2.589-1.924-2.812s-2.483.676-2.696 2.006.647 2.589 1.923 2.812 2.483-.676 2.697-2.006m-8.187 2.859c1.307 0 2.366-1.104 2.366-2.466s-1.059-2.467-2.366-2.467c-1.306 0-2.365 1.104-2.365 2.467s1.059 2.466 2.365 2.466m-3.562-2.903c.201-1.331-.671-2.581-1.949-2.791-1.277-.209-2.475.7-2.676 2.032-.201 1.331.671 2.581 1.948 2.791s2.476-.7 2.677-2.032m-7.779-.281c1.299 0 2.351-1.097 2.351-2.451s-1.052-2.451-2.35-2.451-2.351 1.097-2.351 2.451 1.052 2.451 2.35 2.451m-4.695-3.731c1.313 0 2.377-1.109 2.377-2.479 0-1.369-1.064-2.478-2.377-2.478s-2.378 1.109-2.378 2.478 1.065 2.479 2.378 2.479m-2.709-5.087c1.21-.516 1.792-1.958 1.297-3.221-.495-1.262-1.878-1.868-3.09-1.352-1.21.516-1.791 1.958-1.296 3.221.495 1.262 1.877 1.868 3.089 1.352m-3.162-5.514c1.313 0 2.377-1.11 2.377-2.478s-1.064-2.478-2.377-2.478-2.376 1.11-2.376 2.478 1.064 2.478 2.376 2.478m.139-6.314c1.205-.527 1.771-1.974 1.265-3.23s-1.893-1.847-3.098-1.32c-1.205.528-1.772 1.974-1.266 3.231.507 1.256 1.894 1.847 3.099 1.319m-.138-5.931c1.31 0 2.372-1.108 2.372-2.474s-1.062-2.474-2.372-2.474-2.373 1.108-2.373 2.474 1.062 2.474 2.373 2.474m4.554-7.521c.344-1.316-.4-2.674-1.663-3.033-1.262-.358-2.564.418-2.909 1.734s.4 2.674 1.663 3.033c1.262.358 2.564-.418 2.909-1.734m1.316-3.075c1.314 0 2.379-1.11 2.379-2.48s-1.065-2.48-2.379-2.48-2.379 1.11-2.379 2.48 1.065 2.48 2.379 2.48m4.697-3.784c1.299 0 2.352-1.099 2.352-2.453s-1.053-2.452-2.352-2.452c-1.3 0-2.352 1.098-2.352 2.452s1.053 2.452 2.352 2.452m7.781-4.429c.206-1.333-.663-2.587-1.941-2.802-1.277-.215-2.48.691-2.686 2.023s.663 2.587 1.94 2.802c1.278.214 2.481-.692 2.687-2.024m3.559 1.282c1.309 0 2.371-1.107 2.371-2.472 0-1.366-1.062-2.473-2.371-2.473-1.31 0-2.372 1.107-2.372 2.473s1.062 2.472 2.372 2.472m7.21.325c1.06-.772 1.32-2.293.58-3.399s-2.199-1.376-3.26-.604-1.32 2.293-.58 3.398c.74 1.106 2.2 1.376 3.26.605m4.13 2.824c1.299 0 2.353-1.098 2.353-2.453s-1.054-2.454-2.353-2.454-2.353 1.099-2.353 2.454 1.053 2.454 2.353 2.454m6.381 3.059a2.56 2.56 0 0 0 0-3.513 2.314 2.314 0 0 0-3.369 0 2.56 2.56 0 0 0 0 3.513c.93.97 2.439.97 3.369 0m1.921 5.59c1.297 0 2.347-1.096 2.347-2.447 0-1.352-1.05-2.448-2.347-2.448s-2.347 1.096-2.347 2.448 1.051 2.447 2.347 2.447m3.927 4.987a2.524 2.524 0 0 0 0-3.463 2.28 2.28 0 0 0-3.321 0 2.524 2.524 0 0 0 0 3.463 2.28 2.28 0 0 0 3.321 0m-51.919 6.763c1.257 0 2.276-1.063 2.276-2.373s-1.019-2.374-2.276-2.374-2.277 1.063-2.277 2.374c0 1.31 1.02 2.373 2.277 2.373m.618-6.144c1.258 0 2.278-1.064 2.278-2.375 0-1.312-1.02-2.375-2.278-2.375s-2.278 1.063-2.278 2.375c0 1.311 1.02 2.375 2.278 2.375m1.832-5.881c1.255 0 2.274-1.062 2.274-2.372s-1.019-2.37-2.274-2.37-2.275 1.061-2.275 2.37 1.019 2.372 2.275 2.372m2.964-5.35c1.257 0 2.276-1.063 2.276-2.374 0-1.31-1.019-2.373-2.276-2.373s-2.277 1.062-2.277 2.373 1.02 2.374 2.277 2.374m6.164-6.399c.3-1.266-.44-2.547-1.655-2.86-1.215-.315-2.443.458-2.744 1.724-.3 1.267.44 2.547 1.655 2.861 1.214.314 2.443-.459 2.743-1.725m3.475-2.003c1.16-.507 1.705-1.898 1.219-3.107-.487-1.209-1.822-1.778-2.98-1.27-1.16.507-1.705 1.898-1.219 3.107.487 1.209 1.821 1.778 2.98 1.27m4.537-2.323c1.264 0 2.289-1.068 2.289-2.386s-1.025-2.387-2.289-2.387-2.289 1.069-2.289 2.387 1.025 2.386 2.289 2.386m6.65-1.481c1.156-.493 1.71-1.87 1.238-3.075-.473-1.206-1.794-1.784-2.95-1.291s-1.711 1.87-1.238 3.075 1.793 1.784 2.95 1.291m7.299-1.822c.198-1.285-.639-2.494-1.871-2.701s-2.392.666-2.591 1.95c-.198 1.285.639 2.495 1.871 2.702s2.392-.666 2.591-1.951m3.572 3.289c1.257 0 2.275-1.062 2.275-2.372s-1.018-2.373-2.275-2.373-2.275 1.063-2.275 2.373 1.018 2.372 2.275 2.372m5.414 2.521c1.26 0 2.282-1.065 2.282-2.38s-1.022-2.38-2.282-2.38-2.283 1.066-2.283 2.38c0 1.315 1.022 2.38 2.283 2.38m6.393 2.918a2.43 2.43 0 0 0 0-3.332 2.195 2.195 0 0 0-3.196 0 2.43 2.43 0 0 0 0 3.332c.883.92 2.313.92 3.196 0m2.368 5.305c1.26 0 2.281-1.065 2.281-2.379s-1.021-2.379-2.281-2.379-2.281 1.066-2.281 2.38 1.021 2.378 2.281 2.378m5.15 3.513c.282-1.255-.465-2.511-1.669-2.805s-2.408.485-2.69 1.741c-.282 1.255.465 2.511 1.669 2.805s2.408-.486 2.69-1.741m-.355 7.702c1.253 0 2.268-1.059 2.268-2.365s-1.015-2.364-2.268-2.364-2.268 1.058-2.268 2.364 1.016 2.365 2.268 2.365m2.396 5.264c.78-1.022.617-2.509-.362-3.321-.98-.813-2.406-.644-3.186.378s-.616 2.508.363 3.321c.98.813 2.406.643 3.185-.378m-1.54 6.861c1.161-.495 1.717-1.876 1.243-3.086-.475-1.209-1.799-1.789-2.96-1.295-1.16.495-1.716 1.876-1.242 3.086s1.799 1.789 2.959 1.295m-2.688 6.009c1.234 0 2.234-1.043 2.234-2.329s-1-2.33-2.234-2.33-2.234 1.043-2.234 2.33c0 1.286 1.001 2.329 2.234 2.329m-2.963 5.412c1.265 0 2.291-1.07 2.291-2.389 0-1.32-1.026-2.389-2.291-2.389s-2.291 1.069-2.291 2.389 1.026 2.389 2.291 2.389m-1.738 2.579c.201-1.284-.634-2.495-1.866-2.705-1.231-.209-2.393.662-2.594 1.946s.635 2.495 1.866 2.705 2.393-.662 2.594-1.946m-7.023 5.636c1.26 0 2.282-1.065 2.282-2.38s-1.022-2.38-2.282-2.38-2.283 1.066-2.283 2.38c0 1.315 1.022 2.38 2.283 2.38m-5.414 2.51c1.258 0 2.279-1.064 2.279-2.377s-1.021-2.376-2.279-2.376-2.279 1.064-2.279 2.376c0 1.313 1.02 2.377 2.279 2.377m-3.598-.557c.287-1.268-.466-2.538-1.682-2.837s-2.434.486-2.721 1.753c-.287 1.268.466 2.538 1.682 2.838 1.216.299 2.434-.486 2.721-1.754m-6.526 1.133a2.43 2.43 0 0 0 0-3.335 2.197 2.197 0 0 0-3.199 0 2.43 2.43 0 0 0 0 3.335 2.196 2.196 0 0 0 3.199 0m-7.397-.566c1.264 0 2.289-1.069 2.289-2.387s-1.025-2.386-2.289-2.386-2.289 1.068-2.289 2.386 1.025 2.387 2.289 2.387m-3.804-3.22c.89-.928.89-2.432 0-3.36a2.214 2.214 0 0 0-3.223 0 2.45 2.45 0 0 0 0 3.36c.89.928 2.333.928 3.223 0m-5.533-3.133c1.153-.504 1.695-1.887 1.211-3.089s-1.81-1.767-2.963-1.262c-1.152.504-1.694 1.887-1.21 3.089.483 1.202 1.81 1.767 2.962 1.262m-4.838-4.389c1.262 0 2.285-1.066 2.285-2.382s-1.023-2.383-2.285-2.383-2.285 1.067-2.285 2.383 1.023 2.382 2.285 2.382m-2.964-5.363c1.255 0 2.274-1.062 2.274-2.371 0-1.31-1.019-2.372-2.274-2.372s-2.275 1.062-2.275 2.372 1.019 2.371 2.275 2.371m-1.832-5.875c1.257 0 2.277-1.063 2.277-2.373s-1.02-2.374-2.277-2.374-2.276 1.063-2.276 2.374c0 1.31 1.019 2.373 2.276 2.373m63.687-8.035c.254-1.111-.405-2.226-1.47-2.491-1.066-.264-2.136.423-2.389 1.534-.254 1.111.405 2.226 1.471 2.49 1.065.265 2.135-.422 2.388-1.533m-1.164 7.3c.862-.741.984-2.071.273-2.97a1.967 1.967 0 0 0-2.848-.285c-.863.742-.985 2.072-.274 2.971a1.97 1.97 0 0 0 2.849.284m-2.822 6.445c1.111 0 2.011-.939 2.011-2.097 0-1.159-.9-2.097-2.011-2.097s-2.012.938-2.012 2.097c0 1.158.901 2.097 2.012 2.097m-2.507 5.584c1.101 0 1.993-.93 1.993-2.078s-.892-2.078-1.993-2.078-1.993.93-1.993 2.078.892 2.078 1.993 2.078m-1.956 4.494a2.194 2.194 0 0 0 0-3.012 1.984 1.984 0 0 0-2.889 0 2.194 2.194 0 0 0 0 3.012 1.984 1.984 0 0 0 2.889 0m-3.646 3.357c.257-1.145-.426-2.29-1.524-2.557-1.098-.268-2.196.444-2.453 1.589s.426 2.29 1.525 2.557 2.196-.444 2.452-1.589m-6.849 5.154c1.112 0 2.013-.94 2.013-2.099s-.901-2.098-2.013-2.098-2.013.939-2.013 2.098.901 2.099 2.013 2.099m-5.376 2.611c1.111 0 2.011-.939 2.011-2.096s-.9-2.096-2.011-2.096c-1.11 0-2.01.938-2.01 2.096 0 1.157.9 2.096 2.01 2.096m-5.728 1.612c1.117 0 2.023-.944 2.023-2.108s-.906-2.109-2.023-2.109-2.022.944-2.022 2.109c0 1.164.905 2.108 2.022 2.108m-5.907.519c1.106 0 2.003-.935 2.003-2.088s-.897-2.089-2.003-2.089-2.003.935-2.003 2.089.897 2.088 2.003 2.088m-3.956-2.091c.279-1.123-.367-2.269-1.444-2.56s-2.176.384-2.455 1.506c-.279 1.123.368 2.269 1.444 2.56s2.176-.384 2.455-1.506m-7.681-.024c1.12 0 2.026-.946 2.026-2.112s-.907-2.113-2.026-2.113-2.026.946-2.026 2.113c0 1.166.907 2.112 2.026 2.112m-5.373-2.627c1.111 0 2.012-.94 2.012-2.099s-.901-2.098-2.013-2.098-2.012.939-2.012 2.098.9 2.099 2.012 2.099m-3.419-4.146a2.186 2.186 0 0 0 0-2.999 1.975 1.975 0 0 0-2.876 0 2.185 2.185 0 0 0 0 2.999 1.975 1.975 0 0 0 2.875 0m-3.601-5.692c.092-1.167-.74-2.191-1.86-2.287-1.119-.097-2.1.771-2.193 1.938s.74 2.191 1.859 2.287 2.101-.771 2.194-1.938m-5.431-3.159c1.105 0 2-.934 2-2.086s-.895-2.086-2-2.086-2 .934-2 2.086.895 2.086 2 2.086m-2.506-5.616c1.098 0 1.988-.928 1.988-2.073s-.89-2.073-1.988-2.073c-1.099 0-1.989.928-1.989 2.073s.89 2.073 1.989 2.073m-1.535-5.944c1.113 0 2.015-.941 2.015-2.101s-.902-2.102-2.015-2.102-2.015.941-2.015 2.102c0 1.16.902 2.101 2.015 2.101m-.518-6.2c1.093 0 1.978-.923 1.978-2.061 0-1.139-.885-2.062-1.977-2.062s-1.978.923-1.978 2.062.886 2.061 1.978 2.061m2.502-7.874c.178-1.141-.564-2.216-1.658-2.402s-2.125.587-2.303 1.728c-.179 1.14.563 2.215 1.657 2.402 1.094.186 2.125-.588 2.303-1.728m-.449-4.236c1.103 0 1.998-.933 1.998-2.084 0-1.15-.895-2.083-1.998-2.083-1.104 0-1.998.933-1.998 2.083s.894 2.084 1.998 2.084m2.505-5.585c1.114 0 2.016-.94 2.016-2.102s-.902-2.102-2.016-2.102-2.016.941-2.016 2.102.903 2.102 2.016 2.102m3.656-5.067c1.116-.144 1.909-1.204 1.77-2.367-.137-1.163-1.154-1.99-2.27-1.846-1.115.144-1.908 1.204-1.77 2.367s1.154 1.99 2.27 1.846m3.94-4.356c1.12 0 2.03-.948 2.03-2.116 0-1.17-.91-2.117-2.03-2.117-1.121 0-2.03.948-2.03 2.117 0 1.168.908 2.116 2.03 2.116m4.858-3.575c1.106 0 2.002-.935 2.002-2.088s-.896-2.088-2.002-2.088c-1.107 0-2.003.934-2.003 2.088s.896 2.088 2.002 2.088m5.375-2.612c1.107 0 2.004-.935 2.004-2.09s-.897-2.09-2.004-2.09-2.004.936-2.004 2.09.897 2.09 2.004 2.09m6.489-1.74c1.029-.44 1.522-1.666 1.101-2.74-.422-1.072-1.598-1.586-2.627-1.147s-1.522 1.665-1.101 2.739 1.597 1.587 2.627 1.148m5.147-.404c1.104 0 1.999-.933 1.999-2.085s-.895-2.084-1.999-2.084-2 .933-2 2.084.895 2.085 2 2.085m7.901-1.209c.177-1.148-.571-2.229-1.672-2.414s-2.137.595-2.314 1.742.57 2.229 1.671 2.414 2.137-.595 2.315-1.743m4.001 3.329c1.089-.156 1.851-1.203 1.701-2.339s-1.154-1.93-2.243-1.774-1.851 1.203-1.701 2.34c.149 1.135 1.154 1.93 2.243 1.773m6.522 2.023a2.147 2.147 0 0 0 0-2.948 1.94 1.94 0 0 0-2.827 0 2.147 2.147 0 0 0 0 2.948c.78.814 2.046.814 2.827 0m4.228 4.039c1.035-.453 1.523-1.695 1.089-2.775s-1.626-1.588-2.661-1.136-1.524 1.695-1.09 2.775 1.626 1.588 2.662 1.136m5.389 2.896c.26-1.14-.416-2.285-1.51-2.556-1.093-.271-2.191.434-2.451 1.574s.415 2.285 1.509 2.556c1.094.272 2.192-.433 2.452-1.574m1.42 6.67c1.11 0 2.009-.938 2.009-2.095s-.899-2.095-2.009-2.095-2.009.938-2.009 2.095.9 2.095 2.009 2.095m4.469 3.996c.257-1.128-.412-2.26-1.494-2.528s-2.167.428-2.425 1.557c-.257 1.128.411 2.26 1.493 2.528s2.168-.428 2.426-1.557m-.426 7.581c1.11 0 2.01-.939 2.01-2.096s-.9-2.096-2.01-2.096c-1.111 0-2.011.938-2.011 2.096 0 1.157.9 2.096 2.011 2.096m-73.195 5.864c.954 0 1.727-.806 1.727-1.8 0-.995-.773-1.801-1.727-1.801s-1.727.806-1.727 1.801.773 1.8 1.727 1.8m.442-6.143c.967 0 1.75-.817 1.75-1.825s-.783-1.825-1.75-1.825c-.966 0-1.75.817-1.75 1.825s.784 1.825 1.75 1.825m1.321-5.903c1.035 0 1.873-.874 1.873-1.953 0-1.078-.838-1.952-1.873-1.952-1.034 0-1.873.874-1.873 1.952 0 1.079.839 1.953 1.873 1.953m2.168-5.673c1.079 0 1.954-.912 1.954-2.038s-.875-2.037-1.954-2.037c-1.08 0-1.955.912-1.955 2.037s.875 2.038 1.955 2.038m4.935-7.195c.108-1.135-.687-2.147-1.776-2.26s-2.059.717-2.167 1.852.687 2.147 1.776 2.26 2.059-.717 2.167-1.852m1.729-3.058c1.047 0 1.896-.885 1.896-1.977 0-1.091-.849-1.976-1.896-1.976s-1.896.885-1.896 1.976c0 1.092.849 1.977 1.896 1.977m4.349-4.325c.984 0 1.783-.832 1.783-1.859 0-1.026-.799-1.859-1.783-1.859-.985 0-1.783.832-1.783 1.86 0 1.026.798 1.858 1.783 1.858m6.182-4.18a1.827 1.827 0 0 0-.162-2.502 1.653 1.653 0 0 0-2.4.17 1.827 1.827 0 0 0 .162 2.503 1.653 1.653 0 0 0 2.4-.17m4.063-1.993c.983 0 1.779-.83 1.779-1.854s-.796-1.854-1.778-1.854-1.778.83-1.778 1.854c0 1.023.796 1.853 1.778 1.853m5.669-1.678c1.058 0 1.916-.895 1.916-1.999 0-1.103-.858-1.998-1.916-1.998-1.059 0-1.917.895-1.917 1.998 0 1.104.858 1.999 1.917 1.999m5.865-.841c1.101 0 1.994-.931 1.994-2.08 0-1.148-.893-2.08-1.994-2.08-1.102 0-1.995.932-1.995 2.08s.893 2.08 1.995 2.08m5.933-.003c1.1 0 1.992-.93 1.992-2.077s-.892-2.077-1.992-2.077-1.992.93-1.992 2.077.892 2.077 1.992 2.077m7.717-.847c.165-1.07-.532-2.077-1.558-2.25-1.026-.172-1.991.555-2.157 1.624-.166 1.07.532 2.077 1.558 2.25 1.025.172 1.991-.555 2.157-1.624m3.818 3.359c.976 0 1.768-.825 1.768-1.843s-.792-1.844-1.768-1.844c-.977 0-1.768.825-1.768 1.844 0 1.018.791 1.843 1.768 1.843m5.343 2.62c.943 0 1.708-.797 1.708-1.78 0-.984-.765-1.78-1.708-1.78s-1.707.796-1.707 1.78c0 .983.764 1.78 1.707 1.78m6.646 2.004c.156-1.002-.497-1.945-1.457-2.108s-1.866.518-2.022 1.52c-.156 1 .497 1.945 1.457 2.107s1.866-.517 2.022-1.519m2.605 5.882c1.046 0 1.893-.884 1.893-1.975 0-1.09-.847-1.974-1.893-1.974s-1.894.884-1.894 1.974.848 1.975 1.894 1.975m3.699 4.941c1.101 0 1.994-.931 1.994-2.08 0-1.148-.893-2.079-1.994-2.079-1.102 0-1.995.931-1.995 2.08 0 1.148.893 2.079 1.995 2.079m4.205 4.854c.84-.714.966-2.004.281-2.88a1.91 1.91 0 0 0-2.761-.293c-.84.714-.966 2.003-.282 2.88a1.91 1.91 0 0 0 2.762.293m2.746 4.668c.258-1.046-.346-2.111-1.349-2.38-1.003-.27-2.025.361-2.283 1.406-.258 1.046.346 2.112 1.349 2.381s2.025-.361 2.283-1.407m1.261 5.848c.156-1.006-.5-1.953-1.465-2.116-.965-.162-1.873.521-2.029 1.527s.5 1.953 1.465 2.116c.964.162 1.873-.521 2.029-1.527m-1.316 7.663c.954 0 1.727-.806 1.727-1.8 0-.995-.773-1.801-1.727-1.801s-1.727.806-1.727 1.801.773 1.8 1.727 1.8m1.272 4.778c.217-.988-.375-1.972-1.323-2.198-.947-.227-1.891.39-2.108 1.378s.375 1.972 1.322 2.198c.947.227 1.891-.39 2.109-1.378m-1.208 6.058c.237-1.055-.391-2.111-1.404-2.359s-2.025.408-2.262 1.463.391 2.112 1.403 2.359c1.013.248 2.026-.407 2.263-1.463m-3.994 7.372c1.088 0 1.969-.919 1.969-2.052s-.881-2.053-1.969-2.053c-1.087 0-1.969.919-1.969 2.053s.882 2.052 1.969 2.052m-2.965 5.373c1.096 0 1.984-.926 1.984-2.069s-.888-2.07-1.984-2.07-1.985.927-1.985 2.07.888 2.069 1.985 2.069m-3.701 4.729c1.039 0 1.882-.879 1.882-1.962s-.843-1.962-1.882-1.962-1.881.879-1.881 1.962.842 1.962 1.881 1.962m-3.1 3.547c.69-.719.69-1.884 0-2.602a1.713 1.713 0 0 0-2.495 0 1.896 1.896 0 0 0 0 2.602 1.714 1.714 0 0 0 2.495 0m-6.149 3.966c.945 0 1.711-.798 1.711-1.784 0-.985-.766-1.784-1.711-1.784s-1.711.799-1.711 1.784c0 .986.766 1.784 1.711 1.784m-5.345 2.75c.98 0 1.774-.829 1.774-1.85s-.794-1.85-1.774-1.85-1.774.828-1.774 1.85c0 1.021.794 1.85 1.774 1.85m-3.835.416c.24-1.057-.389-2.117-1.403-2.367s-2.031.406-2.271 1.463c-.239 1.058.389 2.118 1.404 2.368 1.014.249 2.031-.406 2.27-1.464m-7.699 2.562c1.104 0 1.998-.933 1.998-2.083s-.894-2.084-1.998-2.084c-1.103 0-1.998.933-1.998 2.084 0 1.15.895 2.083 1.998 2.083m-5.933-.001c1.103 0 1.997-.932 1.997-2.082s-.894-2.082-1.997-2.082-1.997.932-1.997 2.082.894 2.082 1.997 2.082m-5.865-1.006c1.058 0 1.916-.894 1.916-1.998s-.858-1.998-1.916-1.998c-1.059 0-1.917.894-1.917 1.998s.858 1.998 1.917 1.998m-5.67-1.968c.983 0 1.779-.83 1.779-1.853s-.796-1.854-1.778-1.854-1.778.83-1.778 1.854c0 1.023.796 1.853 1.778 1.853m-5.344-2.756c.943 0 1.707-.797 1.707-1.781s-.764-1.78-1.707-1.78-1.708.797-1.708 1.78c0 .984.765 1.781 1.708 1.781m-4.902-3.415c.98 0 1.774-.828 1.774-1.85s-.794-1.85-1.774-1.85-1.774.828-1.774 1.85.794 1.85 1.774 1.85m-4.349-4.08c1.047 0 1.896-.885 1.896-1.977s-.849-1.977-1.896-1.977-1.896.885-1.896 1.977.849 1.977 1.896 1.977m-3.698-4.75c1.093 0 1.979-.924 1.979-2.063s-.886-2.063-1.979-2.063-1.978.923-1.978 2.063c0 1.139.886 2.063 1.978 2.063m-1.054-6.937c.25-1.1-.401-2.203-1.456-2.465-1.055-.261-2.113.418-2.364 1.518-.25 1.099.401 2.203 1.456 2.464s2.113-.417 2.364-1.517m-4.08-4.283c1.037 0 1.878-.876 1.878-1.957 0-1.082-.84-1.958-1.878-1.958s-1.877.876-1.877 1.958.84 1.957 1.877 1.957m-1.32-6.172c.961 0 1.741-.813 1.741-1.816s-.78-1.816-1.742-1.816c-.961 0-1.741.813-1.741 1.816s.78 1.816 1.742 1.816m84.608-6.501c.786 0 1.422-.664 1.422-1.483 0-.818-.636-1.482-1.422-1.482s-1.421.664-1.421 1.482c0 .819.636 1.483 1.421 1.483m1.222 4.965c.143-.925-.46-1.796-1.347-1.946s-1.722.48-1.866 1.405c-.143.925.46 1.796 1.347 1.945s1.722-.479 1.866-1.404m-2.767 7.786c1.055 0 1.911-.892 1.911-1.992s-.856-1.992-1.911-1.992-1.91.891-1.91 1.992.855 1.992 1.91 1.992m-1.907 5.66c.95 0 1.72-.803 1.72-1.794s-.77-1.794-1.72-1.794c-.951 0-1.721.803-1.721 1.794s.77 1.794 1.721 1.794m-1.635 4.787a1.503 1.503 0 0 0 0-2.064 1.36 1.36 0 0 0-1.979 0 1.503 1.503 0 0 0 0 2.064c.546.57 1.433.57 1.979 0m-4.287 5.909c.952 0 1.723-.805 1.723-1.797s-.771-1.797-1.723-1.797-1.723.805-1.723 1.797.771 1.797 1.723 1.797m-3.911 4.856c1.06 0 1.92-.896 1.92-2.002s-.86-2.002-1.92-2.002-1.92.896-1.92 2.002.859 2.002 1.92 2.002m-2.875 2.762c.363-.913-.053-1.96-.929-2.339-.876-.378-1.881.056-2.243.969-.363.914.053 1.961.929 2.339.876.379 1.88-.055 2.243-.969m-6.52 4.206c.77 0 1.394-.651 1.394-1.453 0-.803-.624-1.454-1.394-1.454s-1.394.651-1.394 1.454.624 1.453 1.394 1.453m-5.321 3.067c.945 0 1.711-.799 1.711-1.784s-.766-1.784-1.711-1.784-1.711.799-1.711 1.784.766 1.784 1.711 1.784m-3.765.653c.242-1.07-.393-2.141-1.419-2.394-1.025-.252-2.053.41-2.295 1.48-.242 1.069.393 2.14 1.419 2.393 1.025.252 2.053-.41 2.295-1.479m-6.51 1.97a1.766 1.766 0 0 0 0-2.424 1.6 1.6 0 0 0-2.325 0 1.764 1.764 0 0 0 0 2.424c.642.67 1.683.67 2.325 0m-7.084.642c.767 0 1.39-.649 1.39-1.449 0-.801-.623-1.449-1.39-1.449-.768 0-1.39.648-1.39 1.449 0 .8.622 1.449 1.39 1.449m-4.34-1.472c.206-.912-.335-1.825-1.209-2.04s-1.75.349-1.956 1.261.335 1.824 1.209 2.039 1.749-.349 1.956-1.26m-7.401.397c1.052 0 1.905-.889 1.905-1.986s-.853-1.986-1.905-1.986-1.904.889-1.904 1.986.852 1.986 1.904 1.986m-5.618-2.204c.938 0 1.698-.792 1.698-1.77s-.76-1.77-1.698-1.77-1.697.792-1.697 1.77.76 1.77 1.697 1.77m-5.323-3.048c.773 0 1.4-.653 1.4-1.458 0-.806-.627-1.459-1.4-1.459s-1.398.653-1.398 1.459c0 .805.626 1.458 1.399 1.458m-4.933-3.092c.956 0 1.73-.808 1.73-1.804 0-.997-.774-1.804-1.73-1.804s-1.73.807-1.73 1.804c0 .996.774 1.804 1.73 1.804m-4.462-3.873c1.064 0 1.927-.9 1.927-2.01s-.863-2.01-1.927-2.01-1.928.9-1.928 2.01.863 2.01 1.928 2.01m-2.701-5.399a1.84 1.84 0 0 0 0-2.523 1.66 1.66 0 0 0-2.42 0 1.84 1.84 0 0 0 0 2.523 1.66 1.66 0 0 0 2.42 0m-4.506-4.956c.768 0 1.39-.649 1.39-1.45s-.622-1.451-1.39-1.451c-.769 0-1.392.65-1.392 1.451s.623 1.45 1.392 1.45m-.969-6.6c.218-.955-.349-1.913-1.265-2.14s-1.835.363-2.053 1.319c-.217.955.35 1.913 1.265 2.14.916.227 1.836-.363 2.053-1.319m-3.564-4.265c1.055 0 1.91-.892 1.91-1.992s-.855-1.992-1.91-1.992-1.91.891-1.91 1.992.855 1.992 1.91 1.992m.448-7.779c.144-.922-.456-1.791-1.34-1.942-.885-.15-1.719.476-1.863 1.398s.456 1.791 1.34 1.941 1.718-.475 1.863-1.397m-.598-6.226c.125-.806-.4-1.564-1.172-1.694-.773-.13-1.5.417-1.625 1.222-.125.806.4 1.564 1.173 1.694.772.131 1.5-.417 1.624-1.222m.134-5.21a1.736 1.736 0 0 0 0-2.383 1.57 1.57 0 0 0-2.286 0 1.736 1.736 0 0 0 0 2.383 1.57 1.57 0 0 0 2.286 0m.017-5.266c1.055 0 1.911-.893 1.911-1.994s-.856-1.993-1.912-1.993c-1.055 0-1.911.892-1.911 1.993s.856 1.994 1.912 1.994m2.557-6.207c.872-.373 1.29-1.413.932-2.323s-1.355-1.345-2.228-.972c-.872.373-1.29 1.413-.932 2.323s1.356 1.345 2.228.972m1.974-5.734c.773 0 1.4-.654 1.4-1.46s-.627-1.46-1.4-1.46-1.4.654-1.4 1.46.627 1.46 1.4 1.46m4.982-6.27c.174-.969-.44-1.9-1.369-2.08s-1.822.46-1.995 1.428c-.172.969.44 1.9 1.37 2.08s1.822-.46 1.995-1.428m2.225-2.958c1.074 0 1.945-.907 1.945-2.027s-.87-2.027-1.945-2.027c-1.074 0-1.944.907-1.944 2.027s.87 2.028 1.944 2.028m6.146-5.683c.22-.967-.353-1.938-1.28-2.168-.928-.23-1.86.368-2.08 1.335-.22.968.353 1.939 1.28 2.169.929.23 1.86-.368 2.08-1.336m3.248-2.408c.77 0 1.394-.651 1.394-1.454s-.624-1.453-1.393-1.453c-.77 0-1.394.65-1.394 1.453s.624 1.454 1.394 1.454m6.521-2.94c.662-.69.662-1.81 0-2.5a1.647 1.647 0 0 0-2.398 0 1.82 1.82 0 0 0 0 2.5c.662.69 1.736.69 2.398 0m6.316-2.955c.147-1.088-.581-2.094-1.625-2.246-1.043-.153-2.008.606-2.154 1.694s.582 2.094 1.625 2.246 2.008-.606 2.154-1.694m3.923.198c.894 0 1.619-.756 1.619-1.688s-.725-1.688-1.619-1.688-1.619.756-1.619 1.688.725 1.688 1.619 1.688m5.92-.632c.774 0 1.401-.654 1.401-1.46 0-.807-.627-1.461-1.401-1.461s-1.401.654-1.401 1.46c0 .807.627 1.461 1.401 1.461m5.922.664c.911 0 1.65-.77 1.65-1.72s-.739-1.72-1.65-1.72-1.65.77-1.65 1.72.739 1.72 1.65 1.72m7.663-.059c.243-1.067-.389-2.137-1.411-2.39s-2.049.406-2.292 1.472.389 2.136 1.411 2.39c1.023.253 2.049-.406 2.292-1.472m3.775 3.318c.945 0 1.711-.799 1.711-1.784s-.766-1.784-1.711-1.784-1.711.799-1.711 1.784c0 .986.766 1.784 1.711 1.784m5.32 2.401c.767 0 1.389-.649 1.389-1.449s-.622-1.448-1.389-1.448-1.389.649-1.389 1.448c0 .8.622 1.448 1.389 1.448m6.148 3.256a1.844 1.844 0 0 0 0-2.532 1.67 1.67 0 0 0-2.428 0 1.844 1.844 0 0 0 0 2.532c.671.7 1.758.7 2.428 0m3.248 4.82c1.062 0 1.923-.899 1.923-2.007s-.861-2.006-1.923-2.006-1.924.898-1.924 2.006.861 2.006 1.924 2.006m3.911 4.448c.955 0 1.73-.807 1.73-1.803s-.775-1.803-1.73-1.803-1.729.807-1.729 1.803.774 1.803 1.729 1.803m3.839 4.687c.716-.311 1.054-1.17.755-1.916s-1.122-1.098-1.837-.787c-.716.312-1.054 1.17-.755 1.916.299.747 1.122 1.099 1.837.787m3.761 4.603c.208-.964-.371-1.92-1.295-2.138s-1.842.386-2.051 1.35c-.208.963.371 1.92 1.295 2.137s1.842-.386 2.051-1.35m.229 7.445c1.052 0 1.904-.889 1.904-1.986s-.852-1.985-1.904-1.985-1.905.889-1.905 1.985.853 1.986 1.905 1.986m2.747 4.479c.205-.91-.336-1.82-1.209-2.033-.872-.214-1.745.35-1.95 1.26-.205.909.337 1.82 1.209 2.033.872.214 1.745-.351 1.95-1.26m-97.593 6.976c.635 0 1.15-.537 1.15-1.199 0-.663-.515-1.2-1.15-1.2s-1.15.537-1.15 1.2.515 1.199 1.15 1.199m1.023-5.689c.894-.39 1.315-1.462.94-2.395-.373-.932-1.401-1.371-2.295-.981s-1.316 1.462-.942 2.394 1.403 1.372 2.297.982m.352-5.869c1.013 0 1.834-.856 1.834-1.912s-.821-1.912-1.834-1.912-1.834.856-1.834 1.912.821 1.912 1.834 1.912m2.823-7.559c.146-.645-.236-1.291-.854-1.444-.619-.153-1.239.246-1.385.89-.147.645.236 1.292.854 1.444.618.153 1.238-.245 1.385-.89m3.021-5.668c.16-1.033-.514-2.006-1.506-2.173-.991-.167-1.924.535-2.084 1.57-.16 1.033.514 2.006 1.505 2.173.991.166 1.924-.536 2.084-1.57m1.177-3.745c1.01 0 1.83-.854 1.83-1.908s-.82-1.908-1.83-1.908-1.83.854-1.83 1.908.819 1.908 1.83 1.908m4.644-6.594c.143-.631-.231-1.264-.837-1.414-.605-.15-1.212.24-1.355.872-.144.63.23 1.264.836 1.413.605.15 1.212-.24 1.355-.871m2.973-2.904c.992 0 1.796-.839 1.796-1.873s-.804-1.873-1.796-1.873-1.796.838-1.796 1.873c0 1.034.804 1.873 1.796 1.873m4.546-4.058c.95 0 1.72-.803 1.72-1.793s-.77-1.793-1.72-1.793-1.72.803-1.72 1.793.77 1.793 1.72 1.793m6.068-4.919c.144-.638-.236-1.277-.847-1.427-.612-.15-1.225.246-1.369.884s.236 1.277.847 1.427c.612.15 1.225-.246 1.37-.884m5.891-2.636c.22-.978-.362-1.958-1.3-2.187-.939-.23-1.878.378-2.098 1.356s.362 1.957 1.3 2.187c.94.23 1.878-.378 2.098-1.356m3.878-.683c.98 0 1.773-.828 1.773-1.849s-.794-1.849-1.773-1.849c-.98 0-1.773.828-1.773 1.85 0 1.02.794 1.848 1.773 1.848m5.775-2.092c.626 0 1.134-.53 1.134-1.183 0-.654-.508-1.183-1.134-1.183-.627 0-1.135.53-1.135 1.183s.508 1.183 1.135 1.183m7.016-.508c.733-.645.826-1.788.207-2.553a1.69 1.69 0 0 0-2.449-.216c-.733.645-.826 1.788-.207 2.553a1.69 1.69 0 0 0 2.449.216m4.812.427c.964 0 1.745-.815 1.745-1.82s-.781-1.82-1.745-1.82-1.745.815-1.745 1.82.781 1.82 1.745 1.82m5.894.101c.638 0 1.154-.539 1.154-1.203 0-.665-.516-1.204-1.154-1.204s-1.154.54-1.154 1.204.517 1.203 1.154 1.203m5.775 2.062c.974 0 1.763-.823 1.763-1.839 0-1.015-.789-1.838-1.763-1.838s-1.764.823-1.764 1.838.79 1.839 1.764 1.839m7.33.535c.137-1.01-.539-1.946-1.508-2.088-.97-.143-1.867.561-2.003 1.572s.538 1.946 1.508 2.089c.97.142 1.867-.562 2.003-1.573m4.353 3.359a1.22 1.22 0 0 0 0-1.678 1.106 1.106 0 0 0-1.61 0 1.224 1.224 0 0 0 0 1.678 1.106 1.106 0 0 0 1.61 0m5.847 2.987c.221-.97-.354-1.942-1.283-2.172-.93-.23-1.863.368-2.084 1.338s.353 1.942 1.283 2.173c.93.23 1.863-.37 2.084-1.339m3.548 5.266c.916-.4 1.347-1.497.964-2.451-.384-.954-1.436-1.404-2.351-1.004s-1.346 1.497-.963 2.45c.383.955 1.435 1.404 2.35 1.005m3.811 3.888c.575-.25.847-.94.607-1.54-.24-.599-.901-.883-1.476-.632-.575.25-.847.938-.607 1.538s.9.884 1.476.634m3.818 5.628c.936-.409 1.376-1.53.985-2.506-.392-.975-1.468-1.435-2.403-1.026-.936.408-1.377 1.53-.985 2.505.392.976 1.468 1.435 2.403 1.027m3.991 4.187c.309-.991-.21-2.057-1.161-2.38s-1.973.22-2.283 1.21c-.31.992.21 2.058 1.161 2.38.951.324 1.973-.218 2.283-1.21m1.435 5.938c.45-.47.45-1.232 0-1.702a1.12 1.12 0 0 0-1.632 0 1.24 1.24 0 0 0 0 1.701c.45.47 1.181.47 1.632 0m.887 6.992c1.014 0 1.836-.857 1.836-1.915 0-1.057-.822-1.914-1.836-1.914s-1.836.857-1.836 1.914c0 1.058.822 1.915 1.836 1.915m1.694 5.81c.873-.381 1.285-1.427.919-2.338-.365-.91-1.369-1.339-2.242-.958s-1.284 1.428-.919 2.338 1.369 1.339 2.242.958m-.32 5.749c.638 0 1.154-.539 1.154-1.203 0-.665-.516-1.204-1.154-1.204s-1.154.539-1.154 1.204.517 1.203 1.154 1.203m.857 6.304c.697-.69.726-1.839.064-2.567a1.69 1.69 0 0 0-2.462-.067 1.87 1.87 0 0 0-.064 2.567 1.69 1.69 0 0 0 2.462.067m-2.231 6.681c1.016 0 1.84-.859 1.84-1.918 0-1.06-.824-1.919-1.84-1.919s-1.84.859-1.84 1.919c0 1.059.823 1.918 1.84 1.918m-.842 4.802a1.235 1.235 0 0 0-.097-1.693 1.117 1.117 0 0 0-1.624.101 1.235 1.235 0 0 0 .097 1.693c.475.44 1.202.395 1.624-.101m-3.212 6.775c.998 0 1.808-.844 1.808-1.885 0-1.042-.81-1.886-1.808-1.886-.999 0-1.809.844-1.809 1.886s.81 1.885 1.809 1.885m-1.189 3.904c.232-1.025-.377-2.053-1.361-2.295s-1.969.393-2.202 1.419c-.232 1.025.377 2.053 1.361 2.295s1.97-.393 2.202-1.419m-4.888 5.625c.579-.25.854-.942.614-1.546-.239-.603-.903-.89-1.482-.64s-.854.942-.614 1.546.903.89 1.482.64m-2.838 4.088c.355-.957-.102-2.034-1.02-2.404-.919-.37-1.951.106-2.306 1.063-.355.958.102 2.034 1.02 2.405.918.37 1.951-.106 2.306-1.064m-6.214 5.094c.951 0 1.723-.805 1.723-1.797s-.772-1.797-1.723-1.797-1.724.805-1.724 1.797.772 1.797 1.724 1.797m-4.521 2.703c.582-.252.859-.948.618-1.556-.242-.607-.91-.896-1.492-.644-.583.251-.86.948-.618 1.555.241.608.909.896 1.492.645m-3.983 1.981c.157-1.009-.5-1.959-1.467-2.123-.967-.163-1.879.522-2.036 1.53s.5 1.959 1.467 2.123c.968.163 1.879-.522 2.036-1.53m-7.335 3.654c.976 0 1.767-.825 1.767-1.842s-.791-1.843-1.767-1.843-1.767.825-1.767 1.843c0 1.017.792 1.842 1.767 1.842m-5.773.785c.635 0 1.15-.537 1.15-1.2s-.515-1.199-1.15-1.199c-.636 0-1.151.537-1.151 1.199 0 .663.515 1.2 1.151 1.2m-5.894 1.344c.967 0 1.751-.817 1.751-1.826 0-1.008-.784-1.826-1.751-1.826s-1.751.818-1.751 1.826.784 1.826 1.751 1.826m-4.706-.544a1.867 1.867 0 0 0 0-2.563 1.69 1.69 0 0 0-2.458 0 1.87 1.87 0 0 0 0 2.563 1.69 1.69 0 0 0 2.458 0m-7.122-.813c.628 0 1.138-.531 1.138-1.187 0-.655-.51-1.187-1.138-1.187-.629 0-1.139.532-1.139 1.187 0 .656.51 1.187 1.139 1.187m-5.776-.764c.98 0 1.774-.829 1.774-1.85s-.795-1.85-1.775-1.85-1.774.828-1.774 1.85c0 1.021.794 1.85 1.775 1.85m-4.907-2.281c.893-.386 1.316-1.452.947-2.382s-1.393-1.373-2.285-.987c-.892.385-1.316 1.452-.947 2.382s1.393 1.372 2.285.987m-4.854-4.194c.145-.645-.238-1.291-.856-1.443s-1.238.247-1.384.892.237 1.291.856 1.443c.618.152 1.238-.247 1.383-.892m-6.075-1.89c.941 0 1.704-.796 1.704-1.778s-.763-1.778-1.704-1.778c-.942 0-1.705.796-1.705 1.778s.763 1.778 1.705 1.778m-4.546-3.892c.988 0 1.788-.834 1.788-1.864 0-1.029-.8-1.864-1.788-1.864-.987 0-1.787.835-1.787 1.864s.8 1.864 1.787 1.864m-2.955-6.168c.1-.642-.318-1.247-.934-1.352s-1.197.332-1.296.974c-.1.643.318 1.248.934 1.352s1.196-.332 1.296-.974m-2.899-4.732c.23-1.016-.373-2.033-1.347-2.273-.974-.239-1.95.39-2.18 1.405s.373 2.033 1.347 2.273 1.95-.389 2.18-1.405m-2.928-5.498c.158-1.039-.523-2.014-1.52-2.178-.996-.164-1.931.545-2.088 1.584s.523 2.014 1.52 2.178c.996.164 1.931-.545 2.088-1.584m-3.037-5.69c.153-.643-.222-1.294-.838-1.454-.617-.16-1.241.231-1.395.874-.154.642.221 1.293.838 1.454.617.16 1.24-.231 1.395-.874m-2.816-4.305c1.007 0 1.824-.852 1.824-1.902s-.817-1.902-1.824-1.902-1.824.852-1.824 1.902.816 1.902 1.824 1.902m-.351-6.285c.903-.394 1.33-1.477.951-2.419-.378-.942-1.417-1.386-2.32-.992s-1.329 1.478-.95 2.419c.377.942 1.416 1.386 2.32.992m107.357-7.153a1.023 1.023 0 0 0 .047-1.404.925.925 0 0 0-1.346-.048 1.023 1.023 0 0 0-.047 1.403.925.925 0 0 0 1.346.049m.251 6.71c.67-.699.67-1.832 0-2.53a1.667 1.667 0 0 0-2.427 0c-.67.698-.67 1.831.001 2.53.67.699 1.756.699 2.426 0m-1.222 5.868a1.435 1.435 0 0 0 .051-1.97 1.3 1.3 0 0 0-1.889-.053 1.435 1.435 0 0 0-.051 1.97 1.297 1.297 0 0 0 1.889.053m-2.456 6.296c.709 0 1.284-.6 1.284-1.339 0-.74-.575-1.339-1.284-1.339s-1.284.599-1.284 1.339c0 .739.575 1.339 1.284 1.339m-2.126 6.27c.97 0 1.757-.82 1.757-1.832s-.787-1.833-1.757-1.833c-.971 0-1.758.821-1.758 1.833s.787 1.832 1.758 1.832m-2.694 4.674c.526 0 .952-.445.952-.993s-.426-.993-.952-.993-.952.445-.952.993.426.993.952.993m-3.233 5.963c.936 0 1.694-.79 1.694-1.766 0-.975-.758-1.766-1.694-1.766s-1.694.791-1.694 1.766c0 .976.758 1.766 1.694 1.766m-3.073 4.15c.591-.381.774-1.189.409-1.805a1.23 1.23 0 0 0-1.731-.426c-.591.381-.774 1.189-.408 1.805.365.616 1.14.807 1.73.426m-3.975 4.191a1.344 1.344 0 0 0 0-1.842 1.215 1.215 0 0 0-1.767 0 1.34 1.34 0 0 0 0 1.842 1.215 1.215 0 0 0 1.767 0m-5.496 4.718c.925 0 1.675-.781 1.675-1.746 0-.964-.75-1.746-1.675-1.746s-1.674.782-1.674 1.746c0 .965.749 1.746 1.674 1.746m-4.977 2.61c.522 0 .945-.441.945-.985s-.423-.986-.945-.986c-.521 0-.944.442-.944.986s.423.985.944.985m-4.052 3.115a1.88 1.88 0 0 0 0-2.58 1.7 1.7 0 0 0-2.474 0 1.88 1.88 0 0 0 0 2.58 1.7 1.7 0 0 0 2.474 0m-6.778 2.275c.713 0 1.292-.603 1.292-1.348 0-.744-.579-1.347-1.292-1.347s-1.293.603-1.293 1.347c0 .745.579 1.348 1.293 1.348m-5.22 1.545c.684-.295 1.009-1.113.726-1.826-.284-.713-1.068-1.051-1.751-.756-.684.295-1.009 1.113-.726 1.826s1.067 1.051 1.751.756m-5.73 1.298c.859-.371 1.268-1.398.912-2.294s-1.342-1.322-2.201-.951-1.268 1.399-.912 2.295 1.342 1.321 2.201.95m-6.572-.315c.521 0 .943-.44.943-.982 0-.543-.422-.983-.943-.983s-.942.44-.942.983.422.982.942.982m-4.721-.051a1.83 1.83 0 0 0 0-2.512 1.655 1.655 0 0 0-2.41 0 1.83 1.83 0 0 0 0 2.512 1.655 1.655 0 0 0 2.41 0m-5.777-1.996c.116-.742-.367-1.441-1.079-1.561-.711-.121-1.381.383-1.497 1.125-.115.741.368 1.44 1.08 1.561.71.12 1.38-.384 1.496-1.125m-7.023-.503c.702 0 1.271-.593 1.271-1.326 0-.732-.57-1.326-1.272-1.326s-1.272.594-1.272 1.326.57 1.326 1.272 1.326m-4.868-1.85c.897-.387 1.323-1.459.951-2.394-.371-.935-1.399-1.379-2.296-.992-.896.388-1.322 1.46-.95 2.394.37.935 1.399 1.379 2.295.992m-5.291-3.807a1.015 1.015 0 0 0 0-1.393.917.917 0 0 0-1.337 0 1.015 1.015 0 0 0 0 1.393.917.917 0 0 0 1.336 0m-3.966-3.926c.077-.968-.614-1.817-1.542-1.897s-1.743.639-1.82 1.607.613 1.818 1.542 1.898c.928.08 1.743-.64 1.82-1.608m-5.078-3.743c.158-.7-.257-1.402-.929-1.567-.671-.165-1.344.268-1.502.968-.159.7.257 1.402.928 1.567.672.165 1.344-.268 1.503-.968m-4.873-3.503c.617-.309.876-1.081.58-1.724s-1.037-.914-1.654-.605-.876 1.081-.58 1.724 1.037.914 1.654.605m-4.272-4.189c.945 0 1.712-.799 1.712-1.785s-.767-1.786-1.712-1.786c-.946 0-1.713.8-1.713 1.786s.767 1.785 1.713 1.785m-3.233-5.99c.522 0 .945-.441.945-.985s-.423-.985-.945-.985c-.521 0-.944.441-.944.985s.422.985.944.985m-2.695-4.666c.97 0 1.757-.82 1.757-1.832s-.787-1.833-1.757-1.833-1.757.821-1.757 1.833.786 1.832 1.757 1.832m-1.833-6.3c.692-.169 1.121-.892.959-1.614s-.856-1.17-1.549-1c-.692.17-1.121.892-.959 1.614s.856 1.17 1.548 1m-1.828-5.884c.742 0 1.345-.628 1.345-1.403 0-.774-.602-1.402-1.345-1.402s-1.345.628-1.345 1.402c0 .775.602 1.403 1.345 1.403m-.928-5.715c.953 0 1.725-.806 1.725-1.799 0-.994-.772-1.8-1.725-1.8s-1.726.806-1.726 1.8c0 .993.773 1.799 1.726 1.799m-.312-6.99c.524 0 .949-.443.949-.989 0-.547-.425-.989-.949-.989-.523 0-.948.442-.948.989s.425.989.948.989m.312-5.377c.95 0 1.72-.802 1.72-1.793s-.77-1.793-1.72-1.793-1.72.803-1.72 1.793c0 .991.77 1.793 1.72 1.793m.927-6.501c.743 0 1.346-.628 1.346-1.403 0-.776-.603-1.404-1.346-1.404s-1.346.628-1.346 1.404.602 1.403 1.346 1.403m2.025-6.148c.654-.28.966-1.061.697-1.743s-1.017-1.008-1.671-.727c-.654.28-.966 1.06-.697 1.742.268.683 1.017 1.008 1.67.728m1.64-5.181c.969 0 1.754-.819 1.754-1.829s-.785-1.828-1.754-1.828c-.968 0-1.754.819-1.754 1.828s.786 1.829 1.754 1.829m2.694-6.357c.522 0 .945-.44.945-.985s-.423-.985-.945-.985c-.521 0-.944.441-.944.985s.422.985.944.985M63.7 81.31c.949 0 1.719-.803 1.719-1.793s-.77-1.793-1.72-1.793-1.72.803-1.72 1.793.77 1.793 1.72 1.793m4.941-6.306c.158-.695-.254-1.391-.92-1.556-.666-.164-1.334.265-1.492.96-.158.694.254 1.39.92 1.555.666.164 1.334-.265 1.492-.96m4.204-4.379c.158-.7-.258-1.4-.93-1.565-.671-.165-1.344.27-1.501.97-.158.7.258 1.4.93 1.565.671.165 1.343-.27 1.501-.97m3.4-2.38c.957 0 1.732-.809 1.732-1.806s-.775-1.806-1.732-1.806c-.956 0-1.731.809-1.731 1.806s.775 1.806 1.731 1.806m5.339-4.261c.482-.21.71-.786.51-1.289-.201-.502-.755-.74-1.236-.53-.482.209-.71.785-.51 1.288.201.502.755.74 1.236.53m4.927-1.896c.968 0 1.753-.819 1.753-1.828s-.785-1.829-1.754-1.829c-.968 0-1.753.819-1.753 1.829s.785 1.828 1.754 1.828m5.54-2.718c.703 0 1.273-.595 1.273-1.328s-.57-1.328-1.273-1.328c-.704 0-1.274.595-1.274 1.328s.57 1.328 1.274 1.328m7.027-2.708c.116-.745-.368-1.446-1.082-1.567-.713-.12-1.385.384-1.502 1.127-.116.744.368 1.445 1.082 1.566.713.122 1.385-.383 1.502-1.127m6.249-.936c.135-.969-.509-1.868-1.438-2.009s-1.792.53-1.927 1.5c-.135.969.509 1.868 1.438 2.009s1.792-.531 1.927-1.5m4.246.402c.518 0 .938-.438.938-.979s-.42-.979-.938-.979c-.519 0-.939.438-.939.98 0 .54.42.978.939.978m6.893.793c.766-.556.955-1.654.422-2.454-.533-.799-1.586-.996-2.353-.44-.766.556-.955 1.654-.422 2.453.533.8 1.586.997 2.353.44m6.227-.25c.118-.761-.378-1.479-1.109-1.602s-1.419.394-1.537 1.156.378 1.48 1.109 1.603 1.419-.395 1.537-1.157m4.401 2.725c.716 0 1.297-.606 1.297-1.352s-.581-1.352-1.297-1.352-1.296.605-1.296 1.352c0 .746.58 1.352 1.296 1.352m7.25 1.294c.223-.98-.358-1.965-1.298-2.197-.94-.233-1.884.372-2.107 1.353-.224.98.357 1.964 1.298 2.197.94.233 1.883-.373 2.107-1.353m4.502 2.531c.084-.538-.267-1.045-.783-1.132-.515-.087-1.001.279-1.085.816-.083.538.267 1.045.783 1.132s1.002-.279 1.085-.816m4.055 5.016c.951 0 1.722-.804 1.722-1.795 0-.992-.771-1.796-1.722-1.796s-1.722.804-1.722 1.796c0 .991.771 1.795 1.722 1.795m5.488 3.013a1.33 1.33 0 0 0 0-1.827 1.204 1.204 0 0 0-1.753 0 1.33 1.33 0 0 0 0 1.827 1.204 1.204 0 0 0 1.753 0m3.477 4.738c.683-.088 1.168-.736 1.084-1.448-.085-.711-.706-1.217-1.389-1.13-.682.089-1.167.737-1.083 1.449.084.711.706 1.217 1.388 1.13m3.579 5.295c.934 0 1.691-.79 1.691-1.763s-.757-1.762-1.691-1.762c-.933 0-1.69.789-1.69 1.762 0 .974.757 1.763 1.69 1.763m3.233 4.42c.526 0 .952-.445.952-.993s-.426-.993-.952-.993-.952.445-.952.993.426.993.952.993m4.408 4.97c.235-.982-.339-1.977-1.282-2.221-.942-.245-1.896.354-2.131 1.337s.34 1.977 1.283 2.221c.942.245 1.896-.354 2.13-1.337m.412 6.663c.708 0 1.281-.598 1.281-1.336 0-.737-.573-1.335-1.281-1.335-.707 0-1.28.598-1.28 1.335 0 .738.573 1.335 1.28 1.335m1.537 6.041c.741 0 1.341-.626 1.341-1.398 0-.773-.6-1.399-1.341-1.399s-1.342.626-1.342 1.399c0 .772.601 1.398 1.342 1.398m2.614 5.003c.151-.968-.479-1.881-1.407-2.039-.929-.158-1.805.499-1.956 1.468-.152.968.479 1.881 1.407 2.039.929.158 1.805-.499 1.956-1.468M47.2 113.396c.462 0 .836.389.836.871 0 .481-.373.871-.835.871s-.836-.39-.836-.871c0-.482.374-.871.836-.871m.282-3.614c.898 0 1.627-.76 1.627-1.697s-.729-1.697-1.627-1.697c-.899 0-1.627.76-1.627 1.697s.728 1.697 1.627 1.697m1.769-7.659c.083-.53-.263-1.03-.771-1.116-.509-.085-.988.275-1.07.805s.263 1.03.771 1.115c.509.086.988-.274 1.07-.804m.475-4.543c.866 0 1.567-.732 1.567-1.635 0-.902-.701-1.634-1.567-1.634s-1.568.732-1.568 1.634c0 .903.702 1.635 1.568 1.635m2.984-7.23c.135-.601-.222-1.203-.798-1.344s-1.152.231-1.288.832c-.135.6.222 1.202.798 1.343s1.153-.231 1.288-.832m1.423-4.527c.717 0 1.299-.607 1.299-1.355 0-.747-.582-1.354-1.3-1.354-.717 0-1.298.607-1.298 1.355 0 .747.581 1.354 1.299 1.354m2.969-5.313c.742 0 1.343-.627 1.343-1.401s-.601-1.401-1.343-1.401c-.743 0-1.344.627-1.344 1.4 0 .775.601 1.402 1.344 1.402m4.164-5.69a1.1 1.1 0 0 0 0-1.507.99.99 0 0 0-1.445 0 1.1 1.1 0 0 0 0 1.507.99.99 0 0 0 1.445 0m3.165-3.82c.852 0 1.543-.72 1.543-1.61 0-.888-.69-1.608-1.543-1.608-.852 0-1.543.72-1.543 1.609 0 .888.69 1.609 1.543 1.609m4.638-5.039c.45-.194.663-.733.476-1.203a.87.87 0 0 0-1.155-.496c-.45.196-.663.735-.475 1.204a.87.87 0 0 0 1.154.496m5.935-4.279c.21-.93-.344-1.86-1.236-2.079-.892-.218-1.785.36-1.994 1.29-.209.929.344 1.86 1.236 2.078s1.785-.36 1.994-1.289m3.382-2.864c.462 0 .836-.39.836-.87 0-.482-.374-.872-.836-.872s-.835.39-.835.871.374.871.835.871m5.276-1.978c.916 0 1.659-.774 1.659-1.73 0-.954-.743-1.729-1.66-1.729-.915 0-1.658.775-1.658 1.73s.743 1.73 1.659 1.73m5.509-3.107c.49 0 .886-.414.886-.923s-.397-.923-.886-.923-.885.413-.885.923.396.923.885.923m5.696-1.092c.834 0 1.51-.705 1.51-1.575s-.676-1.575-1.51-1.575-1.51.705-1.51 1.575.676 1.575 1.51 1.575m5.827-1.624c.594 0 1.075-.502 1.075-1.121 0-.62-.481-1.121-1.075-1.121s-1.075.502-1.075 1.12c0 .62.481 1.122 1.075 1.122m7.16-1.404c.165-.724-.265-1.45-.96-1.623-.694-.171-1.391.277-1.556 1.001-.164.724.265 1.45.96 1.623.695.171 1.391-.277 1.556-1.001m4.848 1.058c.726-.093 1.242-.783 1.152-1.54-.089-.756-.75-1.294-1.476-1.2-.726.093-1.242.782-1.152 1.539.089.757.751 1.295 1.476 1.201m5.744.356c.599 0 1.085-.507 1.085-1.131 0-.625-.486-1.131-1.085-1.131s-1.085.506-1.085 1.13c0 .625.486 1.132 1.085 1.132m7.325.406c.194-.861-.318-1.723-1.144-1.925s-1.652.332-1.846 1.193.318 1.723 1.144 1.925 1.652-.332 1.846-1.193m4.2 2.297c.487 0 .883-.412.883-.92 0-.509-.396-.92-.883-.92-.488 0-.883.411-.883.92 0 .508.395.92.883.92m6.944 2.237c.456-.829.182-1.886-.612-2.361-.795-.476-1.809-.19-2.265.638s-.182 1.886.612 2.361c.795.476 1.809.19 2.265-.638m3.841 1.108c.461 0 .836.39.836.871 0 .482-.374.871-.836.871s-.835-.389-.835-.87c0-.483.373-.872.835-.872m4.994 5.967c.926 0 1.678-.783 1.678-1.75 0-.966-.752-1.75-1.678-1.75-.927 0-1.679.784-1.679 1.75 0 .967.752 1.75 1.679 1.75m4.664 2.997c.488 0 .883-.413.883-.92 0-.51-.395-.922-.883-.922-.487 0-.883.413-.883.921s.396.92.883.92m5.796 3.717c.194-.862-.319-1.726-1.146-1.928-.827-.203-1.655.332-1.849 1.195-.194.862.319 1.726 1.146 1.928.827.203 1.655-.333 1.849-1.195m2.388 5.372c.562 0 1.018-.476 1.018-1.062s-.456-1.061-1.018-1.061-1.018.475-1.018 1.061.456 1.061 1.018 1.061m3.443 5.384c.743 0 1.346-.628 1.346-1.403 0-.776-.603-1.404-1.346-1.404s-1.347.628-1.347 1.404.603 1.403 1.347 1.403m4.259 4.178c.116-.742-.367-1.44-1.078-1.561s-1.382.382-1.498 1.124c-.115.741.367 1.44 1.079 1.561.711.121 1.381-.382 1.497-1.124m1.931 6.197a1.15 1.15 0 0 0 0-1.58 1.04 1.04 0 0 0-1.515 0 1.15 1.15 0 0 0 0 1.58 1.04 1.04 0 0 0 1.515 0m1.184 6.69c.864 0 1.564-.73 1.564-1.63 0-.901-.7-1.631-1.564-1.631-.863 0-1.563.73-1.563 1.63s.7 1.631 1.563 1.631m1.4 5.356c.515 0 .932-.436.932-.973s-.417-.972-.932-.972-.933.435-.933.972.417.973.933.973m.844 6.857c.903 0 1.634-.763 1.634-1.704s-.731-1.704-1.634-1.704-1.635.763-1.635 1.704.732 1.704 1.635 1.704m.284 3.607c.461 0 .835.389.835.871 0 .481-.373.871-.835.871s-.836-.39-.836-.871c0-.482.374-.871.836-.871m-.284 8.751c.9 0 1.629-.76 1.629-1.699 0-.938-.729-1.699-1.629-1.699s-1.63.761-1.63 1.699.73 1.699 1.63 1.699m-.188 5.112a1 1 0 0 0 0-1.37.9.9 0 0 0-1.314 0 1 1 0 0 0 0 1.37.903.903 0 0 0 1.314 0m-.542 5.712c.197-.868-.317-1.738-1.149-1.944s-1.666.33-1.864 1.198c-.197.867.317 1.737 1.149 1.943s1.666-.33 1.864-1.197m-3.455 6.581c.591 0 1.069-.499 1.069-1.115 0-.615-.478-1.114-1.069-1.114-.59 0-1.069.499-1.069 1.114s.479 1.115 1.069 1.115m-2.466 5.884c.726 0 1.315-.613 1.315-1.37s-.589-1.371-1.315-1.371-1.315.614-1.315 1.371.589 1.37 1.315 1.37m-2.968 5.387c.74 0 1.34-.626 1.34-1.398s-.6-1.397-1.34-1.397-1.34.626-1.34 1.397c0 .772.6 1.398 1.34 1.398m-3.442 4.705c.562 0 1.018-.475 1.018-1.061s-.456-1.061-1.018-1.061-1.018.475-1.018 1.061.456 1.061 1.018 1.061m-2.359 3.881c.136-.877-.435-1.702-1.276-1.845-.84-.142-1.632.453-1.769 1.33-.136.876.435 1.702 1.275 1.844.841.143 1.633-.453 1.77-1.329m-5.825 4.926c.488 0 .883-.413.883-.921s-.395-.921-.883-.921c-.487 0-.883.413-.883.921s.396.921.883.921m-4.664 4.64c.919 0 1.665-.777 1.665-1.735s-.746-1.736-1.665-1.736c-.92 0-1.665.777-1.665 1.736 0 .958.745 1.735 1.665 1.735m-4.994.74c.461 0 .836.389.836.871s-.374.871-.836.871-.835-.389-.835-.871.373-.871.835-.871m-4.102 4.93a1.784 1.784 0 0 0 0-2.446 1.61 1.61 0 0 0-2.346 0 1.78 1.78 0 0 0 0 2.446 1.61 1.61 0 0 0 2.346 0m-6.683 1.998c.487 0 .883-.412.883-.92 0-.509-.396-.921-.883-.921-.488 0-.883.412-.883.921 0 .508.395.92.883.92m-4.175 1.088c.136-.874-.433-1.696-1.27-1.838s-1.626.451-1.762 1.324.432 1.696 1.27 1.838c.837.141 1.626-.451 1.762-1.324m-7.35 2.036c.599 0 1.085-.506 1.085-1.131 0-.624-.486-1.131-1.085-1.131s-1.085.507-1.085 1.131c0 .625.486 1.131 1.085 1.131m-4.972.434a1.42 1.42 0 0 0 0-1.953 1.285 1.285 0 0 0-1.873 0 1.423 1.423 0 0 0 0 1.953 1.287 1.287 0 0 0 1.873 0m-6.871.374c.715 0 1.295-.605 1.295-1.35s-.58-1.351-1.295-1.351c-.716 0-1.295.605-1.295 1.351 0 .745.579 1.35 1.295 1.35m-5.909-.818c.594 0 1.075-.502 1.075-1.121s-.481-1.121-1.075-1.121-1.075.502-1.075 1.121.481 1.121 1.075 1.121m-5.251-.843c.767-.331 1.132-1.249.814-2.049s-1.198-1.18-1.966-.849c-.767.332-1.132 1.249-.814 2.05s1.198 1.18 1.966.848m-6.272-2.265c.491 0 .89-.415.89-.927s-.399-.927-.89-.927c-.49 0-.889.415-.889.927s.398.927.89.927m-5.51-1.497c.916 0 1.659-.774 1.659-1.73 0-.955-.743-1.729-1.66-1.729-.915 0-1.658.774-1.658 1.729s.743 1.73 1.659 1.73m-5.276-3.695c.462 0 .836-.39.836-.871s-.374-.871-.836-.871-.835.39-.835.871.374.871.835.871m-3.813-2.988a1.79 1.79 0 0 0 0-2.46 1.62 1.62 0 0 0-2.36 0 1.79 1.79 0 0 0 0 2.46 1.62 1.62 0 0 0 2.36 0m-5.847-5.972c.485 0 .88.411.88.917s-.395.917-.88.917-.88-.411-.88-.917.395-.917.88-.917m-3.705-1.868c.787-.34 1.16-1.281.834-2.101s-1.228-1.21-2.014-.87c-.787.34-1.16 1.28-.835 2.101.326.82 1.228 1.21 2.015.87m-3.463-6.023c.08-.586-.31-1.129-.871-1.214-.562-.084-1.083.323-1.164.908-.08.586.31 1.129.871 1.213.562.085 1.083-.322 1.164-.907m-3.945-3.89c.684-.295 1.009-1.113.726-1.826-.284-.713-1.068-1.051-1.751-.756-.684.296-1.009 1.113-.726 1.826.284.713 1.068 1.051 1.751.756m-2.98-5.39c.668-.289.985-1.087.708-1.783-.276-.696-1.042-1.027-1.71-.738s-.984 1.086-.707 1.782c.276.697 1.042 1.027 1.71.739m-2.966-5.768c.594 0 1.075-.502 1.075-1.121s-.481-1.121-1.075-1.121-1.075.502-1.075 1.121.481 1.121 1.075 1.121m-1.943-5.35c.858 0 1.554-.725 1.554-1.62s-.696-1.621-1.554-1.621-1.554.726-1.554 1.621.696 1.62 1.554 1.62m-.481-7.47c.082-.527-.261-1.023-.766-1.108-.506-.085-.981.273-1.063.799-.082.527.261 1.023.766 1.109.505.085.981-.273 1.063-.8m-1.762-4.593c.898 0 1.627-.76 1.627-1.697s-.729-1.697-1.627-1.697c-.899 0-1.627.76-1.627 1.697s.728 1.697 1.627 1.697m130.129-7.243a.62.62 0 0 0 .609-.635.623.623 0 0 0-.609-.636.623.623 0 0 0-.609.636c0 .35.273.635.609.635m.322 7.018c.78-.334 1.153-1.263.833-2.076s-1.212-1.202-1.992-.868-1.152 1.263-.832 2.076 1.212 1.202 1.991.868m-1.355 5.302a.623.623 0 0 0 .609-.636.623.623 0 0 0-.609-.635.623.623 0 0 0-.609.635c0 .351.273.636.609.636m-1.284 7.02c.855 0 1.548-.722 1.548-1.614 0-.891-.693-1.614-1.548-1.614s-1.548.723-1.548 1.614.693 1.614 1.548 1.614m-1.786 4.938c.344 0 .623-.29.623-.649a.636.636 0 0 0-.623-.649.635.635 0 0 0-.622.649c0 .359.278.649.622.649m-2.271 6.703c.866 0 1.568-.732 1.568-1.635 0-.902-.702-1.634-1.568-1.634-.865 0-1.567.732-1.567 1.634 0 .903.702 1.635 1.567 1.635m-2.741 4.491a.62.62 0 0 0 .609-.635.62.62 0 0 0-.609-.635.62.62 0 0 0-.609.635c0 .351.272.635.609.635m-3.19 6.195c.854 0 1.546-.721 1.546-1.611s-.692-1.612-1.546-1.612c-.853 0-1.545.722-1.545 1.612s.692 1.611 1.545 1.611m-3.613 3.952a.64.64 0 0 0 .625-.652.64.64 0 0 0-.625-.652.64.64 0 0 0-.625.652c0 .36.28.652.625.652m-2.466 4.283c.202-.892-.328-1.786-1.184-1.997-.855-.21-1.713.342-1.915 1.235-.202.892.328 1.786 1.184 1.996.856.211 1.713-.342 1.915-1.234m-5.92 4.461a.64.64 0 0 0 .625-.652.64.64 0 0 0-.625-.652.64.64 0 0 0-.625.652c0 .36.279.652.625.652m-3.214 3.475c.196-.864-.318-1.73-1.147-1.934-.828-.204-1.659.331-1.854 1.196-.196.864.317 1.73 1.146 1.934s1.659-.332 1.855-1.196m-6.502 3.601a.62.62 0 0 0 .609-.635.62.62 0 0 0-.609-.635.623.623 0 0 0-.61.635c0 .351.273.635.61.635m-4.169 3.365a1.664 1.664 0 0 0 0-2.284 1.505 1.505 0 0 0-2.191 0 1.664 1.664 0 0 0 0 2.284 1.505 1.505 0 0 0 2.191 0m-6.58 1.876a.637.637 0 0 0 .623-.649.637.637 0 0 0-.623-.65.636.636 0 0 0-.622.65c0 .358.278.649.622.649m-5.072 2.694c.785-.339 1.158-1.278.833-2.097-.326-.819-1.226-1.208-2.012-.869-.785.339-1.158 1.278-.833 2.097s1.226 1.208 2.012.869m-6.385.496a.626.626 0 0 0 .613-.639.626.626 0 0 0-.613-.639.627.627 0 0 0-.613.639c0 .353.275.639.613.639m-5.299 1.642c.781-.337 1.152-1.27.828-2.084s-1.218-1.201-1.999-.864c-.78.338-1.151 1.271-.828 2.085s1.219 1.2 1.999.863m-6.516-.564a.627.627 0 0 0 .613-.639.627.627 0 0 0-.613-.639.626.626 0 0 0-.613.639c0 .353.274.639.613.639m-4.416-.646c.135-.869-.431-1.689-1.265-1.83s-1.62.45-1.755 1.319c-.136.87.431 1.689 1.265 1.83s1.62-.449 1.755-1.319m-7.398-.436a.62.62 0 0 0 .609-.635.62.62 0 0 0-.61-.635.62.62 0 0 0-.609.635c0 .351.273.635.61.635m-4.276-1.71c.136-.873-.433-1.697-1.27-1.839-.839-.141-1.629.452-1.764 1.326-.136.873.432 1.697 1.27 1.839s1.628-.452 1.764-1.326m-7.181-2.775c.344 0 .623.291.623.65a.636.636 0 0 1-.623.649.636.636 0 0 1-.622-.649c0-.359.278-.65.622-.65m-5.483-.103c.856 0 1.55-.724 1.55-1.616s-.694-1.615-1.55-1.615-1.55.723-1.55 1.615.694 1.616 1.55 1.616m-5.267-3.839c.337 0 .61-.284.61-.635a.62.62 0 0 0-.61-.635.62.62 0 0 0-.609.635c0 .351.273.635.61.635m-4.813-2.369c.846-.108 1.447-.911 1.342-1.792s-.873-1.508-1.718-1.399c-.846.108-1.447.911-1.343 1.792s.874 1.508 1.72 1.399m-4.904-6.008c.344 0 .622.29.622.649a.636.636 0 0 1-.622.649.636.636 0 0 1-.623-.649c0-.359.278-.649.623-.649m-3.278-2.389a1.667 1.667 0 0 0 0-2.288 1.507 1.507 0 0 0-2.194 0 1.667 1.667 0 0 0 0 2.288 1.507 1.507 0 0 0 2.194 0m-5.108-5.063a.63.63 0 0 0 .616-.643.63.63 0 0 0-.616-.643.63.63 0 0 0-.617.643.63.63 0 0 0 .617.643m-3.613-3.916c.868 0 1.571-.733 1.571-1.638s-.703-1.638-1.571-1.638-1.571.733-1.571 1.638.703 1.638 1.57 1.638m-3.189-7.494c.337 0 .61.286.61.636s-.274.635-.61.635a.624.624 0 0 1-.609-.635c0-.35.274-.636.61-.636m-2.741-3.229c.86 0 1.557-.728 1.557-1.625s-.697-1.624-1.557-1.624-1.558.727-1.558 1.624.697 1.625 1.558 1.625m-2.272-7.985a.63.63 0 0 1 .617.643.63.63 0 0 1-.617.643.63.63 0 0 1-.616-.643.63.63 0 0 1 .616-.643m-1.784-3.621c.867 0 1.57-.734 1.57-1.639 0-.904-.703-1.638-1.57-1.638s-1.572.734-1.572 1.638c0 .905.704 1.639 1.572 1.639m-1.286-8.311c.333 0 .603.282.603.629s-.27.629-.603.629a.616.616 0 0 1-.603-.629c0-.347.27-.629.603-.629m-.775-3.922c.84 0 1.52-.709 1.52-1.585 0-.875-.68-1.585-1.52-1.585s-1.52.71-1.52 1.585c0 .876.68 1.585 1.52 1.585m-.259-7.132c.337 0 .61-.285.61-.635a.623.623 0 0 0-.61-.636.623.623 0 0 0-.61.636c0 .35.274.635.61.635m.259-5.232c.84 0 1.521-.71 1.521-1.586s-.68-1.586-1.521-1.586-1.521.71-1.521 1.586.68 1.586 1.52 1.586m.776-8.359c.337 0 .61.286.61.636s-.274.635-.61.635a.624.624 0 0 1-.609-.635c0-.35.274-.636.61-.636m1.895-3.891c.803-.35 1.182-1.314.846-2.152s-1.26-1.233-2.064-.883c-.803.35-1.182 1.314-.846 2.152s1.26 1.233 2.063.883m1.175-8.067c.344 0 .623.29.623.65a.636.636 0 0 1-.623.648.636.636 0 0 1-.622-.649c0-.359.278-.649.622-.649m2.272-3.443c.86 0 1.557-.728 1.557-1.625s-.697-1.624-1.557-1.624-1.558.727-1.558 1.624.697 1.624 1.558 1.624m2.74-7.749c.337 0 .61.285.61.634s-.274.636-.61.636a.624.624 0 0 1-.609-.636c0-.35.274-.635.61-.635m4.735-4.269c.166-.89-.392-1.753-1.245-1.926s-1.68.408-1.847 1.298c-.166.89.391 1.752 1.245 1.926s1.68-.408 1.847-1.299m2.067-5.874c.344 0 .623.29.623.65a.637.637 0 0 1-.623.649.636.636 0 0 1-.623-.65c0-.359.279-.649.623-.649m5.547-3.659c.138-.887-.44-1.724-1.29-1.868-.852-.145-1.654.458-1.793 1.345-.138.888.44 1.724 1.29 1.869.851.144 1.654-.458 1.792-1.346m2.84-5.085c.344 0 .622.29.622.65a.635.635 0 0 1-.622.648.636.636 0 0 1-.623-.649c0-.359.278-.649.623-.649m5.903-2.074a1.666 1.666 0 0 0-.196-2.279 1.51 1.51 0 0 0-2.186.205 1.666 1.666 0 0 0 .197 2.279c.657.573 1.636.48 2.185-.205m3.812-3.735c.337 0 .61-.284.61-.635a.623.623 0 0 0-.61-.635.623.623 0 0 0-.609.635c0 .351.273.635.61.635m5.266-1.869c.86 0 1.558-.727 1.558-1.624s-.698-1.624-1.558-1.624-1.558.727-1.558 1.624.697 1.624 1.558 1.624m5.483-4.64c.344 0 .623.29.623.649s-.279.65-.623.65a.636.636 0 0 1-.622-.65c0-.359.278-.65.622-.65m5.66.39c.849 0 1.537-.717 1.537-1.602 0-.884-.688-1.601-1.536-1.601s-1.536.717-1.536 1.601c0 .885.688 1.602 1.536 1.602m5.796-3.577c.337 0 .609.285.609.635s-.274.635-.61.635a.624.624 0 0 1-.609-.635c0-.35.274-.635.61-.635m6.476 1.313c.783-.34 1.153-1.279.825-2.095-.327-.816-1.226-1.201-2.009-.86s-1.152 1.279-.825 2.095 1.227 1.201 2.009.86m5.338-2.395c.338 0 .613.287.613.64a.627.627 0 0 1-.613.638.627.627 0 0 1-.613-.639c0-.352.275-.639.613-.639m7.014 2.039a1.645 1.645 0 0 0 0-2.26 1.49 1.49 0 0 0-2.167 0 1.647 1.647 0 0 0 0 2.26 1.49 1.49 0 0 0 2.167 0m4.801-.961c.338 0 .613.287.613.64a.627.627 0 0 1-.613.638.627.627 0 0 1-.613-.639c0-.352.275-.639.613-.639m7.288 2.344c.193-.86-.318-1.719-1.142-1.92-.824-.202-1.649.33-1.842 1.19s.318 1.719 1.142 1.92c.823.202 1.648-.331 1.842-1.19m4.168 2.139a.63.63 0 0 0 .617-.643.63.63 0 0 0-.617-.643.63.63 0 0 0-.616.643.63.63 0 0 0 .616.642m6.084 3.212c.793-.345 1.166-1.295.835-2.121s-1.242-1.217-2.035-.871c-.793.345-1.166 1.295-.835 2.122.331.826 1.242 1.216 2.035.87m4.666 2.007a.623.623 0 0 0 .609-.635.623.623 0 0 0-.609-.635.623.623 0 0 0-.61.635c0 .351.273.635.61.635m6.507 3.058c.194-.863-.32-1.727-1.147-1.93-.828-.202-1.657.333-1.851 1.197-.194.863.319 1.727 1.147 1.93s1.656-.334 1.851-1.197m3.208 2.751c.344 0 .623.29.623.65a.636.636 0 0 1-.623.648.636.636 0 0 1-.622-.649c0-.359.278-.649.622-.649m4.986 6.349c.805-.351 1.185-1.317.848-2.157s-1.263-1.236-2.068-.885-1.186 1.317-.849 2.157 1.263 1.236 2.069.885m3.401 2.393c.346 0 .625.291.625.651s-.279.652-.625.652a.64.64 0 0 1-.625-.652c0-.36.28-.651.625-.651m3.613 7.173c.854 0 1.546-.722 1.546-1.612s-.692-1.612-1.546-1.612c-.853 0-1.545.722-1.545 1.612s.692 1.612 1.545 1.612m3.19 2.974c.337 0 .609.285.609.634s-.273.636-.609.636a.623.623 0 0 1-.609-.636c0-.35.273-.635.609-.635m2.74 7.765c.869 0 1.573-.734 1.573-1.64s-.704-1.639-1.573-1.639c-.868 0-1.572.734-1.572 1.64s.704 1.64 1.572 1.64m2.272 3.428c.345 0 .623.29.623.65a.635.635 0 0 1-.623.648.636.636 0 0 1-.622-.649c0-.359.278-.649.622-.649m2.273 8.101c.813-.282 1.254-1.198.983-2.046-.27-.848-1.148-1.307-1.961-1.026-.814.282-1.254 1.198-.984 2.046s1.148 1.307 1.962 1.026m.797 5.128a.623.623 0 0 0 .609-.635.623.623 0 0 0-.609-.636.623.623 0 0 0-.609.636c0 .35.273.635.609.635m.775 7.094c.843 0 1.527-.713 1.527-1.592s-.684-1.593-1.527-1.593c-.844 0-1.528.713-1.528 1.593 0 .879.684 1.592 1.528 1.592M35.86 114.599a.326.326 0 0 0 .32-.332.326.326 0 0 0-.32-.333.326.326 0 0 0-.318.333c0 .183.143.332.319.332m.239-5.138c.73 0 1.321-.617 1.321-1.379 0-.761-.592-1.378-1.322-1.378s-1.322.617-1.322 1.378c0 .762.592 1.379 1.322 1.379m.716-7.843c.17 0 .307.144.307.32a.313.313 0 0 1-.307.319.313.313 0 0 1-.306-.319c0-.176.137-.32.306-.32m1.187-4.533c.642 0 1.162-.542 1.162-1.21 0-.67-.52-1.212-1.162-1.212s-1.161.543-1.161 1.211c0 .669.52 1.211 1.161 1.211m1.652-7.65c.261 0 .473.22.473.493a.483.483 0 0 1-.473.494.483.483 0 0 1-.473-.493c0-.273.211-.494.473-.494m2.497-4.298c.525-.228.774-.857.555-1.404-.219-.548-.822-.807-1.347-.578-.525.228-.773.856-.555 1.404.22.547.822.806 1.347.578m2.153-7.239c.345 0 .625.292.625.652s-.28.651-.625.651a.64.64 0 0 1-.625-.651c0-.36.28-.652.625-.652m2.967-4.032a.66.66 0 0 0 .648-.676.66.66 0 0 0-.648-.676.66.66 0 0 0-.648.676c0 .373.29.676.648.676m3.372-4.708c.562 0 1.018-.476 1.018-1.062s-.456-1.061-1.018-1.061-1.018.475-1.018 1.061.456 1.061 1.018 1.061m3.754-6.307c.238 0 .431.202.431.45a.44.44 0 0 1-.431.45.44.44 0 0 1-.432-.45c0-.248.193-.45.432-.45m5.283-3.724c.153-.674-.247-1.35-.893-1.51s-1.295.258-1.448.931c-.153.674.247 1.35.893 1.51s1.294-.257 1.448-.93m3.273-4.729a.33.33 0 0 1 .322.336.33.33 0 0 1-.322.336.33.33 0 0 1-.322-.336.33.33 0 0 1 .322-.336m6.077-3.053c.174-.764-.28-1.531-1.013-1.713-.733-.181-1.468.291-1.642 1.056-.174.764.279 1.531 1.012 1.713.733.181 1.469-.292 1.643-1.056m3.685-3.96c.172 0 .31.145.31.323a.317.317 0 0 1-.31.324.317.317 0 0 1-.31-.324c0-.178.139-.323.31-.323m6.543-2.24c.166-.74-.274-1.48-.983-1.654-.71-.173-1.42.285-1.587 1.025-.166.74.274 1.48.983 1.654.71.174 1.42-.285 1.586-1.025m4.177-3.102c.192 0 .346.162.346.361 0 .2-.156.362-.347.362a.355.355 0 0 1-.346-.362c0-.199.156-.361.346-.361m5.631-.359c.656 0 1.188-.555 1.188-1.239s-.532-1.239-1.188-1.239-1.188.555-1.188 1.24c0 .683.532 1.238 1.188 1.238m5.763-3.174c.24 0 .435.203.435.454a.444.444 0 0 1-.435.454.444.444 0 0 1-.435-.454c0-.25.194-.454.435-.454m6.229.396c.49-.213.722-.8.518-1.31s-.767-.752-1.256-.54c-.49.213-.722.8-.518 1.31.204.511.766.753 1.256.54m5.548-2.133c.371 0 .67.313.67.699s-.301.698-.67.698-.67-.313-.67-.698c0-.386.3-.7.67-.7m5.935 1.391a.676.676 0 0 0 .662-.69.676.676 0 0 0-.662-.69c-.365 0-.661.309-.661.69s.296.69.661.69m5.916.792c.522 0 .944-.44.944-.984 0-.543-.422-.984-.944-.984-.521 0-.943.44-.943.984s.422.984.943.984m5.86.457c.237 0 .429-.2.429-.448a.44.44 0 0 0-.429-.447c-.237 0-.429.2-.429.447s.192.448.429.448m6.591 1.894a1.254 1.254 0 0 0 0-1.722 1.134 1.134 0 0 0-1.651 0 1.254 1.254 0 0 0 0 1.722 1.134 1.134 0 0 0 1.651 0m4.804.737c.192 0 .346.162.346.361 0 .2-.155.362-.346.362a.355.355 0 0 1-.347-.362c0-.199.156-.361.347-.361m5.461 4.167c.73 0 1.321-.618 1.321-1.379s-.591-1.378-1.321-1.378c-.731 0-1.322.617-1.322 1.378s.591 1.378 1.322 1.378m5.256 1.818a.313.313 0 0 0 .306-.32.313.313 0 0 0-.306-.32.313.313 0 0 0-.307.32c0 .176.137.32.307.32m5.781 4.152c.621-.441.781-1.324.358-1.972a1.327 1.327 0 0 0-1.891-.373c-.621.441-.781 1.324-.358 1.972s1.27.814 1.891.373m3.982 2.211c.181 0 .328.154.328.343a.336.336 0 0 1-.328.342.336.336 0 0 1-.329-.342c0-.189.147-.342.329-.342m4.443 5.689c.658 0 1.192-.556 1.192-1.242 0-.687-.534-1.243-1.192-1.243s-1.192.556-1.192 1.243c0 .686.534 1.242 1.192 1.242m4.112 2.762c.243 0 .442.206.442.46s-.199.46-.442.46a.45.45 0 0 1-.441-.46c0-.254.198-.46.441-.46m3.755 6.312c.56 0 1.014-.474 1.014-1.058s-.454-1.057-1.014-1.057c-.561 0-1.015.473-1.015 1.057s.454 1.058 1.015 1.058m3.372 4.722a.673.673 0 0 0 .658-.686.673.673 0 0 0-.658-.686.67.67 0 0 0-.658.686c0 .379.294.686.658.686m2.968 5.327a.64.64 0 0 0 .626-.654.64.64 0 0 0-.626-.653.64.64 0 0 0-.626.653c0 .361.28.653.626.653m2.543 6.022c.574 0 1.039-.484 1.039-1.083 0-.598-.465-1.082-1.039-1.082s-1.038.484-1.038 1.082.465 1.083 1.038 1.083m2.106 4.216a.48.48 0 0 1 .469.489c0 .27-.21.49-.469.49a.48.48 0 0 1-.469-.49c0-.27.21-.49.469-.49m1.652 7.661c.648 0 1.174-.55 1.174-1.226s-.526-1.225-1.174-1.225c-.649 0-1.175.549-1.175 1.225 0 .677.526 1.225 1.175 1.225m1.187 4.519c.169 0 .306.144.306.32a.313.313 0 0 1-.306.319.314.314 0 0 1-.307-.319c0-.176.138-.32.307-.32m.715 7.892c.756 0 1.37-.639 1.37-1.427 0-.789-.614-1.428-1.37-1.428s-1.369.639-1.369 1.428.613 1.427 1.369 1.427m.24 5.089a.326.326 0 0 0 .319-.332.326.326 0 0 0-.319-.333.325.325 0 0 0-.318.333c0 .183.142.332.318.332m1.117 6.094c.126-.779-.377-1.516-1.124-1.647-.746-.131-1.453.394-1.579 1.172s.378 1.515 1.124 1.647c.747.131 1.454-.394 1.579-1.172m-2.071 6.228a.32.32 0 0 0 .313-.326.32.32 0 0 0-.313-.326.32.32 0 0 0-.312.326c0 .18.14.326.312.326m-1.188 6.963c.648 0 1.174-.549 1.174-1.225 0-.677-.526-1.225-1.174-1.225-.649 0-1.175.548-1.175 1.225 0 .676.526 1.225 1.175 1.225m-1.652 4.231a.48.48 0 0 1 .469.489.48.48 0 0 1-.469.49.48.48 0 0 1-.469-.49c0-.27.21-.489.469-.489m-2.105 7.357c.572 0 1.036-.484 1.036-1.08s-.464-1.081-1.036-1.081-1.036.484-1.036 1.081c0 .596.464 1.08 1.036 1.08m-2.543 5.162a.64.64 0 0 0 .624-.651c0-.359-.28-.65-.624-.65a.637.637 0 0 0-.624.65c0 .36.279.651.624.651m-2.969 5.394c.362 0 .656-.307.656-.685s-.294-.685-.656-.685a.67.67 0 0 0-.657.685c0 .378.294.685.657.685m-2.384 4.646c.129-.573-.211-1.147-.76-1.282s-1.099.22-1.229.792c-.129.573.211 1.146.76 1.282.549.135 1.099-.22 1.229-.792m-4.743 4.097c.243 0 .442.206.442.46s-.199.46-.442.46a.45.45 0 0 1-.441-.46c0-.254.198-.46.441-.46m-4.112 6.167c.658 0 1.192-.556 1.192-1.242 0-.687-.534-1.243-1.192-1.243s-1.192.556-1.192 1.243c0 .686.534 1.242 1.192 1.242m-4.443 2.52c.181 0 .328.153.328.342a.335.335 0 0 1-.328.342.335.335 0 0 1-.329-.342c0-.189.147-.342.329-.342m-3.788 5.059a1.456 1.456 0 0 0 0-1.998 1.315 1.315 0 0 0-1.916 0 1.456 1.456 0 0 0 0 1.998 1.317 1.317 0 0 0 1.916 0m-5.975 2.629a.313.313 0 0 0 .306-.32.313.313 0 0 0-.306-.319.313.313 0 0 0-.307.319c0 .177.137.32.307.32m-5.256 3.938c.732 0 1.326-.619 1.326-1.382s-.594-1.382-1.326-1.382-1.325.619-1.325 1.382.593 1.382 1.325 1.382m-5.461.682c.192 0 .346.162.346.361 0 .2-.155.362-.346.362a.355.355 0 0 1-.347-.362c0-.199.156-.361.347-.361m-5.183 3.446c.596-.258.878-.97.632-1.591-.247-.621-.93-.916-1.526-.659-.595.258-.878.97-.632 1.591.247.621.93.916 1.526.659m-6.211.807a.44.44 0 0 0 .431-.45.44.44 0 0 0-.431-.45.44.44 0 0 0-.432.45c0 .249.193.45.432.45m-5.86 1.536c.526 0 .952-.445.952-.993s-.426-.993-.952-.993-.952.445-.952.993.426.993.952.993m-5.916-1.187c.367 0 .664.311.664.692 0 .382-.298.693-.664.693s-.664-.311-.664-.693.298-.692.664-.692m-5.936-.006c.371 0 .67.313.67.698 0 .386-.301.699-.67.699s-.67-.313-.67-.699.3-.698.67-.698m-5.918 1.21c.535 0 .969-.452.969-1.01 0-.559-.434-1.011-.969-1.011s-.97.452-.97 1.011.435 1.01.97 1.01m-5.86-1.553a.44.44 0 0 0 .432-.45.44.44 0 0 0-.432-.45.44.44 0 0 0-.431.45c0 .249.193.45.431.45m-5.312-.797c.6-.259.886-.977.637-1.604-.249-.626-.937-.923-1.538-.664-.6.26-.886.978-.637 1.604s.937.924 1.538.664m-6.08-3.46c.194 0 .35.164.35.366a.36.36 0 0 1-.35.365.36.36 0 0 1-.35-.365c0-.202.157-.366.35-.366m-5.462-.682c.73 0 1.322-.617 1.322-1.378s-.592-1.378-1.322-1.378-1.322.617-1.322 1.378.592 1.378 1.322 1.378m-5.256-3.934a.313.313 0 0 0 .306-.32.313.313 0 0 0-.306-.319.313.313 0 0 0-.307.319c0 .177.137.32.307.32m-5.016-2.213c.75 0 1.357-.634 1.357-1.415 0-.782-.608-1.415-1.357-1.415-.75 0-1.357.633-1.357 1.415 0 .781.607 1.415 1.357 1.415m-4.747-4.791a.335.335 0 0 0 .329-.342.335.335 0 0 0-.329-.342.335.335 0 0 0-.328.342c0 .189.147.342.328.342m-3.243-4.288c.08-.689-.39-1.317-1.05-1.402-.662-.085-1.264.405-1.346 1.095-.081.689.39 1.317 1.05 1.402.662.085 1.264-.405 1.345-1.095m-5.311-4.166a.45.45 0 0 0 .438-.457.447.447 0 0 0-.438-.456.447.447 0 0 0-.438.456c0 .252.196.457.438.457m-3.755-4.19c.562 0 1.018-.475 1.018-1.061s-.456-1.062-1.018-1.062-1.018.476-1.018 1.062.456 1.061 1.018 1.061m-3.372-5.479a.66.66 0 0 0 .648-.676.663.663 0 0 0-.648-.676.663.663 0 0 0-.648.676c0 .374.29.676.648.676m-2.967-5.371a.65.65 0 0 0 .637-.664.65.65 0 0 0-.637-.665.65.65 0 0 0-.637.665c0 .366.285.664.637.664m-1.817-5.496c.402-.42.402-1.1 0-1.519a1 1 0 0 0-1.457 0 1.107 1.107 0 0 0 0 1.519 1 1 0 0 0 1.457 0m-2.833-7.037a.48.48 0 0 1 .47.489.48.48 0 0 1-.47.49.48.48 0 0 1-.47-.49.48.48 0 0 1 .47-.489m-1.652-4.241c.643 0 1.165-.544 1.165-1.215s-.522-1.215-1.165-1.215c-.644 0-1.165.544-1.165 1.215s.521 1.215 1.165 1.215m-1.187-6.959c.17 0 .307-.143.307-.32a.313.313 0 0 0-.307-.319.313.313 0 0 0-.306.319c0 .177.137.32.306.32m-.716-5.099c.723 0 1.31-.611 1.31-1.365 0-.755-.587-1.366-1.31-1.366s-1.31.611-1.31 1.366c0 .754.587 1.365 1.31 1.365m152.854-7.566q.015.002.016.017a.016.016 0 0 1-.016.016q-.013-.002-.015-.016.002-.015.015-.017m-.221 7.352c.609 0 1.103-.515 1.103-1.15s-.494-1.15-1.103-1.15-1.103.515-1.103 1.15.494 1.15 1.103 1.15m-.666 5.131a.127.127 0 0 0 .125-.13.13.13 0 0 0-.125-.131.13.13 0 0 0-.126.131c0 .072.056.13.126.13m-1.105 5.287a.65.65 0 0 1 .638.664.65.65 0 0 1-.638.665.65.65 0 0 1-.637-.665.65.65 0 0 1 .637-.664m-1.536 6.025c.328 0 .594.277.594.618a.605.605 0 0 1-.594.617.605.605 0 0 1-.593-.617c0-.341.265-.618.593-.618m-1.959 6.307a.15.15 0 0 1 .147.154.15.15 0 0 1-.147.153.15.15 0 0 1-.148-.153c0-.085.066-.154.148-.154m-2.374 6.97c.606 0 1.097-.512 1.097-1.143 0-.632-.491-1.144-1.097-1.144s-1.097.512-1.097 1.144.491 1.143 1.097 1.143m-2.774 4.309q.017.002.018.019c0 .01-.008.019-.018.019s-.018-.009-.018-.019.008-.019.018-.019m-2.105 5.513c.138-.611-.224-1.223-.81-1.367s-1.173.234-1.311.845.225 1.223.81 1.367 1.173-.234 1.311-.845m-4.579 4.545c.097 0 .175.082.175.183a.18.18 0 0 1-.175.182.18.18 0 0 1-.175-.182.18.18 0 0 1 .175-.183m-3.871 4.187c.363 0 .659.308.659.687s-.296.687-.659.687-.659-.308-.659-.687.295-.687.659-.687m-4.199 4.379c.362 0 .655.307.655.684 0 .376-.294.683-.655.683s-.656-.307-.656-.683.295-.684.656-.684m-4.499 4.536c.098 0 .178.084.178.186 0 .103-.08.187-.178.187a.183.183 0 0 1-.179-.187c0-.102.08-.186.179-.186m-4.777 4.976c.59 0 1.068-.499 1.068-1.114s-.478-1.113-1.068-1.113c-.589 0-1.067.498-1.067 1.113s.478 1.114 1.067 1.114m-5.026 2.159a.02.02 0 0 1 .019.019.02.02 0 0 1-.019.019c-.009 0-.018-.009-.018-.019s.009-.019.018-.019m-5.248 4.03c.591 0 1.071-.5 1.071-1.117s-.48-1.118-1.071-1.118c-.592 0-1.072.501-1.072 1.118s.48 1.117 1.072 1.117m-5.441 1.194c.086 0 .157.074.157.164a.16.16 0 0 1-.157.163.16.16 0 0 1-.157-.163c0-.09.071-.164.157-.164m-5.604 2.823c.325 0 .59-.275.59-.615a.603.603 0 0 0-.59-.615.603.603 0 0 0-.59.615c0 .34.264.615.59.615m-5.734.329c.347 0 .631.295.631.659a.644.644 0 0 1-.631.658.644.644 0 0 1-.631-.658c0-.364.282-.659.631-.659m-5.831 1.939a.127.127 0 0 0 .125-.13.13.13 0 0 0-.125-.131.13.13 0 0 0-.126.131c0 .072.056.13.126.13m-4.838.815c.139-.614-.226-1.229-.815-1.374s-1.179.235-1.318.849.226 1.23.815 1.375c.589.144 1.179-.236 1.318-.85m-6.994-.041q.017.002.018.019c0 .01-.008.019-.018.019q-.017-.002-.018-.019c0-.01.008-.019.018-.019m-4.864-.021c.096-.614-.304-1.192-.893-1.292-.588-.1-1.143.317-1.239.931-.095.614.305 1.192.893 1.292.589.099 1.144-.317 1.239-.931m-6.968-1.012c.068 0 .122.057.122.127s-.054.127-.121.127a.125.125 0 0 1-.122-.127c0-.07.055-.127.122-.127m-5.833-1.696c.357 0 .647.302.647.674s-.29.675-.647.675a.66.66 0 0 1-.647-.675c0-.372.29-.674.647-.674m-5.734-.307c.33 0 .596-.278.596-.621a.61.61 0 0 0-.596-.621.61.61 0 0 0-.596.621c0 .343.267.621.596.621m-5.604-2.829c.087 0 .158.074.158.164a.16.16 0 0 1-.157.163.16.16 0 0 1-.157-.163c0-.09.07-.164.157-.164m-5.199-1.206c.582-.144.943-.752.805-1.36-.137-.607-.72-.983-1.303-.84-.582.144-.943.752-.806 1.359.138.608.721.984 1.304.841m-5.49-4.018q.016.002.018.019c0 .01-.009.019-.018.019q-.017-.002-.019-.019c-.002-.017.009-.019.019-.019m-3.98-3.089c.093-.602-.298-1.168-.875-1.266-.577-.097-1.12.311-1.214.912-.094.602.298 1.168.875 1.266s1.12-.311 1.214-.912m-5.824-3.68c.095 0 .173-.08.173-.18a.177.177 0 0 0-.173-.18.177.177 0 0 0-.173.18c0 .1.078.18.173.18m-4.499-4.908c.366 0 .663.309.663.691a.677.677 0 0 1-.663.691.677.677 0 0 1-.663-.691c0-.382.297-.691.663-.691m-4.199-4.357c.356 0 .644.301.644.671s-.288.671-.643.671a.66.66 0 0 1-.644-.671c0-.37.288-.671.644-.671m-3.872-4.207c.098 0 .179.084.179.186 0 .103-.08.187-.18.187a.183.183 0 0 1-.178-.187c0-.102.08-.186.179-.186m-3.525-3.68c.59 0 1.067-.498 1.067-1.113s-.477-1.113-1.067-1.113-1.068.498-1.068 1.113.478 1.113 1.068 1.113m-3.158-6.374q.017.002.018.019c0 .01-.008.019-.018.019s-.018-.009-.018-.019.008-.019.018-.019m-1.73-5.353c.06-.602-.36-1.141-.939-1.203-.577-.062-1.094.376-1.154.979-.06.602.361 1.141.939 1.203s1.095-.376 1.154-.979m-3.418-5.926a.15.15 0 0 1 .148.154.15.15 0 0 1-.148.153.15.15 0 0 1-.147-.153.15.15 0 0 1 .147-.154m-1.962-6.31c.33 0 .596.277.596.621a.61.61 0 0 1-.596.621.61.61 0 0 1-.596-.621c0-.344.266-.621.596-.621m-1.536-6.025c.355 0 .64.3.64.667a.654.654 0 0 1-.64.667.654.654 0 0 1-.639-.667c0-.367.287-.667.64-.667m-1.103-5.542c.067 0 .121.057.121.127a.124.124 0 0 1-.121.126.124.124 0 0 1-.122-.126c0-.07.055-.127.122-.127m-.665-4.863c.614 0 1.112-.519 1.112-1.16s-.498-1.16-1.112-1.16-1.113.519-1.113 1.16.498 1.16 1.113 1.16m-.223-7.362q.014.002.016.017a.02.02 0 0 1-.016.016.02.02 0 0 1-.016-.016q.001-.015.016-.017m.223-5.008c.614 0 1.112-.52 1.112-1.161 0-.64-.498-1.16-1.112-1.16s-1.113.52-1.113 1.16c0 .641.498 1.161 1.113 1.161m.665-7.439c.067 0 .121.058.121.127 0 .07-.054.127-.121.127a.125.125 0 0 1-.122-.127c0-.069.055-.127.122-.127m1.102-6.635c.36 0 .653.304.653.68s-.291.682-.653.682a.667.667 0 0 1-.653-.681c0-.377.292-.681.653-.681m1.537-5.913c.326 0 .59.276.59.615 0 .34-.264.615-.59.615a.6.6 0 0 1-.59-.615c0-.34.264-.615.59-.615m1.961-5.381a.15.15 0 0 1 .148.154.15.15 0 0 1-.148.153.15.15 0 0 1-.147-.153.15.15 0 0 1 .147-.154m2.373-4.41c.588 0 1.064-.497 1.064-1.11 0-.612-.476-1.11-1.064-1.11-.587 0-1.064.498-1.064 1.11s.477 1.11 1.064 1.11m2.774-6.594q.012 0 .012.012-.002.01-.012.012-.01-.001-.012-.012.001-.012.012-.013m3.56-4.199c.542-.233.8-.88.577-1.446-.223-.565-.843-.835-1.386-.602s-.8.88-.577 1.445.843.835 1.386.602m3.124-6.187c.094 0 .172.08.172.18s-.076.18-.172.18a.176.176 0 0 1-.173-.18c0-.1.077-.18.173-.18m3.871-5.186a.66.66 0 0 1 .647.674.66.66 0 0 1-.647.675.66.66 0 0 1-.647-.675.66.66 0 0 1 .647-.674m4.198-4.396c.368 0 .665.31.665.693s-.297.694-.665.694c-.367 0-.665-.311-.665-.694s.298-.694.665-.694m4.5-3.161a.18.18 0 0 0 .176-.182.18.18 0 0 0-.176-.183.18.18 0 0 0-.175.183c0 .1.079.182.175.182m5.834-3.681c.095-.61-.303-1.187-.889-1.286-.585-.1-1.138.315-1.233.926s.302 1.187.888 1.286c.586.1 1.139-.315 1.234-.926m3.97-3.489c.01 0 .018.009.018.019s-.009.019-.018.019c-.01 0-.019-.009-.019-.019s.009-.02.019-.02m5.66-1.849c.544-.237.801-.889.574-1.456-.227-.568-.852-.836-1.396-.6-.544.237-.802.89-.575 1.457s.852.835 1.397.599m5.028-3.661a.16.16 0 0 1 .158.164.16.16 0 0 1-.157.163.16.16 0 0 1-.157-.163c0-.09.07-.164.157-.164m5.603-2.503c.33 0 .596.278.596.621a.61.61 0 0 1-.596.622.61.61 0 0 1-.596-.621c0-.344.266-.622.596-.622m5.733-1.667c.364 0 .66.308.66.687s-.296.687-.66.687c-.363 0-.659-.308-.659-.687s.296-.687.66-.687m5.832-.585c.065 0 .116.055.116.12a.12.12 0 0 1-.115.121.12.12 0 0 1-.116-.12c0-.066.052-.12.115-.12m6.962-.395c.095-.614-.305-1.192-.894-1.291-.588-.1-1.143.317-1.238.931s.305 1.192.894 1.292c.588.1 1.143-.318 1.238-.932m4.87-.391q.017-.001.018-.019-.001-.017-.018-.019-.017.002-.018.02.001.017.018.018m7.007.393c.097-.622-.308-1.21-.905-1.31-.598-.102-1.161.32-1.258.944-.097.622.308 1.21.906 1.31.597.102 1.16-.32 1.257-.944m4.825.382c.069 0 .125.058.125.13s-.056.131-.125.131a.13.13 0 0 1-.126-.13c0-.073.056-.131.126-.131m5.832.618c.351 0 .637.297.637.664a.65.65 0 0 1-.637.664.65.65 0 0 1-.637-.664c0-.367.285-.665.637-.665m5.733 2.884a.605.605 0 0 0 .592-.618.605.605 0 0 0-.592-.617.605.605 0 0 0-.592.617c0 .341.265.618.592.618m5.604 1.577a.147.147 0 0 0 .144-.15.147.147 0 0 0-.144-.15.146.146 0 0 0-.143.15c0 .082.064.15.143.15m5.441 3.411c.575 0 1.042-.486 1.042-1.086s-.467-1.087-1.042-1.087c-.576 0-1.042.486-1.042 1.087 0 .6.466 1.086 1.042 1.086m5.248 1.787a.02.02 0 0 1 .019.019.02.02 0 0 1-.019.019c-.009 0-.018-.009-.018-.019s.009-.02.018-.02m5.026 4.44c.597 0 1.081-.505 1.081-1.127 0-.623-.484-1.128-1.081-1.128s-1.081.505-1.081 1.128.484 1.127 1.081 1.127m4.776 2.36c.1 0 .181.085.181.189a.185.185 0 0 1-.181.189.185.185 0 0 1-.181-.19c0-.103.081-.188.181-.188m4.5 3.543c.362 0 .655.307.655.683s-.294.684-.655.684-.656-.307-.656-.684.295-.683.656-.683m4.198 4.367c.367 0 .665.31.665.693s-.298.694-.665.694-.665-.31-.665-.694.298-.693.665-.693m3.873 5.565c.095 0 .172-.08.172-.18s-.077-.18-.172-.18a.176.176 0 0 0-.173.18c0 .1.077.18.173.18m4.592 5.014c.114-.614-.271-1.207-.86-1.326s-1.159.283-1.272.897c-.114.614.271 1.208.86 1.326.589.12 1.158-.282 1.272-.897m2.091 5.007q.017.002.018.019-.001.017-.018.019-.016-.002-.018-.02.002-.017.018-.018m3.83 5.749c.137-.61-.225-1.22-.81-1.363-.584-.143-1.17.235-1.307.844-.137.61.225 1.22.81 1.363.584.143 1.169-.235 1.307-.844m1.318 5.262a.15.15 0 0 1 .147.154.15.15 0 0 1-.147.153.15.15 0 0 1-.148-.153.15.15 0 0 1 .148-.154m1.961 5.388c.322 0 .583.272.583.608a.596.596 0 0 1-.583.609.596.596 0 0 1-.584-.609c0-.336.261-.608.584-.608m1.534 5.923a.65.65 0 0 1 .638.664.65.65 0 0 1-.638.664.65.65 0 0 1-.637-.664.65.65 0 0 1 .637-.664m1.106 6.618c.067 0 .122.058.122.127 0 .07-.055.127-.122.127a.125.125 0 0 1-.122-.127c0-.069.055-.127.122-.127m.665 7.428c.609 0 1.103-.515 1.103-1.15s-.494-1.15-1.103-1.15-1.103.515-1.103 1.15.494 1.15 1.103 1.15m-164.005-1.983c.441 0 .799.373.799.833 0 .461-.358.833-.8.833-.44 0-.798-.372-.798-.833s.357-.833.799-.833m.621-5.353c.016 0 .029.012.029.029a.03.03 0 0 1-.029.029.03.03 0 0 1-.028-.029c0-.017.012-.029.028-.029m1.032-5.977c.046 0 .084-.04.084-.09a.087.087 0 0 0-.085-.088.087.087 0 0 0-.085.089c0 .049.038.089.085.089m1.435-5.243c.452 0 .817-.381.817-.852 0-.47-.365-.852-.817-.852s-.817.382-.817.852.366.852.817.852m4.059-13.225c.396 0 .717.334.717.747 0 .414-.32.748-.717.748s-.718-.334-.718-.748c0-.413.321-.748.718-.748m2.603-4.744a.07.07 0 0 0 .069-.072.07.07 0 0 0-.07-.072.07.07 0 0 0-.069.072c0 .04.031.072.07.072m2.969-5.506c.04 0 .072.034.072.075s-.033.074-.072.074a.074.074 0 0 1-.072-.075c0-.04.033-.074.072-.074m3.319-5.849c.42 0 .76.354.76.792 0 .437-.34.792-.76.792s-.76-.355-.76-.792.34-.793.76-.793m7.627-9.468c.415 0 .75.35.75.783 0 .432-.335.782-.75.782s-.75-.35-.75-.782.335-.783.75-.783m4.269-3.549c.018 0 .032.015.032.033a.033.033 0 0 1-.031.033c-.017 0-.032-.015-.032-.033s.015-.033.032-.033m4.549-4.031c.044 0 .08.038.08.085a.083.083 0 0 1-.08.085.083.083 0 0 1-.082-.085c0-.047.036-.085.081-.085m4.802-2.781c.41 0 .742-.346.742-.773s-.332-.774-.742-.774-.742.347-.742.774.333.773.742.773m10.276-7.771c.43 0 .78.364.78.813s-.35.812-.78.812-.78-.364-.78-.812c0-.45.35-.813.78-.813m5.423-1.656a.05.05 0 0 0 .048-.05.05.05 0 0 0-.047-.05.05.05 0 0 0-.048.05c0 .028.021.05.048.05m5.579-2.139a.026.026 0 0 0 .025-.027.026.026 0 0 0-.026-.027.026.026 0 0 0-.025.027c0 .015.011.027.025.027m5.707-.937c.422 0 .764-.357.764-.797s-.342-.796-.764-.796-.764.357-.764.796.342.797.764.797m11.686-2.128c.432 0 .783-.366.783-.817s-.351-.816-.783-.816-.784.366-.784.816c0 .451.351.817.784.817m5.921-1.199a.05.05 0 0 0 .048-.05.05.05 0 0 0-.048-.05.05.05 0 0 0-.047.05c0 .028.021.05.047.05m5.937-.092c.023 0 .041.02.041.043 0 .025-.018.044-.041.044a.04.04 0 0 1-.042-.044c0-.024.018-.043.042-.043m5.923-.336c.429 0 .777.363.777.81s-.348.81-.777.81-.777-.362-.777-.81c0-.447.347-.81.777-.81m11.684 2.168c.419 0 .758.354.758.79s-.339.79-.758.79c-.418 0-.757-.353-.757-.79 0-.436.339-.79.757-.79m5.707 2.533a.036.036 0 0 0 .035-.036.036.036 0 0 0-.035-.035.035.035 0 0 0-.034.035c0 .02.016.036.034.036m5.578 2.12a.04.04 0 0 0 .038-.04.04.04 0 0 0-.038-.039c-.021 0-.037.018-.037.04 0 .021.016.039.037.039m5.424 1.67c.428 0 .776.362.776.809 0 .446-.348.809-.776.809s-.776-.363-.776-.81c0-.446.348-.808.776-.808m10.276 6.232c.404 0 .733.341.733.763s-.328.764-.733.764-.732-.342-.732-.764.328-.763.732-.763m4.802 4.307c.049 0 .089.042.089.093s-.04.092-.089.092a.09.09 0 0 1-.088-.092c0-.05.04-.093.088-.093m4.548 4.04c.017 0 .032.015.032.033a.033.033 0 0 1-.032.033.033.033 0 0 1-.032-.033c0-.018.015-.033.032-.033m4.271 5.139c.428 0 .775-.361.775-.808 0-.446-.347-.807-.775-.807s-.774.361-.774.807.346.808.774.808m7.627 7.891c.413 0 .748.349.748.78s-.335.78-.748.78c-.414 0-.748-.349-.748-.78s.334-.78.748-.78m3.318 5.833c.042 0 .076.035.076.078a.08.08 0 0 1-.076.08.077.077 0 0 1-.075-.08c0-.043.034-.078.075-.078m2.969 5.369c.038 0 .067.031.067.07 0 .037-.03.069-.067.069-.036 0-.066-.032-.066-.07s.03-.07.066-.07m2.603 4.871c.404 0 .732.342.732.763s-.328.763-.732.763-.732-.342-.732-.763c0-.42.328-.763.732-.763m4.058 11.57c.434 0 .785.367.785.82s-.351.819-.785.819-.786-.367-.786-.82.351-.819.786-.819m1.437 6.914c.047 0 .085-.04.085-.09a.087.087 0 0 0-.085-.088.087.087 0 0 0-.085.089c0 .049.038.089.085.089m1.03 5.977q.026.002.028.029-.002.027-.028.029c-.026.002-.028-.012-.028-.029s.012-.029.028-.029m.621 5.314c.462 0 .835.391.835.871 0 .481-.375.871-.835.871-.461 0-.836-.39-.836-.871 0-.48.375-.871.836-.871m0 12.372c.462 0 .835.39.835.871 0 .48-.375.871-.835.871-.461 0-.836-.391-.836-.871 0-.481.375-.871.836-.871m-.62 6.99c.02 0 .036.017.036.037s-.016.037-.036.037-.035-.017-.035-.037.016-.037.035-.037m-1.032 6.051c.043 0 .079.037.079.082a.08.08 0 0 1-.079.083.08.08 0 0 1-.079-.083.08.08 0 0 1 .079-.082m-1.436 6.908c.434 0 .787-.367.787-.82s-.353-.821-.787-.821-.787.368-.787.821.352.82.787.82m-4.059 10.046c.403 0 .729.34.729.76s-.326.759-.729.759-.728-.339-.728-.759.326-.76.728-.76m-2.602 6.254c.037 0 .066.031.066.069a.066.066 0 0 1-.066.068.066.066 0 0 1-.065-.068c0-.038.029-.069.065-.069m-2.968 5.354c.04 0 .073.034.073.076a.075.075 0 0 1-.073.076.075.075 0 0 1-.073-.076c0-.042.033-.076.073-.076m-3.32 4.413c.421 0 .762.355.762.794s-.341.794-.762.794c-.42 0-.761-.355-.761-.794s.341-.794.761-.794m-7.626 9.465c.428 0 .775.361.775.808 0 .446-.347.807-.775.807s-.774-.361-.774-.807.346-.808.774-.808m-4.272 5.143a.035.035 0 0 0 0-.071.035.035 0 0 0-.034.035c0 .02.016.036.034.036m-4.547 3.851c.049 0 .088.04.088.091a.09.09 0 0 1-.088.091.09.09 0 0 1-.087-.091c0-.051.039-.091.087-.091m-4.802 2.959c.409 0 .739.345.739.771s-.33.771-.739.771-.739-.345-.739-.771.33-.771.739-.771m-10.276 6.154c.424 0 .77.359.77.803 0 .443-.345.802-.77.802s-.77-.359-.77-.802.344-.803.77-.803m-5.424 3.364a.04.04 0 0 0 .042-.043.04.04 0 0 0-.042-.043.04.04 0 0 0-.041.043c0 .024.018.043.041.043m-5.578 2.109a.035.035 0 0 0 0-.071.035.035 0 0 0-.034.035c0 .02.016.036.034.036m-5.706.883c.417 0 .755.353.755.788 0 .434-.338.787-.755.787s-.755-.353-.755-.787.338-.788.755-.788m-11.685 2.131c.427 0 .773.361.773.805 0 .443-.346.805-.773.805s-.773-.362-.773-.805.347-.805.773-.805m-5.923 1.194c.023 0 .041.019.041.043a.04.04 0 0 1-.041.043.04.04 0 0 1-.042-.043c0-.024.018-.043.042-.043m-5.938 0c.023 0 .042.019.042.043a.04.04 0 0 1-.042.043.04.04 0 0 1-.041-.043c0-.024.018-.043.041-.043m-5.921-1.211c.435 0 .789.368.789.823s-.353.823-.789.823-.79-.368-.79-.823.353-.823.79-.823m-11.685-2.12c.42 0 .76.355.76.794 0 .438-.34.793-.76.793-.421 0-.762-.355-.762-.793s.34-.794.762-.794m-5.706-.938c.013 0 .025.011.025.026q-.002.025-.026.027c-.014 0-.025-.011-.025-.027q.001-.024.025-.026m-5.579-2.137c.025 0 .045.02.045.046s-.02.046-.044.046a.045.045 0 0 1-.044-.046c0-.026.02-.046.044-.046m-5.423-3.267c.422 0 .764.356.764.796s-.342.796-.764.796-.764-.356-.764-.796.342-.796.764-.796M62.01 187c.417 0 .755.352.755.786s-.338.786-.754.786-.754-.352-.754-.786.338-.786.754-.786m-4.801-2.764c.047 0 .085-.04.085-.089a.087.087 0 0 0-.085-.089.087.087 0 0 0-.085.089c0 .049.038.089.085.089m-4.55-4.1c.018 0 .032.015.032.033a.033.033 0 0 1-.031.033.033.033 0 0 1-.032-.033c0-.018.015-.033.032-.033m-4.269-5.046c.413 0 .747.348.747.779s-.334.78-.748.78c-.413 0-.747-.348-.747-.78 0-.431.334-.779.748-.779m-7.628-9.497c.423 0 .766.357.766.798s-.343.799-.766.799-.766-.357-.766-.799c0-.441.343-.798.766-.798m-3.319-4.412c.04 0 .075.036.075.079a.077.077 0 0 1-.076.078.077.077 0 0 1-.075-.078c0-.043.034-.079.075-.079m-2.969-5.206c.04 0 .072-.034.072-.075a.074.074 0 0 0-.072-.075.074.074 0 0 0-.072.075c0 .041.032.075.072.075m-2.601-6.386c.395 0 .716.335.716.747s-.321.747-.717.747-.716-.335-.716-.747.321-.747.716-.747m-4.058-10.025c.452 0 .82-.382.82-.854s-.368-.855-.82-.855c-.453 0-.82.383-.82.855s.367.854.82.854m-1.437-6.945c.045 0 .082.038.082.085a.083.083 0 0 1-.082.085.083.083 0 0 1-.081-.085c0-.047.036-.085.081-.085m-1.03-6.04c.016 0 .029.013.029.029a.03.03 0 0 1-.029.029.03.03 0 0 1-.028-.029c0-.016.012-.029.028-.029m-.62-6.947c.435 0 .787.367.787.821s-.352.822-.788.822c-.435 0-.788-.368-.788-.822s.353-.821.788-.821m175.853.833a.49.49 0 0 0-.469-.508.49.49 0 0 0-.487.489.49.49 0 0 0 .469.508.49.49 0 0 0 .487-.489m-3.378 19.213c.492 0 .891-.416.891-.929s-.399-.929-.891-.929-.891.416-.891.929.399.929.891.929m-6.265 16.001c.225 0 .407.19.407.424a.416.416 0 0 1-.407.423.416.416 0 0 1-.406-.423c0-.234.183-.424.406-.424m-5.934 10.658c.256 0 .464.215.464.483a.474.474 0 0 1-.464.483.474.474 0 0 1-.463-.483c0-.267.207-.483.463-.483m-11.282 13.91c.48 0 .87.405.87.906s-.39.907-.87.907-.869-.406-.869-.907.389-.906.869-.906m-13.747 13.159a.48.48 0 0 0 .47-.49.48.48 0 0 0-.47-.489.48.48 0 0 0-.469.489c0 .271.21.49.469.49m-10.278 6.131c.23 0 .416-.194.416-.434a.426.426 0 0 0-.416-.434.426.426 0 0 0-.416.434c0 .24.186.434.416.434m-16.644 5.191c.48 0 .87.406.87.906 0 .501-.39.907-.87.907s-.869-.406-.869-.907c0-.5.389-.906.869-.906m-17.548 3.393c.284 0 .514.24.514.535s-.23.535-.514.535a.524.524 0 0 1-.513-.535c0-.295.23-.535.513-.535m-11.867 1.07a.524.524 0 0 0 .513-.535.524.524 0 0 0-.513-.535.525.525 0 0 0-.513.535c0 .296.23.535.513.535m-17.546-2.65c.48 0 .868-.405.868-.905s-.389-.906-.868-.906c-.48 0-.868.406-.868.906s.388.905.868.905m-16.644-7.847c.217 0 .394.183.394.41a.403.403 0 0 1-.394.411.403.403 0 0 1-.394-.411c0-.227.176-.41.394-.41m-10.277-6.269c.26 0 .472.22.472.493a.483.483 0 0 1-.473.493.483.483 0 0 1-.473-.493c0-.273.212-.493.473-.493m-13.747-12.181c.481 0 .872.407.872.909s-.39.909-.872.909-.872-.407-.872-.909.39-.909.872-.909M34.14 166.346c.25 0 .453.211.453.473a.464.464 0 0 1-.454.473.464.464 0 0 1-.454-.473c0-.262.204-.473.454-.473m-5.933-10.674c.23 0 .414.192.414.431a.42.42 0 0 1-.414.431.42.42 0 0 1-.413-.431c0-.239.185-.431.413-.431m-6.265-16.004c.487 0 .882-.411.882-.919s-.395-.919-.882-.919-.881.411-.881.919.394.919.881.919m-2.897-19.75c.284 0 .514.24.514.535s-.23.535-.514.535a.524.524 0 0 1-.513-.535c0-.295.23-.535.513-.535m0-11.299a.53.53 0 0 0 .517-.539.53.53 0 0 0-.517-.539.53.53 0 0 0-.517.539c0 .298.232.539.517.539m2.897-17.916c.487 0 .882-.411.882-.919s-.395-.92-.882-.92-.881.412-.881.92.394.92.881.92m6.266-17.846a.42.42 0 0 0 .411-.429.42.42 0 0 0-.411-.428.42.42 0 0 0-.411.428.42.42 0 0 0 .41.429m5.934-11.621c.252 0 .458.214.458.478a.47.47 0 0 1-.459.478.47.47 0 0 1-.458-.478c0-.264.205-.478.458-.478m11.282-14.754c.475 0 .86.401.86.897s-.384.896-.86.896c-.475 0-.86-.4-.86-.896s.385-.897.86-.897M59.17 35.12c.262 0 .475.222.475.495a.486.486 0 0 1-.475.496.486.486 0 0 1-.476-.496c0-.273.213-.495.476-.495m10.277-6.121c.228 0 .413.193.413.43s-.185.43-.413.43a.42.42 0 0 1-.412-.43c0-.237.185-.43.412-.43m16.643-5.192c.482 0 .873-.407.873-.91 0-.502-.39-.909-.872-.909s-.872.407-.872.91c0 .502.39.909.872.909m17.547-4.457c.278 0 .504.237.504.527s-.226.526-.504.526a.516.516 0 0 1-.505-.526c0-.29.226-.526.505-.526m11.866-.003a.52.52 0 0 1 .507.53.52.52 0 0 1-.507.528.52.52 0 0 1-.507-.529.52.52 0 0 1 .507-.529m17.548 2.647c.478 0 .866.404.866.902 0 .499-.388.903-.866.903s-.865-.404-.865-.903c0-.498.387-.902.865-.902m16.645 7.013c.223 0 .403.189.403.42a.413.413 0 0 1-.403.422.413.413 0 0 1-.404-.421c0-.232.181-.421.404-.421m10.277 7.106a.487.487 0 0 0 .476-.497.487.487 0 0 0-.476-.497.487.487 0 0 0-.477.497c0 .274.213.497.477.497m13.747 10.366c.477 0 .863.403.863.9s-.386.9-.863.9-.864-.403-.864-.9.387-.9.864-.9m11.283 15.714a.47.47 0 0 0 .459-.48.47.47 0 0 0-.459-.479.47.47 0 0 0-.46.48.47.47 0 0 0 .46.479m5.932 10.664a.42.42 0 0 0 .411-.429.42.42 0 0 0-.411-.428.42.42 0 0 0-.411.428.42.42 0 0 0 .411.429m7.159 17.084c.079-.508-.251-.986-.738-1.068s-.945.263-1.024.77.252.985.739 1.067c.486.083.945-.262 1.023-.77m2.003 17.631c.269 0 .488.228.488.508s-.219.508-.488.508a.5.5 0 0 1-.488-.508c0-.28.219-.508.488-.508m-186.735.238c.143 0 .259.121.259.27s-.116.27-.26.27a.264.264 0 0 1-.258-.27c0-.149.115-.27.259-.27m2.729-18.489a.42.42 0 0 1 .412.43c0 .237-.185.43-.412.43a.42.42 0 0 1-.412-.43c0-.237.184-.43.412-.43m5.911-16.391c.355 0 .643-.3.643-.67s-.288-.672-.643-.672-.644.3-.644.671c0 .37.288.67.644.67m8.895-17.389c.349 0 .63.294.63.657a.644.644 0 0 1-.63.658.644.644 0 0 1-.631-.658c0-.364.282-.658.63-.658M42.47 42.597a.473.473 0 0 0 .464-.483.473.473 0 0 0-.464-.483.474.474 0 0 0-.463.483c0 .267.207.483.463.483m13.858-12.293c.098 0 .176.08.176.182a.18.18 0 0 1-.176.183.18.18 0 0 1-.175-.183c0-.101.078-.182.175-.182m10.278-6.21a.2.2 0 0 1 .196.204.2.2 0 0 1-.196.205.2.2 0 0 1-.196-.205.2.2 0 0 1 .196-.204M72 21.717l.004-.005-.004-.005-.005.005q0 .004.005.005m11.193-4.569c.238 0 .431.202.431.45a.44.44 0 0 1-.431.45.44.44 0 0 1-.432-.45c0-.248.193-.45.431-.45m17.486-2.31c.342 0 .62-.29.62-.647a.634.634 0 0 0-.62-.646c-.343 0-.62.29-.62.646s.277.647.62.647m17.788-1.314c.353 0 .64.298.64.667a.653.653 0 0 1-.64.667.653.653 0 0 1-.64-.667c0-.369.286-.667.64-.667m17.484 4.532a.447.447 0 0 0 .437-.456.447.447 0 0 0-.437-.457.447.447 0 0 0-.438.457c0 .252.196.456.438.456m16.587 6.028a.21.21 0 0 1 .205.215.21.21 0 0 1-.205.214.21.21 0 0 1-.206-.215.21.21 0 0 1 .206-.214m10.279 6.24c.085 0 .154.072.154.161a.16.16 0 0 1-.154.161.16.16 0 0 1-.155-.161c0-.089.069-.161.155-.161m13.857 11.312a.47.47 0 0 1 .459.478.47.47 0 0 1-.459.478.47.47 0 0 1-.458-.478c0-.264.205-.478.458-.478m11.574 13.955c.321 0 .582.272.582.608s-.26.607-.582.607a.594.594 0 0 1-.583-.607c0-.336.26-.608.583-.608m8.893 15.996a.66.66 0 0 1 .646.673.66.66 0 0 1-.646.674.66.66 0 0 1-.646-.674.66.66 0 0 1 .646-.673m5.912 17.724c.233 0 .422.198.422.44s-.19.44-.422.44a.43.43 0 0 1-.422-.44c0-.243.19-.44.422-.44m2.728 19.046a.27.27 0 0 0 .265-.277.27.27 0 0 0-.265-.276.27.27 0 0 0-.265.276.27.27 0 0 0 .265.277m0 12.378c.149 0 .27-.126.27-.282a.276.276 0 0 0-.27-.281.276.276 0 0 0-.27.281c0 .156.121.282.27.282m-2.728 17.608a.43.43 0 0 1 .42.438.43.43 0 0 1-.42.437.427.427 0 0 1-.419-.437c0-.242.187-.438.419-.438m-5.913 18.606a.663.663 0 0 0 .649-.676.663.663 0 0 0-.649-.676.663.663 0 0 0-.648.676c0 .373.29.676.648.676m-8.893 16.023a.624.624 0 0 0 .611-.636.625.625 0 0 0-.611-.637.624.624 0 0 0-.61.637c0 .351.273.636.61.636m-11.573 12.968c.254 0 .459.214.459.479a.47.47 0 0 1-.459.48.47.47 0 0 1-.46-.48c0-.265.205-.479.46-.479m-13.859 11.942a.16.16 0 0 1 .158.165c0 .091-.07.165-.158.165a.16.16 0 0 1-.158-.165c0-.092.071-.165.158-.165m-10.277 6.138a.21.21 0 0 1 .205.215.21.21 0 0 1-.205.214.21.21 0 0 1-.206-.214c0-.118.092-.215.206-.215m-5.393 2.8v.003l-.001-.002zm-11.194 3.654c.243 0 .442.206.442.461a.45.45 0 0 1-.442.46.45.45 0 0 1-.441-.46.45.45 0 0 1 .441-.461m-17.485 4.537c.355 0 .642-.3.642-.669s-.287-.67-.642-.67c-.354 0-.642.3-.642.67 0 .369.288.669.642.669m-17.787-.016a.64.64 0 0 0 .626-.653.64.64 0 0 0-.626-.653.64.64 0 0 0-.626.653c0 .36.28.653.626.653m-17.485-4.522c.244 0 .442.207.442.462a.45.45 0 0 1-.442.461.45.45 0 0 1-.443-.461c0-.255.198-.462.443-.462M72 206.826q.003 0 .004-.005 0-.005-.004-.005-.005 0-.005.005t.005.005m-5.393-2.793c.106 0 .193.09.193.202a.197.197 0 0 1-.194.201.197.197 0 0 1-.193-.201c0-.112.086-.202.194-.202m-10.277-6.171c.098 0 .178.083.178.186s-.08.186-.179.186a.18.18 0 0 1-.179-.186c0-.103.08-.186.18-.186m-13.86-11.928c.258 0 .467.218.467.487s-.21.487-.467.487a.477.477 0 0 1-.467-.487c0-.269.21-.487.467-.487m-11.572-12.972c.331 0 .6-.28.6-.626a.615.615 0 0 0-.6-.627c-.332 0-.601.281-.601.627s.269.626.6.626m-8.894-17.361a.66.66 0 0 1 .646.673.66.66 0 0 1-.646.673.66.66 0 0 1-.646-.673.66.66 0 0 1 .646-.673m-5.911-17.25c.229 0 .412.193.412.43s-.185.43-.412.43a.42.42 0 0 1-.412-.43c0-.237.184-.43.412-.43m-2.729-18.174c.146 0 .265.124.265.276s-.12.277-.265.277a.27.27 0 0 1-.265-.277c0-.152.119-.276.265-.276m198.097.335a.056.056 0 0 0 .055-.058.056.056 0 0 0-.055-.057.057.057 0 0 0-.055.057c0 .032.025.058.055.058m-2.578 18.259c.02 0 .035.016.035.036 0 .021-.015.037-.035.037a.036.036 0 0 1-.035-.037c0-.02.016-.036.035-.036m-1.537 6.043a.03.03 0 0 0 .026-.027.03.03 0 0 0-.026-.027.03.03 0 0 0-.026.027c0 .015.012.027.026.027m-4.06 11.605q.003 0 .003-.004 0-.002-.003-.003l-.003.003q0 .004.003.004m-2.508 5.574c.018 0 .033.015.033.034a.034.034 0 0 1-.033.034.034.034 0 0 1-.033-.034c0-.019.015-.034.033-.034m-16.968 25.25a.05.05 0 0 1 .048.05.05.05 0 0 1-.048.05c-.025 0-.047-.023-.047-.05s.022-.05.047-.05m-4.199 4.388a.04.04 0 0 1 .039.04c0 .023-.017.041-.039.041s-.039-.018-.039-.041.017-.04.039-.04m-24.232 17.712q.018.001.019.021-.001.018-.019.02a.02.02 0 0 1-.02-.02.02.02 0 0 1 .02-.021m-16.535 6.832c.02 0 .035.017.035.037 0 .021-.015.037-.035.037s-.035-.016-.035-.037.015-.037.035-.037m-5.734 1.604c.018 0 .033.016.033.035a.034.034 0 0 1-.033.034.034.034 0 0 1-.033-.034c0-.019.015-.035.033-.035m-17.603 2.661c.034 0 .061.028.061.063a.06.06 0 0 1-.061.063.06.06 0 0 1-.061-.063c0-.035.027-.063.061-.063m-11.868.022a.04.04 0 0 1 .039.041c0 .023-.017.041-.039.041s-.039-.018-.039-.041.017-.041.039-.041m-17.603-2.691c.023 0 .041.019.041.043a.04.04 0 0 1-.041.043.04.04 0 0 1-.042-.043c0-.024.019-.043.042-.043m-5.736-1.589a.03.03 0 0 1 .03.03c0 .017-.014.031-.03.031s-.03-.014-.03-.031a.03.03 0 0 1 .03-.03m-11.152-4.195q.007 0 .007-.008a.01.01 0 0 0-.007-.007.01.01 0 0 0-.007.007q0 .008.007.008m-5.38-2.597a.026.026 0 0 0 .025-.026.026.026 0 0 0-.025-.027.026.026 0 0 0-.026.027c0 .014.012.026.026.026m-24.233-17.769c.027 0 .047.023.047.049s-.021.05-.047.05-.048-.023-.048-.05a.05.05 0 0 1 .048-.049m-4.199-4.363c.02 0 .036.016.036.036a.036.036 0 0 1-.036.037.036.036 0 0 1-.035-.037c0-.02.016-.036.035-.036m-16.969-25.265c.018 0 .033.015.033.034a.033.033 0 0 1-.033.034.033.033 0 0 1-.033-.034c0-.019.015-.034.033-.034m-2.509-5.588s.011.005.011.011a.01.01 0 0 1-.01.011.01.01 0 0 1-.011-.011.01.01 0 0 1 .01-.011m-4.06-11.591a.026.026 0 0 0 .026-.027.026.026 0 0 0-.026-.027.026.026 0 0 0-.026.027c0 .015.012.027.026.027m-1.535-6.05c.023 0 .042.019.042.043 0 .025-.019.044-.042.044s-.041-.019-.041-.044.018-.043.041-.043m-2.58-18.363c.028 0 .051.024.051.054a.05.05 0 0 1-.05.053.05.05 0 0 1-.052-.053c0-.03.023-.054.051-.054m.001-12.292a.03.03 0 0 0 .029-.03.03.03 0 0 0-.03-.031c-.016 0-.029.014-.029.031s.013.03.03.03m2.579-18.43c.024 0 .045.021.045.047s-.02.047-.045.047a.047.047 0 0 1-.045-.047c0-.026.02-.047.045-.047m1.536-5.963a.03.03 0 0 1 .03.03.03.03 0 0 1-.03.03.03.03 0 0 1-.03-.03.03.03 0 0 1 .03-.03m6.568-17.243c.018 0 .033.016.033.035s-.015.034-.033.034a.034.034 0 0 1-.033-.034c0-.02.015-.035.033-.035m16.969-25.271c.02 0 .036.017.036.037s-.016.037-.036.037a.036.036 0 0 1-.035-.037c0-.02.016-.037.035-.037m4.199-4.383c.023 0 .041.019.041.043a.04.04 0 0 1-.041.043.04.04 0 0 1-.042-.043c0-.024.019-.043.042-.043m24.233-17.623a.026.026 0 0 0 .025-.027.026.026 0 0 0-.025-.026.026.026 0 0 0-.026.026c0 .015.012.027.026.027M80.3 12.297c.012 0 .023.01.023.024q-.002.022-.023.024-.022-.002-.024-.024.001-.022.024-.024m5.735-1.641c.035 0 .061.028.061.064a.06.06 0 0 1-.06.063.06.06 0 0 1-.061-.063c0-.036.026-.064.06-.064m17.603-2.665a.04.04 0 0 1 .039.04.04.04 0 0 1-.039.041.04.04 0 0 1-.039-.04.04.04 0 0 1 .039-.041m11.868-.014a.053.053 0 0 1 0 .107.053.053 0 0 1-.051-.054c0-.029.023-.053.051-.053m17.604 2.696c.024 0 .045.02.045.047 0 .026-.02.047-.045.047a.046.046 0 0 1-.046-.047c0-.027.02-.047.046-.047m5.733 1.607a.04.04 0 0 1 .039.041.04.04 0 0 1-.039.04.04.04 0 0 1-.039-.04.04.04 0 0 1 .039-.04m16.534 6.861c.015 0 .027.012.027.028a.03.03 0 0 1-.027.028c-.014 0-.026-.013-.026-.028s.012-.028.026-.028m24.234 17.677c.023 0 .041.019.041.043a.04.04 0 0 1-.041.043.043.043 0 0 1-.042-.043c0-.024.019-.043.042-.043m4.198 4.371c.027 0 .048.022.048.05a.05.05 0 0 1-.048.049c-.025 0-.047-.023-.047-.05s.022-.05.047-.05m16.968 25.293c.014 0 .025.012.025.026a.025.025 0 0 1-.025.025c-.013 0-.024-.011-.024-.025s.011-.026.024-.026m2.509 5.65a.014.014 0 0 0 .014-.014.014.014 0 0 0-.014-.015.015.015 0 0 0-.014.015q.002.013.014.014m4.059 11.58c.019 0 .033.015.033.034s-.014.034-.033.034a.034.034 0 0 1-.033-.034c0-.02.015-.034.033-.034m1.537 5.969c.024 0 .042.02.042.044a.04.04 0 0 1-.042.043.04.04 0 0 1-.041-.043c0-.024.018-.044.041-.044m2.579 18.361c.02 0 .036.017.036.037s-.016.037-.036.037-.035-.017-.035-.037.016-.037.035-.037M5.906 83.638c.034 0 .06.028.06.064a.06.06 0 0 1-.06.063.06.06 0 0 1-.061-.063c0-.036.026-.064.06-.064m6.239-17.473c.086 0 .156.073.156.163s-.07.162-.156.162a.16.16 0 0 1-.156-.162c0-.09.07-.163.156-.163M21.04 50.45c.1 0 .182-.085.182-.19a.185.185 0 0 0-.181-.188c-.1 0-.182.084-.182.189 0 .104.081.189.182.189m11.31-14.403a.104.104 0 0 0 .102-.107.104.104 0 0 0-.102-.106.104.104 0 0 0-.102.106c0 .059.046.107.102.107M83.124 5.293c.044 0 .08.038.08.083a.083.083 0 0 1-.08.084.083.083 0 0 1-.08-.084c0-.045.035-.083.08-.083m17.551-3.091c.063 0 .114.054.114.12s-.051.119-.114.119a.117.117 0 0 1-.114-.12c0-.065.051-.119.114-.119m17.793-.01c.069 0 .125.059.125.131s-.056.13-.125.13a.13.13 0 0 1-.125-.13c0-.072.056-.13.125-.13m17.55 3.092c.047 0 .086.04.086.09s-.039.09-.086.09a.09.09 0 0 1-.086-.09c0-.05.039-.09.086-.09m50.773 30.546c.059 0 .106.05.106.11 0 .061-.047.11-.106.11a.11.11 0 0 1-.105-.11c0-.06.047-.11.105-.11m11.312 14.237a.19.19 0 0 1 .186.194.19.19 0 0 1-.186.194.19.19 0 0 1-.186-.194.19.19 0 0 1 .186-.194m8.896 16.422a.16.16 0 0 0 .156-.162.16.16 0 0 0-.156-.163.16.16 0 0 0-.155.163c0 .09.069.162.155.162m6.24 17.281a.07.07 0 0 0 .067-.07c0-.038-.03-.07-.067-.07a.07.07 0 0 0-.067.07c0 .04.03.07.067.07m0 61.137c.04 0 .073-.034.073-.076a.075.075 0 0 0-.073-.076.075.075 0 0 0-.073.076c0 .042.033.076.073.076M207 162.367a.16.16 0 0 0 .155-.161.16.16 0 0 0-.155-.161.16.16 0 0 0-.154.161c0 .089.069.161.154.161m-8.897 16.099a.19.19 0 0 0 .186-.194.19.19 0 0 0-.186-.194.19.19 0 0 0-.186.194.19.19 0 0 0 .186.194m-11.312 14.017c.059 0 .106.049.106.11s-.047.11-.106.11a.107.107 0 0 1-.105-.11c0-.061.047-.11.105-.11m-50.774 30.588c.047 0 .084.039.084.087a.086.086 0 0 1-.084.088c-.046 0-.083-.04-.083-.088s.037-.087.083-.087m-17.548 3.011c.068 0 .124.058.124.129s-.056.13-.124.13a.13.13 0 0 1-.124-.13c0-.071.056-.129.124-.129m-17.794.01c.063 0 .114.054.114.119 0 .066-.051.12-.114.12a.117.117 0 0 1-.114-.12c0-.065.051-.119.114-.119m-17.55-2.855a.08.08 0 0 0 .077-.08.08.08 0 0 0-.077-.08.08.08 0 0 0-.076.08c0 .044.034.08.076.08m-50.774-30.753c.058 0 .104.048.104.108s-.046.108-.104.108a.106.106 0 0 1-.103-.108c0-.06.046-.108.103-.108M21.04 178.465a.19.19 0 0 0 .185-.192.19.19 0 0 0-.185-.193.19.19 0 0 0-.184.193c0 .106.082.192.184.192m-8.896-16.1a.156.156 0 0 0 .154-.159.156.156 0 0 0-.154-.16.156.156 0 0 0-.153.16c0 .088.069.159.153.159m-6.238-17.46c.038 0 .07-.033.07-.073a.07.07 0 0 0-.07-.074.07.07 0 0 0-.071.074c0 .04.032.073.07.073m213.205-.071c.019 0 .035.017.035.036a.035.035 0 0 1-.035.035.035.035 0 0 1-.034-.035c0-.019.016-.036.034-.036m-29.352 53.038.003.003q0 .003-.003.003t-.003-.003.003-.003m-50.836 30.663c.03 0 .055-.026.055-.058a.057.057 0 0 0-.055-.057.057.057 0 0 0-.055.057c0 .032.025.058.055.058m-58.702-.015a.04.04 0 0 0 .041-.042.04.04 0 0 0-.04-.042.04.04 0 0 0-.04.042c0 .023.018.042.04.042m-50.836-30.656s.01.005.01.01-.006.01-.01.01q-.009-.001-.01-.01.001-.009.01-.01M.034 144.834c.018 0 .034.017.034.036a.035.035 0 0 1-.034.035.035.035 0 0 1-.034-.035c0-.019.016-.036.034-.036M.033 83.637q.024.001.026.027-.001.024-.026.026a.025.025 0 0 1-.025-.026q.001-.026.025-.027m29.352-52.963a.015.015 0 0 0 .015-.016.015.015 0 0 0-.015-.016.015.015 0 0 0-.015.016q.002.015.015.016M80.22.009c.025 0 .046.02.046.047s-.02.047-.045.047c-.026 0-.045-.02-.045-.047s.02-.047.045-.047M138.922 0c.029 0 .054.025.054.056 0 .03-.025.056-.054.056a.056.056 0 0 1-.054-.056c0-.03.025-.056.054-.056m50.837 30.67q.011-.001.012-.013a.012.012 0 0 0-.012-.012.012.012 0 0 0-.012.012q0 .012.012.013m29.351 52.963a.03.03 0 0 1 .03.03.03.03 0 0 1-.03.031.03.03 0 0 1-.029-.03.03.03 0 0 1 .029-.03"/></g><defs><clipPath id="a"><path fill="#fff" d="M0 0h219.143v228.534H0z"/></clipPath></defs></svg>