<svg width="245" height="86" viewBox="0 0 245 86" fill="none" xmlns="http://www.w3.org/2000/svg">
<path d="M6.78899 84C6.78899 82.0039 7.49208 80.4241 8.39687 78.5978C15.1895 64.8875 25.4407 52.2871 35.2436 40.4164C41.0608 33.3721 46.9925 26.7903 53.5637 20.3643C59.5712 14.4894 67.0914 6.21011 75.0508 2.41806C79.0974 0.490198 75.8801 5.83922 75.733 6.12633C71.39 14.6016 64.6154 22.3826 58.3386 29.612C42.5215 47.8298 24.3079 63.9218 5.47345 79.3303C3.82375 80.68 -0.328733 83.28 3.7194 81.7109C12.7825 78.1982 21.5726 74.0268 30.5661 70.3572C31.7852 69.8598 55.1146 59.4916 56.6333 62.3455C57.4172 63.8186 50.065 71.7181 48.8862 73.2872" stroke="#672666" stroke-width="2.96386" stroke-linecap="round"/>
<path d="M108.02 17.8072C96.2535 31.9374 88.0717 49.3829 82.3925 65.7428C82.0059 66.8565 80.184 69.5368 81.5163 69.1412C85.3577 68.0005 97.1807 53.0234 97.9993 52.1938C106.786 43.2895 112.44 37.8276 121.875 29.4781C124.816 26.875 127.806 24.3051 130.91 21.8316C132.484 20.5782 136.462 17.1752 136.496 18.9698C136.518 20.116 130.415 30.0104 132.663 29.2545C133.746 28.8904 134.451 29.29 135.51 29.4781C139.474 30.1817 143.484 29.5649 147.448 29.2545C151.219 28.9592 154.001 32.7661 156.538 31.9375C160.341 30.6954 171.302 21.8599 172.09 27.913C172.476 30.8736 176.368 28.2272 178.114 27.4211C183.034 25.1502 185.236 24.6507 190.161 27.0187C209.31 36.2248 226.472 27.2953 243.06 18.6121" stroke="#672666" stroke-width="2.96386" stroke-linecap="round"/>
</svg>
