<svg preserveAspectRatio="none" width="100%" height="100%" overflow="visible" style="display: block;" viewBox="0 0 41.6689 41.6689" fill="none" xmlns="http://www.w3.org/2000/svg">
<g id="Frame">
<path id="Vector" d="M10.4172 31.2517H24.3069" stroke="var(--stroke-0, #672666)" stroke-width="3" stroke-linecap="round" stroke-linejoin="round"/>
<path id="Vector_2" d="M5.20862 38.1965H36.4603" stroke="var(--stroke-0, #672666)" stroke-width="3" stroke-linecap="round" stroke-linejoin="round"/>
<path id="Vector_3" d="M24.3069 38.1965C27.5302 38.1965 30.6215 36.9161 32.9007 34.6369C35.1799 32.3577 36.4603 29.2664 36.4603 26.0431C36.4603 22.8198 35.1799 19.7285 32.9007 17.4493C30.6215 15.1701 27.5302 13.8896 24.3069 13.8896H22.5707" stroke="var(--stroke-0, #672666)" stroke-width="3" stroke-linecap="round" stroke-linejoin="round"/>
<path id="Vector_4" d="M15.6259 24.3069H19.0983" stroke="var(--stroke-0, #672666)" stroke-width="3" stroke-linecap="round" stroke-linejoin="round"/>
<path id="Vector_5" d="M15.6259 20.8345C14.7049 20.8345 13.8217 20.4686 13.1705 19.8174C12.5193 19.1662 12.1534 18.283 12.1534 17.3621V10.4172H22.5707V17.3621C22.5707 18.283 22.2048 19.1662 21.5536 19.8174C20.9024 20.4686 20.0192 20.8345 19.0983 20.8345H15.6259Z" stroke="var(--stroke-0, #672666)" stroke-width="3" stroke-linecap="round" stroke-linejoin="round"/>
<path id="Vector_6" d="M20.8345 10.4172V5.20862C20.8345 4.74815 20.6516 4.30654 20.3259 3.98094C20.0003 3.65533 19.5587 3.47241 19.0983 3.47241H15.6259C15.1654 3.47241 14.7238 3.65533 14.3982 3.98094C14.0726 4.30654 13.8896 4.74815 13.8896 5.20862V10.4172" stroke="var(--stroke-0, #672666)" stroke-width="3" stroke-linecap="round" stroke-linejoin="round"/>
</g>
</svg>
